<svg width="1440" height="638" viewBox="0 0 1440 638" fill="none" xmlns="http://www.w3.org/2000/svg">
<g opacity="0.3">
<path d="M401.741 637.252C393.501 637.252 385.481 636.731 377.773 635.692C361.609 633.513 346.675 629.037 333.386 622.39C319.102 615.248 306.575 605.515 296.148 593.465C275.193 569.242 264.709 540.235 254.569 512.181C252.577 506.672 250.518 500.977 248.426 495.45C234.159 457.782 216.072 424.786 193.137 394.579C147.386 334.319 83.0437 282.892 7.06384 245.858C-80.8058 203.03 -175.28 181.695 -258.958 185.786C-308.14 188.191 -373.122 211.065 -402.165 250.128C-419.4 273.311 -420.79 299.039 -406.181 324.525L-406.471 324.633C-414.131 311.267 -417.468 297.867 -416.388 284.806C-415.396 272.824 -410.704 261.112 -402.439 249.994C-389.293 232.312 -367.614 216.64 -339.745 204.671C-313.992 193.613 -285.31 186.814 -258.977 185.527C-215.186 183.388 -168.612 188.135 -120.549 199.64C-76.9807 210.07 -33.9894 225.544 7.22958 245.635C83.2541 282.69 147.634 334.145 193.411 394.44C216.359 424.668 234.455 457.682 248.732 495.371C250.827 500.897 252.886 506.596 254.875 512.104C265.005 540.137 275.483 569.124 296.41 593.311C316.648 616.704 344.042 630.876 377.827 635.431C424.615 641.74 481.431 628.545 529.806 600.132C599.519 559.189 647.901 499.594 694.692 441.964C702.893 431.862 711.373 421.417 719.769 411.33C741.566 385.139 771.086 351.199 806.169 320.963C842.03 290.058 878.47 267.351 917.576 251.543C941.512 241.867 966.879 235.348 992.972 232.168C1017.07 229.229 1042.58 229.047 1068.8 231.622C1113.76 236.041 1162.2 248.522 1216.88 269.777C1324.56 311.633 1432.12 362.437 1536.58 420.781C1635.87 476.234 1733.24 538.983 1826 607.28L1825.78 607.47C1633.5 465.894 1428.59 352.356 1216.74 270.008C1097.05 223.485 1002.04 217.689 917.719 251.772C831.938 286.444 772.014 349.017 720.033 411.471C711.64 421.555 703.161 432.001 694.959 442.102C648.156 499.753 599.758 559.366 529.998 600.338C507.455 613.578 482.094 623.906 456.66 630.202C443.224 633.528 429.868 635.703 416.959 636.667C411.814 637.059 406.736 637.252 401.741 637.252Z" fill="#300CFC"/>
<path d="M409.797 622.888C388.785 622.888 369.321 619.669 351.926 613.317C332.53 606.233 315.792 595.257 302.174 580.696C300.969 579.406 299.774 578.072 298.62 576.728C277.888 552.611 266.938 523.981 256.352 496.291C254.21 490.695 251.998 484.907 249.754 479.291C236.388 445.849 220.294 416.375 200.547 389.188C198.115 385.841 195.596 382.487 193.056 379.22C146.631 319.478 81.7668 268.703 5.47452 232.381C-83.0295 190.284 -177.772 169.832 -261.3 174.794C-310.124 177.725 -374.807 200.973 -403.974 239.736C-421.439 262.948 -423.415 288.727 -409.696 314.288L-409.989 314.39C-417.18 300.993 -420.135 287.568 -418.768 274.491C-417.512 262.481 -412.628 250.743 -404.248 239.603C-390.969 221.951 -369.353 206.261 -341.746 194.231C-316.229 183.111 -287.671 176.117 -261.328 174.538C-217.591 171.94 -170.966 176.233 -122.75 187.296C-79.0769 197.319 -35.8816 212.414 5.63388 232.161C81.9708 268.503 146.871 319.309 193.324 379.084C195.864 382.353 198.385 385.71 200.818 389.06C220.578 416.264 236.681 445.754 250.053 479.214C252.301 484.83 254.513 490.618 256.655 496.217C267.238 523.888 278.178 552.498 298.881 576.582C300.032 577.921 301.227 579.254 302.429 580.542C330.569 610.642 369.235 622.888 409.896 622.888C410.119 622.888 410.339 622.888 410.562 622.888C410.307 622.885 410.052 622.888 409.797 622.888ZM418.471 622.708C456.273 621.146 495.28 609.46 528.743 592.075C600.927 554.419 652.805 496.26 702.978 440.017C705.043 437.699 707.109 435.386 709.175 433.073C713.711 427.995 719.088 421.983 724.577 415.923C749.201 388.747 779.002 357.126 813.323 328.665C849.841 298.38 886.323 275.907 924.851 259.958C948.526 250.169 973.545 243.273 999.215 239.462C1023 235.93 1048.13 234.933 1073.91 236.495C1118.44 239.195 1166.33 249.433 1220.3 267.795C1272.92 285.67 1316.18 302.496 1356.43 320.748C1413.45 346.629 1467.76 376.45 1513.37 402.206C1619.41 462.257 1723.46 530.446 1822.62 604.879L1822.4 605.067C1723.25 530.643 1619.22 462.46 1513.19 402.416C1467.59 376.663 1413.28 346.847 1356.28 320.974C1316.03 302.727 1272.79 285.906 1220.18 268.036C1102.61 228.034 1008.81 225.539 924.998 260.189C838.015 296.19 776.07 359.531 724.835 416.077C719.343 422.137 713.969 428.146 709.433 433.226C707.367 435.537 705.302 437.853 703.236 440.171C653.047 496.432 601.15 554.612 528.915 592.295C511.004 601.599 491.945 608.99 472.265 614.26C453.946 619.161 435.888 621.995 418.471 622.708Z" fill="#300CFC"/>
<path d="M418.681 608.852C416.153 608.852 413.641 608.809 411.149 608.719C390.155 607.973 370.727 604.098 353.405 597.197C334.461 589.649 318.048 578.47 304.625 563.968C303.433 562.675 302.244 561.339 301.096 559.995C280.597 535.996 269.192 507.748 258.166 480.433C255.867 474.739 253.49 468.851 251.08 463.137C237.054 429.808 220.536 400.57 200.575 373.75C198.105 370.434 195.548 367.108 192.97 363.866C145.873 304.646 80.4852 254.521 3.88058 218.913C-85.2545 177.547 -180.264 157.974 -263.646 163.808C-310.593 167.145 -375.088 189.066 -405.753 229.309C-423.469 252.56 -426.048 278.408 -413.212 304.058L-413.508 304.153C-420.234 290.715 -422.8 277.259 -421.142 264.159C-419.619 252.111 -414.531 240.342 -406.024 229.176C-392.604 211.565 -371.059 195.87 -343.715 183.784C-318.438 172.61 -290.011 165.426 -263.675 163.554C-219.988 160.5 -173.312 164.337 -124.947 174.959C-81.1648 184.576 -37.7687 199.289 4.03998 218.692C80.6892 254.324 146.112 304.476 193.237 363.73C195.816 366.974 198.376 370.301 200.846 373.622C220.817 400.457 237.344 429.714 251.376 463.06C253.786 468.777 256.164 474.665 258.462 480.358C269.485 507.658 280.881 535.886 301.355 559.857C302.502 561.2 303.685 562.534 304.877 563.822C359.42 622.75 456.081 616.423 527.678 584.015C602.874 549.678 658.756 492.609 712.798 437.42L713.353 436.853C718.587 431.504 724 425.974 729.387 420.514C786.231 362.915 848.712 303.72 932.132 268.367C955.551 258.463 980.226 251.19 1005.47 246.751C1028.94 242.622 1053.69 240.809 1079.03 241.363C1123.21 242.327 1170.54 250.323 1223.73 265.808C1279.63 282.024 1321.69 296.929 1360.12 314.14C1414.87 338.71 1467.91 369.759 1514.71 397.154C1618.89 458.475 1721.35 527.554 1819.24 602.467L1819.02 602.651C1721.14 527.746 1618.69 458.675 1514.52 397.359C1467.73 369.97 1414.7 338.926 1359.96 314.363C1321.55 297.157 1279.5 282.257 1223.62 266.047C1108.33 232.482 1015.75 233.29 932.278 268.591C848.913 303.92 786.458 363.089 729.635 420.668C724.248 426.128 718.836 431.66 713.602 437.007L713.047 437.574C686.115 465.076 658.268 493.514 628.196 518.916C594.401 547.462 561.572 568.827 527.831 584.233C492.531 600.21 454.079 608.852 418.681 608.852Z" fill="#300CFC"/>
<path d="M1815.64 600.233C1719.03 524.845 1618.17 454.887 1515.85 392.302C1511.51 389.671 1507.17 387.026 1502.82 384.375C1458.49 357.391 1412.67 329.488 1363.66 307.751C1316.12 286.722 1267.93 273.863 1227.07 264.059C1114.27 236.828 1022.91 240.939 939.568 276.992C854.009 314.111 787.713 375.74 734.445 425.261C731.248 428.234 728.057 431.211 724.86 434.191C722.501 436.391 720.139 438.592 717.777 440.79C687.447 469.015 659.858 494.25 629.375 517.277C594.55 543.582 560.985 562.847 526.753 576.175C494.673 588.667 460.403 595.276 428.527 595.278C422.719 595.278 416.997 595.06 411.374 594.616C390.846 592.998 371.842 588.451 354.89 581.101C336.392 573.082 320.304 561.69 307.066 547.242C305.884 545.946 304.704 544.608 303.563 543.261C283.306 519.388 271.458 491.537 260.001 464.604C257.534 458.803 254.981 452.802 252.399 446.978C237.704 413.754 220.759 384.749 200.6 358.303C198.092 355.013 195.494 351.718 192.88 348.504C145.107 289.804 79.2001 240.332 2.28629 205.433C-87.48 164.798 -182.754 146.11 -265.989 152.809C-322.891 157.479 -381.078 184.627 -407.49 218.825C-425.484 242.124 -428.675 268.054 -416.725 293.813L-417.025 293.903C-423.282 280.416 -425.462 266.918 -423.505 253.785C-421.704 241.693 -416.406 229.886 -407.761 218.689C-394.201 201.13 -372.726 185.435 -345.657 173.305C-320.622 162.085 -292.341 154.714 -266.021 152.555C-222.386 149.041 -175.662 152.424 -127.147 162.605C-83.2596 171.817 -39.6563 186.15 2.44568 205.208C79.4073 240.127 145.349 289.627 193.151 348.363C195.768 351.579 198.366 354.877 200.874 358.168C221.046 384.629 237.997 413.649 252.702 446.888C255.284 452.715 257.837 458.713 260.304 464.517C271.754 491.434 283.596 519.267 303.828 543.113C304.969 544.456 306.145 545.793 307.325 547.085C364.265 609.234 461.044 601.472 526.616 575.941C604.85 545.48 664.716 489.773 717.538 440.62C719.9 438.42 722.259 436.22 724.621 434.022C727.815 431.042 731.009 428.064 734.206 425.092C764.613 396.826 794.64 369.357 827.651 344.045C865.612 314.934 902.174 292.928 939.421 276.766C962.595 266.741 986.92 259.091 1011.72 254.031C1034.9 249.3 1059.28 246.674 1084.16 246.222C1128.06 245.427 1174.84 251.182 1227.16 263.813C1268.04 273.622 1316.25 286.486 1363.82 307.528C1412.84 329.273 1458.68 357.183 1503.01 384.172C1507.37 386.824 1511.71 389.468 1516.05 392.099C1618.38 454.69 1719.25 524.656 1815.87 600.051L1815.64 600.233Z" fill="#300CFC"/>
<path d="M1812.26 597.817C1715.11 520.506 1615.83 449.657 1517.18 387.244C1511.28 383.51 1505.24 379.661 1499.4 375.939C1457.57 349.289 1414.33 321.73 1367.35 301.139C1320.45 280.651 1271.86 269.89 1230.51 262.068C1120.46 241.047 1030.32 248.458 946.855 285.393C867.241 320.75 804.869 373.919 744.55 425.335L737.926 430.98C732.695 435.44 727.286 440.048 721.953 444.569C661.573 495.691 601.13 543.605 525.676 568.111C507.366 574.059 488.566 578.18 469.791 580.367C449.629 582.714 430.045 582.747 411.579 580.465C391.522 577.985 372.948 572.776 356.373 564.983C338.334 556.502 322.568 544.902 309.518 530.51C308.342 529.207 307.172 527.866 306.04 526.522C286.032 502.79 273.756 475.349 261.885 448.811C259.237 442.89 256.495 436.765 253.728 430.818C238.351 397.697 220.985 368.925 200.636 342.859C198.092 339.602 195.456 336.333 192.8 333.145C144.355 274.965 77.9286 226.144 0.699158 191.956C-89.7014 152.057 -185.244 134.249 -268.335 141.817C-324.717 147.061 -382.64 174.399 -409.186 208.3C-427.48 231.658 -431.302 257.688 -420.241 283.577L-420.543 283.662C-426.332 270.116 -428.12 256.567 -425.86 243.396C-423.776 231.253 -418.258 219.399 -409.46 208.167C-395.753 190.666 -374.355 174.986 -347.573 162.82C-322.786 151.559 -294.658 144.012 -268.373 141.565C-224.789 137.595 -178.017 140.521 -129.349 150.262C-85.3535 159.068 -41.5494 173.019 0.848969 191.733C78.123 225.939 144.588 274.791 193.062 333.004C195.717 336.194 198.356 339.466 200.9 342.723C221.263 368.802 238.638 397.589 254.022 430.728C256.788 436.676 259.53 442.802 262.179 448.724C274.043 475.246 286.312 502.674 306.298 526.379C307.427 527.717 308.597 529.056 309.77 530.359C365.339 591.644 457.672 589.923 525.552 567.875C600.945 543.389 661.363 495.494 721.717 444.395C727.05 439.874 732.459 435.265 737.69 430.805L744.314 425.161C773.924 399.923 804.538 373.824 837.788 349.545C875.446 322.048 911.071 300.99 946.695 285.167C969.633 275.017 993.614 266.99 1017.97 261.312C1040.86 255.972 1064.86 252.531 1089.28 251.082C1132.98 248.489 1179.2 252.002 1230.58 261.817C1271.95 269.644 1320.56 280.407 1367.5 300.914C1414.5 321.512 1457.76 349.078 1499.59 375.737C1505.43 379.458 1511.47 383.305 1517.37 387.041C1616.03 449.46 1715.32 520.313 1812.48 597.632L1812.26 597.817Z" fill="#300CFC"/>
<path d="M1808.88 595.401C1712.56 517.231 1614.87 445.495 1518.51 382.19C1511.27 377.432 1503.84 372.485 1496.66 367.702C1457.1 341.339 1416.18 314.078 1371.05 294.533C1324.36 274.396 1275.55 265.818 1233.96 260.084C1126.96 245.104 1038.04 255.819 954.139 293.8C880.919 327.085 820.804 374.257 762.665 419.876C756.548 424.676 750.221 429.639 744.056 434.447C736.817 440.095 731.287 444.385 726.126 448.355C698.486 469.605 665.577 494.073 631.043 514.425C594.446 535.991 559.628 550.916 524.596 560.056C506.174 564.862 487.454 567.894 468.95 569.063C449.081 570.32 429.844 569.397 411.776 566.317C392.201 562.98 374.061 557.11 357.852 548.87C340.275 539.935 324.838 528.128 311.966 513.782C310.806 512.481 309.642 511.138 308.514 509.789C288.77 486.215 276.083 459.198 263.811 433.07C260.964 427.01 258.022 420.745 255.055 414.659C238.986 381.63 221.196 353.095 200.664 327.416C198.082 324.187 195.408 320.948 192.714 317.786C143.596 260.127 76.6471 211.957 -0.894684 178.48C-91.9233 139.314 -187.733 122.39 -270.678 130.823C-317.874 135.726 -379.516 158.315 -410.837 197.722C-429.459 221.151 -433.928 247.299 -423.757 273.337L-424.06 273.414C-429.38 259.799 -430.769 246.192 -428.194 232.969C-425.816 220.764 -420.069 208.859 -411.105 197.583C-397.252 180.154 -375.933 164.5 -349.447 152.308C-324.909 141.014 -296.95 133.295 -270.716 130.569C-227.183 126.142 -180.36 128.612 -131.545 137.911C-87.4447 146.313 -43.4365 159.884 -0.744843 178.254C76.8416 211.75 143.829 259.948 192.976 317.64C195.669 320.802 198.347 324.046 200.929 327.277C221.47 352.969 239.269 381.52 255.348 414.564C258.319 420.653 261.261 426.918 264.107 432.978C276.37 459.093 289.054 486.095 308.775 509.643C309.904 510.989 311.064 512.33 312.224 513.628C358.454 565.16 437.81 582.424 524.497 559.808C603.001 539.327 667.04 493.424 725.906 448.165C731.067 444.195 736.594 439.905 743.833 434.258C749.998 429.449 756.325 424.487 762.442 419.686C791.064 397.228 820.658 374.006 852.225 352.261C887.919 327.67 921.208 308.472 953.986 293.572C976.704 283.288 1000.33 274.884 1024.22 268.595C1046.85 262.638 1070.47 258.383 1094.41 255.944C1138 251.508 1183.67 252.777 1234.01 259.825C1275.63 265.564 1324.47 274.145 1371.2 294.3C1416.36 313.857 1457.28 341.126 1496.86 367.497C1504.04 372.28 1511.47 377.227 1518.71 381.984C1615.07 445.298 1712.78 517.039 1809.11 595.214L1808.88 595.401Z" fill="#300CFC"/>
<path d="M1805.5 592.986C1710.02 513.951 1613.91 441.326 1519.83 377.133C1511.83 371.673 1503.61 365.941 1495.66 360.399C1457.79 333.999 1418.64 306.702 1374.74 287.922C1328.02 268.026 1279.1 261.679 1237.4 258.094C1135.25 249.074 1044.97 263.502 961.421 302.202C894.893 333.156 837.863 374.565 782.711 414.613C771.571 422.702 760.054 431.068 748.856 439.041C742.005 443.921 735.936 448.206 730.294 452.14C704.057 470.415 669.156 493.848 631.861 512.997C594.387 532.236 558.944 544.995 523.508 551.999C484.858 559.639 446.285 559.695 411.96 552.166C392.876 547.978 375.166 541.448 359.32 532.757C342.212 523.373 327.103 511.361 314.407 497.059C313.256 495.756 312.102 494.409 310.98 493.06C291.516 469.667 278.435 443.093 265.786 417.396C262.726 411.18 259.564 404.753 256.373 398.508C239.6 365.566 221.386 337.261 200.689 311.98C198.069 308.78 195.356 305.569 192.624 302.435C142.834 245.297 75.3647 197.776 -2.48947 165.014C-94.146 126.584 -190.224 110.542 -273.025 119.839C-329.14 126.276 -385.168 153.306 -412.442 187.097C-431.421 210.611 -436.55 236.895 -427.274 263.108L-427.58 263.177C-432.428 249.48 -433.416 235.8 -430.519 222.521C-427.841 210.247 -421.848 198.281 -412.709 186.956C-398.709 169.609 -377.474 153.991 -351.297 141.789C-327.017 130.472 -299.234 122.583 -273.07 119.583C-229.588 114.7 -182.714 116.715 -133.749 125.571C-89.5399 133.567 -45.3278 146.759 -2.34286 164.783C75.556 197.565 143.063 245.112 192.885 302.286C195.617 305.42 198.33 308.633 200.953 311.837C221.66 337.133 239.884 365.451 256.666 398.408C259.857 404.653 263.019 411.082 266.079 417.298C278.721 442.982 291.797 469.544 311.241 492.914C312.364 494.263 313.514 495.604 314.665 496.907C360.101 548.106 438.143 568.607 523.431 551.75C601.183 536.381 668.703 494.699 730.084 451.948C735.723 448.014 741.795 443.731 748.642 438.851C759.837 430.878 771.357 422.515 782.495 414.426C837.659 374.37 894.698 332.95 961.259 301.984C983.776 291.554 1007.06 282.775 1030.47 275.887C1052.85 269.301 1076.09 264.231 1099.52 260.817C1143.11 254.47 1188.22 253.498 1237.43 257.843C1279.16 261.43 1328.12 267.78 1374.88 287.699C1418.82 306.492 1457.99 333.799 1495.87 360.209C1503.82 365.751 1512.04 371.48 1520.04 376.94C1614.12 441.139 1710.24 513.769 1805.73 592.809L1805.5 592.986Z" fill="#300CFC"/>
<path d="M1802.12 590.57C1707.49 510.663 1612.96 437.153 1521.16 372.078C1512.73 366.097 1504.05 359.765 1495.66 353.641C1459.17 327.019 1421.45 299.488 1378.43 281.313C1331.51 261.587 1282.55 257.501 1240.85 256.106C1142.55 252.577 1053.53 270.404 968.706 310.605C909.215 338.933 856.183 374.786 804.894 409.456C787.26 421.379 770.602 432.639 753.66 443.634C746.768 448.109 740.492 452.13 734.467 455.923C695.594 480.376 663.253 498.056 632.684 511.561C594.334 528.505 558.269 539.096 522.427 543.938C508.523 545.816 494.67 546.752 481.068 546.752C456.957 546.752 433.627 543.818 412.149 538.007C373.279 527.489 341.218 508.083 316.855 480.327C315.708 479.012 314.563 477.665 313.454 476.321C294.287 453.13 280.839 427.028 267.833 401.783C264.537 395.387 261.133 388.775 257.7 382.346C240.209 349.481 221.568 321.412 200.721 296.534C198.063 293.361 195.312 290.179 192.542 287.073C142.079 230.456 74.0869 183.586 -4.07971 151.534C-96.3642 113.843 -192.707 98.6813 -275.364 108.842C-331.712 115.913 -386.124 142.43 -413.981 176.4C-433.346 200.012 -439.153 226.452 -430.783 252.865L-431.092 252.929C-435.462 239.137 -436.042 225.375 -432.813 212.027C-429.823 199.671 -423.579 187.638 -414.245 176.259C-400.099 159.007 -378.955 143.44 -353.098 131.238C-329.079 119.903 -301.49 111.861 -275.412 108.588C-231.981 103.249 -185.056 104.808 -135.945 113.222C-91.6274 120.816 -47.2144 133.628 -3.93307 151.303C74.2781 183.376 142.308 230.271 192.803 286.922C195.573 290.03 198.324 293.213 200.986 296.388C221.845 321.279 240.496 349.363 257.993 382.241C261.426 388.67 264.833 395.284 268.126 401.68C281.125 426.913 294.568 453.005 313.719 476.175C314.828 477.517 315.969 478.863 317.117 480.176C362.61 532.011 437.423 555.158 522.373 543.682C603.24 532.757 674.865 493.086 734.27 455.718C740.291 451.925 746.568 447.906 753.459 443.431C770.398 432.437 787.057 421.179 804.69 409.256C855.985 374.578 909.03 338.721 968.543 310.382C990.891 299.791 1013.83 290.635 1036.72 283.167C1058.9 275.935 1081.75 270.05 1104.65 265.677C1148.32 257.34 1192.88 254.124 1240.86 255.847C1282.6 257.242 1331.61 261.333 1378.57 281.082C1421.63 299.27 1459.37 326.813 1495.87 353.446C1504.26 359.57 1512.94 365.902 1521.37 371.88C1613.17 436.961 1707.71 510.479 1802.35 590.39L1802.12 590.57Z" fill="#300CFC"/>
<path d="M1798.74 588.154C1703.64 506.232 1613.28 433.899 1522.49 367.021C1513.83 360.64 1505.3 354.123 1496.27 347.225C1460.98 320.256 1424.48 292.372 1382.12 274.704C1334.62 254.986 1283.51 253.344 1244.29 254.119C1150.48 255.729 1062.71 276.956 975.99 319.012C923.959 344.368 875.918 374.817 829.459 404.266C805.042 419.743 781.979 434.358 758.461 448.23C751.48 452.351 744.993 456.105 738.637 459.708C699.235 482.01 665.829 498.028 633.5 510.122C594.261 524.802 557.575 533.226 521.344 535.878C502.729 537.24 484.241 536.984 466.393 535.117C447.497 533.139 429.308 529.346 412.334 523.845C374.711 511.651 343.412 491.383 319.304 463.602C318.166 462.283 317.031 460.934 315.928 459.591C297.083 436.638 283.297 411.033 269.963 386.273C266.406 379.666 262.727 372.834 259.026 366.192C240.803 333.399 221.741 305.564 200.75 281.095C198.051 277.951 195.261 274.797 192.459 271.719C141.324 215.622 72.8125 169.404 -5.66644 138.063C-78.1017 109.255 -152.8 94.2243 -221.299 94.2243C-240.663 94.2243 -259.518 95.4245 -277.703 97.8532C-333.372 105.434 -387.443 132.046 -415.462 165.652C-435.238 189.374 -441.751 215.994 -434.295 242.632L-434.607 242.689C-438.499 228.789 -438.662 214.933 -435.092 201.507C-431.783 189.061 -425.268 176.949 -415.73 165.509C-401.437 148.365 -380.392 132.862 -354.866 120.673C-330.771 109.165 -304.106 101.187 -277.761 97.6018C-234.381 91.806 -187.405 92.9113 -138.144 100.882C-93.721 108.068 -49.1008 120.498 -5.52621 137.829C72.9974 169.189 141.55 215.433 192.718 271.563C195.523 274.64 198.315 277.797 201.015 280.944C222.015 305.425 241.086 333.274 259.32 366.082C263.02 372.724 266.702 379.556 270.259 386.165C283.587 410.915 297.367 436.51 316.196 459.444C317.299 460.786 318.434 462.135 319.569 463.45C364.651 515.4 438.183 541.702 521.319 535.619C605.443 529.462 681.55 491.701 738.459 459.493C744.815 455.89 751.299 452.135 758.279 448.017C781.794 434.15 804.854 419.532 829.267 404.058C875.733 374.607 923.78 344.15 975.831 318.787C1020.48 297.134 1064.29 281.354 1109.78 270.542C1153.65 260.115 1197.65 254.657 1244.29 253.857C1270.9 253.332 1292.62 254.245 1312.62 256.727C1338.45 259.933 1361.23 265.736 1382.27 274.471C1424.67 292.154 1461.18 320.053 1496.5 347.035C1505.53 353.934 1514.06 360.448 1522.71 366.828C1613.5 433.709 1703.87 506.047 1798.98 587.974L1798.74 588.154Z" fill="#300CFC"/>
<path d="M1795.36 585.738C1701.13 502.918 1612.31 429.724 1523.82 361.963C1515.07 355.259 1506.43 348.353 1497.29 341.042C1463.05 313.647 1427.65 285.316 1385.81 268.093C1337.92 248.466 1286.86 249.251 1247.74 252.126C1159.2 258.407 1072.7 283.034 983.274 327.411C939.214 349.381 897.266 374.524 856.697 398.841C824.626 418.063 794.338 436.22 763.265 452.815C756.243 456.569 749.357 460.16 742.807 463.483C703.328 483.497 667.841 498.277 634.316 508.668C594.175 521.111 556.867 527.374 520.261 527.81C501.635 528.031 483.221 526.676 465.539 523.781C447.003 520.745 429.165 515.998 412.519 509.668C376.187 495.853 345.647 474.724 321.749 446.865C320.627 445.549 319.499 444.198 318.399 442.846C299.908 420.173 285.821 395.11 272.198 370.872C268.344 364.015 264.356 356.921 260.349 350.025C241.38 317.294 221.894 289.694 200.779 265.644C198.041 262.528 195.214 259.402 192.374 256.352C140.565 200.776 71.5312 155.209 -7.26004 124.578C-100.797 88.3667 -197.678 74.9695 -280.049 86.8536C-334.997 94.9191 -388.709 121.601 -416.884 154.824C-437.106 178.672 -444.342 205.492 -437.814 232.389L-438.126 232.438C-441.53 218.418 -441.269 204.454 -437.345 190.936C-433.702 178.388 -426.909 166.188 -417.148 154.678C-402.715 137.657 -381.775 122.232 -356.593 110.068C-332.776 98.5634 -306.328 90.4491 -280.107 86.5997C-236.774 80.3499 -189.751 80.9962 -140.343 88.5257C-95.8118 95.3115 -50.9908 107.362 -7.12296 124.345C71.7162 154.991 140.789 200.586 192.625 256.196C195.469 259.245 198.299 262.374 201.037 265.492C222.165 289.556 241.657 317.168 260.636 349.912C264.646 356.808 268.631 363.902 272.488 370.762C286.105 394.989 300.185 420.042 318.663 442.7C319.763 444.049 320.892 445.401 322.01 446.714C367.568 499.82 437.973 528.533 520.254 527.548C587.019 526.753 657.682 506.324 742.635 463.26C749.182 459.937 756.064 456.349 763.086 452.594C794.15 436.002 824.438 417.85 856.502 398.628C897.078 374.309 939.033 349.161 983.105 327.185C1028.19 304.81 1071.3 287.873 1114.9 275.402C1159.06 262.769 1202.51 255.068 1247.71 251.862C1286.88 248.982 1337.99 248.2 1385.96 267.857C1427.84 285.101 1463.26 313.444 1497.52 340.852C1506.66 348.163 1515.29 355.067 1524.04 361.768C1612.53 429.531 1701.36 502.731 1795.59 585.556L1795.36 585.738Z" fill="#300CFC"/>
<path d="M1791.98 583.322C1698.63 499.602 1611.35 425.541 1525.15 356.908C1516.4 349.94 1507.76 342.701 1498.61 335.035C1465.34 307.151 1430.93 278.318 1389.51 261.484C1341.16 241.929 1290.19 245.148 1251.19 250.136C1167.89 260.586 1085.07 287.812 990.559 335.815C955.113 353.9 920.473 373.739 886.974 392.925C846.288 416.226 807.858 438.238 768.067 457.408C760.898 460.865 753.802 464.183 746.978 467.266C706.792 485.407 670.207 498.476 635.134 507.216C615.489 512.112 596.095 515.659 577.493 517.759C557.65 519.998 538.03 520.667 519.178 519.749C480.93 517.885 445.108 509.724 412.709 495.496C377.719 480.13 347.94 458.141 324.202 430.136C323.086 428.81 321.967 427.456 320.874 426.113C302.778 403.773 288.44 379.304 274.577 355.644C270.379 348.481 266.041 341.075 261.677 333.868C241.943 301.191 222.033 273.824 200.81 250.202C198.033 247.112 195.164 244.014 192.289 240.996C139.808 185.937 70.2547 141.022 -8.84906 111.106C-103.011 75.6361 -200.157 63.1211 -282.391 75.8644C-370.442 89.7206 -456.243 149.59 -441.325 222.154L-441.64 222.195C-445.373 204.043 -443.186 186.16 -435.144 169.04C-427.8 153.404 -415.747 138.688 -399.322 125.306C-384.05 112.863 -365.727 102.12 -344.868 93.3751C-325.028 85.0583 -303.445 78.9136 -282.454 75.6105C-239.173 68.9042 -192.098 69.0965 -142.541 76.1849C-97.9013 82.5681 -52.8763 94.2394 -8.71521 110.876C70.4332 140.812 140.028 185.753 192.541 240.842C195.419 243.863 198.288 246.961 201.068 250.054C222.3 273.686 242.22 301.068 261.964 333.758C266.328 340.964 270.666 348.371 274.864 355.536C288.724 379.189 303.055 403.647 321.142 425.974C322.232 427.318 323.348 428.672 324.463 429.995C370.088 483.815 439.246 515.597 519.198 519.495C586.883 522.791 661.339 505.637 746.822 467.045C753.643 463.963 760.736 460.647 767.905 457.19C807.686 438.025 846.109 416.016 886.79 392.717C920.291 373.529 954.934 353.687 990.387 335.599C1084.94 287.576 1167.79 260.34 1251.14 249.882C1277.34 246.53 1299.04 245.458 1319.43 246.512C1345.49 247.858 1368.45 252.68 1389.65 261.253C1431.12 278.105 1465.55 306.956 1498.84 334.856C1507.98 342.518 1516.62 349.758 1525.37 356.724C1611.58 425.361 1698.86 499.425 1792.21 583.15L1791.98 583.322Z" fill="#300CFC"/>
<path d="M1788.6 580.906C1696.14 496.273 1610.39 421.35 1526.48 351.851C1517.8 344.66 1509.22 337.128 1500.13 329.149C1467.76 300.732 1434.29 271.344 1393.2 254.872C1343.8 235.154 1290.46 241.588 1254.63 248.143C1157.4 265.715 1070.26 306.569 997.847 344.219C971.82 357.806 945.86 372.198 920.751 386.116C870.384 414.036 822.812 440.407 772.875 462.001C765.531 465.178 758.225 468.222 751.155 471.051C710.184 487.41 672.503 498.766 635.961 505.762C594.535 513.694 554.884 515.69 518.102 511.689C480.316 507.578 444.921 497.361 412.905 481.319C379.323 464.496 350.306 441.648 326.654 413.41C325.551 412.084 324.439 410.728 323.352 409.379C305.705 387.449 291.189 363.653 277.147 340.639C272.548 333.096 267.789 325.3 263.007 317.712C242.208 284.624 222.454 258.268 200.846 234.761C198.031 231.699 195.127 228.632 192.21 225.639C139.051 171.104 68.9742 126.84 -10.4418 97.6321C-105.229 62.9056 -202.642 51.2702 -284.736 64.8726C-373.103 79.7085 -457.15 138.765 -444.84 211.919L-445.155 211.952C-448.209 193.803 -445.566 175.938 -437.304 158.856C-429.73 143.204 -417.608 128.473 -401.268 115.076C-386.031 102.582 -367.805 91.7593 -347.092 82.9039C-327.37 74.4717 -305.828 68.1501 -284.799 64.6187C-241.566 57.4559 -194.443 57.1943 -144.739 63.8391C-99.9913 69.8196 -54.7623 81.1113 -10.3079 97.3988C69.156 126.622 139.271 170.912 192.456 225.48C195.373 228.475 198.28 231.545 201.097 234.607C222.719 258.124 242.479 284.495 263.288 317.596C268.069 325.185 272.828 332.983 277.428 340.526C291.466 363.532 305.979 387.321 323.613 409.24C324.7 410.589 325.81 411.943 326.912 413.269C372.891 468.161 440.803 503.023 518.14 511.435C587.503 518.98 663.674 505.693 751.011 470.82C758.078 467.994 765.384 464.953 772.722 461.775C822.646 440.187 870.212 413.821 920.57 385.903C945.678 371.985 971.641 357.59 997.672 344.001C1046.37 318.686 1086.87 299.983 1125.14 285.142C1170.2 267.672 1212.53 255.488 1254.56 247.892C1280.18 243.204 1302.52 241.08 1322.84 241.403C1349 241.819 1372.06 246.148 1393.34 254.642C1434.48 271.134 1467.97 300.539 1500.36 328.975C1509.45 336.951 1518.03 344.483 1526.71 351.669C1610.63 421.171 1696.37 496.099 1788.84 580.734L1788.6 580.906Z" fill="#300CFC"/>
<path d="M1785.22 578.488C1693.65 492.94 1609.45 417.152 1527.81 346.791C1519.25 339.413 1510.77 331.619 1501.8 323.367C1470.29 294.377 1437.7 264.4 1396.89 248.261C1346.95 228.588 1293.76 237.634 1258.08 246.15C1169.98 267.003 1091.4 306.707 1005.13 352.62C989.575 360.932 973.838 369.51 958.617 377.809C900.08 409.723 839.553 442.721 777.679 466.591C770.162 469.495 762.64 472.267 755.324 474.831C714.076 489.275 674.193 499.189 636.78 504.301C594.397 510.091 554.106 509.863 517.015 503.626C479.758 497.361 444.793 485.085 413.089 467.138C381.006 448.976 352.745 425.271 329.093 396.684C327.999 395.356 326.897 393.997 325.816 392.648C308.702 371.231 294.093 348.209 279.965 325.946C274.875 317.925 269.612 309.631 264.324 301.56C242.712 268.506 222.547 242.375 200.865 219.325C198.018 216.299 195.073 213.258 192.115 210.288C138.292 156.266 67.6992 112.653 -12.0357 84.1581C-107.444 50.1753 -205.122 39.4221 -287.082 53.8811C-372.644 69.1401 -458.244 126.124 -448.359 201.681L-448.675 201.707C-451.049 183.558 -447.951 165.713 -439.469 148.669C-431.669 133 -419.473 118.256 -403.222 104.844C-373.24 80.101 -330.934 61.4337 -287.152 53.6272C-243.969 46.0105 -196.796 45.2924 -146.942 51.4935C-102.086 57.0739 -56.6559 67.9835 -11.9082 83.9222C67.8713 112.432 138.506 156.073 192.363 210.121C195.325 213.093 198.27 216.135 201.12 219.164C222.811 242.227 242.986 268.367 264.604 301.434C269.892 309.508 275.158 317.801 280.249 325.823C294.373 348.081 308.979 371.098 326.084 392.504C327.161 393.853 328.264 395.21 329.357 396.538C376.677 453.733 441.59 490.675 517.076 503.372C586.974 515.128 667.085 505.447 755.19 474.595C762.502 472.031 770.019 469.261 777.532 466.361C839.384 442.498 899.904 409.505 958.429 377.596C973.65 369.298 989.387 360.719 1004.95 352.407C1042.71 332.309 1086.65 309.256 1130.26 290.009C1175.88 269.878 1217.66 255.452 1257.98 245.907C1283.37 239.847 1305.7 236.703 1326.24 236.298C1352.15 235.785 1375.96 239.734 1397.02 248.033C1415.31 255.262 1433.7 266.051 1453.27 281.018C1470.55 294.233 1486.56 308.959 1502.04 323.197C1511 331.447 1519.48 339.241 1528.04 346.617C1609.68 416.98 1693.88 492.77 1785.46 578.321L1785.22 578.488Z" fill="#300CFC"/>
<path d="M1781.84 576.072C1691.17 489.6 1608.51 412.948 1529.14 341.736C1520.73 334.196 1512.4 326.167 1503.59 317.668C1472.9 288.075 1441.16 257.475 1400.59 241.654C1362.67 226.916 1317.18 227.737 1261.53 244.163C1183.71 267 1114.15 305.199 1040.5 345.644C1031.33 350.681 1021.85 355.887 1012.42 361.029C1008.72 363.047 1005.03 365.071 1001.33 367.092C931.159 405.48 858.599 445.177 782.482 471.187C774.787 473.818 767.054 476.318 759.496 478.616C717.343 491.421 676.335 499.571 637.612 502.838C594.251 506.496 553.312 504.049 515.941 495.565C479.264 487.238 444.729 472.902 413.296 452.955C382.829 433.621 355.326 409.063 331.55 379.958C330.466 378.627 329.373 377.265 328.299 375.914C311.835 355.169 297.274 333.076 283.188 311.71C277.485 303.057 271.585 294.11 265.659 285.401C243.212 252.369 222.639 226.465 200.906 203.881C198.018 200.881 195.038 197.87 192.041 194.928C137.536 141.429 66.4207 98.4654 -13.6266 70.6836C-109.653 37.4471 -207.602 27.5735 -289.425 42.889C-373.415 58.7405 -458.894 116.192 -451.872 191.446L-452.191 191.466C-453.883 173.314 -450.332 155.491 -441.63 138.49C-433.601 122.803 -421.335 108.041 -405.17 94.6186C-375.315 69.8245 -333.156 50.8802 -289.498 42.6403C-246.363 34.5671 -199.142 33.3925 -149.141 39.1525C-104.177 44.3278 -58.54 54.8578 -13.4991 70.4477C66.5928 98.2474 137.753 141.234 192.28 194.762C195.277 197.703 198.263 200.719 201.151 203.72C222.894 226.316 243.48 252.228 265.933 285.272C271.862 293.982 277.759 302.932 283.465 311.585C297.545 332.945 312.106 355.033 328.563 375.77C329.638 377.122 330.728 378.481 331.812 379.812C380.158 438.991 443.856 478.929 516.023 495.311C587.263 511.484 669.14 505.783 759.382 478.37C766.933 476.072 774.663 473.574 782.355 470.946C858.446 444.946 930.993 405.257 1001.15 366.874C1004.85 364.85 1008.54 362.829 1012.24 360.811C1021.67 355.669 1031.15 350.463 1040.32 345.429C1113.98 304.976 1183.56 266.767 1261.41 243.919C1286.56 236.497 1308.88 232.335 1329.65 231.189C1355.66 229.755 1379.57 233.199 1400.72 241.421C1418.89 248.507 1437.06 259.345 1456.27 274.555C1473.21 287.975 1488.78 302.986 1503.84 317.501C1512.65 325.997 1520.97 334.024 1529.37 341.562C1608.75 412.777 1691.41 489.431 1782.09 575.905L1781.84 576.072Z" fill="#300CFC"/>
<path d="M1778.46 573.656C1695.7 493.078 1612.27 413.346 1530.46 336.679C1522.14 328.919 1513.88 320.581 1505.15 311.757C1476.73 283.049 1444.52 250.513 1404.28 235.046C1365.92 220.333 1320.35 222.664 1264.97 242.17C1199.12 265.287 1140.85 299.278 1079.15 335.263C1059.83 346.532 1039.85 358.188 1019.7 369.431C984.523 389.098 946.472 409.91 906.586 428.864C863.869 449.165 824.843 464.509 787.277 475.778C779.384 478.145 771.441 480.373 763.66 482.397C720.614 493.586 678.49 499.954 638.457 501.323C594.139 502.836 552.554 498.189 514.851 487.5C445.227 467.517 384.376 425.707 333.989 363.23C332.915 361.896 331.831 360.532 330.763 359.18C315.134 339.351 300.828 318.432 286.994 298.201C280.482 288.678 273.75 278.83 266.976 269.247C243.674 236.223 222.687 210.547 200.929 188.443C197.999 185.468 194.981 182.485 191.949 179.575C136.781 126.591 65.1428 84.2812 -15.2168 57.2098C-111.865 24.717 -210.079 15.7282 -291.767 31.8977C-376.268 48.7186 -459.605 105.408 -455.387 181.211L-455.706 181.221C-456.717 163.064 -452.707 145.261 -443.791 128.304C-435.529 112.596 -423.193 97.8195 -407.121 84.3863C-391.98 71.7303 -374.033 60.6643 -353.782 51.4934C-334.121 42.5919 -313.284 35.9138 -291.847 31.6464C-248.76 23.1192 -201.488 21.4882 -151.341 26.8045C-106.268 31.5823 -60.4299 41.7302 -15.0957 56.9713C65.3118 84.0581 136.992 126.394 192.191 179.403C195.223 182.316 198.248 185.301 201.177 188.276C222.945 210.393 243.942 236.079 267.253 269.113C274.027 278.7 280.759 288.548 287.271 298.072C301.106 318.301 315.408 339.218 331.031 359.039C332.096 360.393 333.183 361.755 334.254 363.089C384.602 425.518 445.399 467.294 514.956 487.257C586.604 507.568 672.571 505.803 763.561 482.151C771.335 480.127 779.279 477.901 787.165 475.537C871.156 450.345 948.002 409.202 1019.51 369.218C1039.67 357.975 1059.64 346.322 1078.96 335.053C1140.67 299.06 1198.96 265.061 1264.84 241.934C1320.31 222.398 1365.96 220.066 1404.41 234.813C1422.43 241.739 1440.33 252.598 1459.12 268.003C1475.69 281.587 1490.79 296.844 1505.39 311.595C1514.13 320.42 1522.38 328.755 1530.71 336.51C1612.51 413.18 1695.95 492.911 1778.71 573.492L1778.46 573.656Z" fill="#300CFC"/>
<path d="M1775.08 571.241C1693.59 490.216 1611.74 409.597 1531.79 331.622C1523.73 323.777 1515.72 315.294 1507.25 306.313C1479.53 276.936 1448.11 243.637 1407.97 228.432C1369.15 213.745 1323.5 217.587 1268.41 240.173C1210.69 263.803 1157.66 297.167 1106.38 329.437C1080.67 345.617 1054.08 362.348 1026.98 377.83C984.216 402.291 948.234 420.95 913.741 436.556C871.209 455.798 831.411 470.128 792.079 480.366C784.005 482.469 775.845 484.423 767.828 486.175C726.058 495.297 685.04 499.913 645.8 499.915C643.62 499.915 641.452 499.9 639.285 499.872C593.919 499.277 551.689 492.399 513.769 479.432C495.466 473.139 477.542 465.15 460.498 455.687C444.477 446.793 428.734 436.317 413.704 424.551C386.663 403.383 361.386 377.851 336.433 346.499C335.362 345.15 334.294 343.799 333.233 342.442C318.755 323.944 305.057 304.607 291.813 285.906C284.166 275.112 276.261 263.949 268.298 253.083C243.782 219.605 223.015 194.903 200.953 172.994C197.986 170.048 194.929 167.093 191.859 164.211C136.022 111.753 63.8638 70.0944 -16.8082 43.7334C-114.075 11.9869 -212.556 3.88034 -294.111 20.9038C-377.027 38.2607 -460.256 95.3809 -458.901 170.971L-459.22 170.974C-459.851 135.765 -442.507 102.285 -409.066 74.1541C-393.95 61.4391 -376.1 50.2936 -356.005 41.0201C-336.452 31.9981 -315.656 25.1456 -294.191 20.6525C-251.155 11.6689 -203.832 9.5839 -153.538 14.4565C-108.356 18.8342 -62.3145 28.6026 -16.6903 43.4924C64.0327 69.8713 136.232 111.556 192.104 164.044C195.174 166.929 198.237 169.886 201.205 172.833C223.276 194.755 244.053 219.464 268.575 252.954C276.538 263.823 284.446 274.987 292.09 285.781C305.335 304.479 319.029 323.813 333.504 342.306C334.565 343.663 335.63 345.014 336.701 346.361C389.724 412.982 447.684 456.434 513.894 479.196C605.598 510.556 702.556 500.167 767.745 485.928C775.756 484.177 783.91 482.225 791.981 480.122C882.442 456.575 964.988 412.975 1026.8 377.622C1053.89 362.145 1080.48 345.414 1106.19 329.237C1157.48 296.962 1210.52 263.587 1268.27 239.947C1292.92 229.84 1315.23 223.634 1336.47 220.977C1362.66 217.7 1386.77 220.131 1408.1 228.204C1426.08 235.013 1443.8 245.958 1462.28 261.664C1478.57 275.502 1493.28 291.087 1507.5 306.161C1515.97 315.14 1523.97 323.621 1532.04 331.461C1611.98 409.436 1693.84 490.055 1775.33 571.079L1775.08 571.241Z" fill="#300CFC"/>
<path d="M1771.71 568.825L1533.12 326.567C1525.33 318.655 1517.59 310.046 1509.4 300.934C1482.37 270.862 1451.72 236.78 1411.66 221.826C1372.92 207.367 1325.88 212.87 1271.86 238.185C1219.92 262.52 1172.55 294.882 1126.73 326.18C1096.87 346.581 1065.99 367.674 1034.27 386.239C938.911 442.038 855.574 474.995 772.004 489.96C737.336 496.166 703.136 499.289 669.969 499.289C659.915 499.289 649.963 499.002 640.117 498.428C593.68 495.72 550.806 486.615 512.692 471.372C477.367 457.241 445.051 437.294 413.908 410.387C389.038 388.901 365.198 363.286 338.884 329.775C324.996 312.09 311.548 293.715 298.542 275.945C269.108 235.733 238.672 194.152 200.992 157.555C143.194 101.425 67.3288 57.4073 -18.4019 30.2589C-116.284 -0.738781 -215.033 -7.96568 -296.454 9.9118C-375.284 27.2199 -460.842 81.7987 -462.417 160.736L-462.736 160.73C-462.031 125.447 -444.145 91.9723 -411.013 63.9238C-381.056 38.5629 -340.402 19.2929 -296.537 9.66303C-253.549 0.225491 -206.174 -2.31598 -155.737 2.113C-110.447 6.08805 -64.2015 15.4794 -18.284 30.0204C24.1367 43.4535 64.4249 61.1361 101.465 82.5783C138.814 104.2 172.383 129.369 201.234 157.386C238.931 193.995 269.375 235.587 298.816 275.809C311.822 293.577 325.27 311.949 339.155 329.632C377.547 378.527 431.985 438.797 512.836 471.136C605.557 508.222 704.911 501.703 771.934 489.703C855.462 474.749 938.761 441.805 1034.08 386.026C1065.79 367.469 1096.67 346.376 1126.53 325.98C1172.35 294.677 1219.73 262.307 1271.7 237.959C1325.82 212.601 1372.95 207.092 1411.8 221.59C1429.73 228.286 1447.29 239.326 1465.48 255.347C1481.49 269.449 1495.81 285.378 1509.66 300.78C1517.85 309.892 1525.59 318.496 1533.37 326.405L1771.96 568.663L1771.71 568.825Z" fill="#300CFC"/>
<path d="M1769.78 550.201C1709.03 482.748 1656.9 428.013 1605.74 377.95C1580.91 353.63 1555.54 329.693 1530.36 306.802C1522.74 299.877 1515.19 292.512 1507.2 284.713C1487.12 265.112 1466.35 244.845 1442.45 229.804C1429.62 221.713 1417.27 215.919 1404.69 212.093C1366.08 200.232 1320.78 208.074 1270.05 235.405C1243.79 249.528 1219.88 265.6 1199.96 279.459C1178.87 294.13 1158.06 310.31 1137.94 325.956C1109.02 348.447 1079.11 371.703 1046.96 391.676C1027.4 403.865 1007.57 414.756 988.019 424.05C948.907 442.643 906.926 457.964 863.243 469.586C836.254 476.688 809.133 482.055 782.641 485.538C759.808 488.528 736.934 490.254 714.65 490.667C681.298 491.288 648.803 488.921 618.068 483.625C585.389 477.993 554.463 469.004 526.15 456.905C500.904 446.116 477.058 432.531 453.25 415.372C408.884 383.423 373.499 346.48 347.628 317.865C334.919 303.742 322.51 289.34 310.508 275.412C275.952 235.3 243.31 197.413 202.464 163.667C169.151 136.323 131.142 112.727 89.4828 93.5287C57.4697 78.7749 22.6514 66.7087 -14.0029 57.6635C-22.7338 55.5119 -31.6304 53.5064 -40.4377 51.7086C-78.3575 43.9816 -121.046 38.95 -167.314 36.7522C-213.962 34.4851 -254.32 36.447 -290.687 42.7558C-311.247 46.2949 -331.167 51.8471 -349.9 59.2561C-416.037 85.4145 -458.505 129.327 -463.504 176.725L-463.902 176.697C-462.57 164.062 -458.658 151.616 -452.28 139.701C-446.22 128.384 -437.898 117.469 -427.544 107.259C-407.982 87.9739 -381.193 71.2736 -350.076 58.9663C-331.313 51.5445 -311.362 45.9846 -290.77 42.4403C-254.365 36.1264 -213.974 34.162 -167.289 36.4316C-120.995 38.6294 -78.2842 43.6662 -40.3389 51.3983C-31.522 53.1986 -22.6222 55.2041 -13.885 57.3583C22.798 66.4086 57.645 78.4851 89.6837 93.2518C131.371 112.463 169.412 136.08 202.742 163.441C243.613 197.208 276.261 235.105 310.83 275.227C322.829 289.155 335.238 303.555 347.944 317.675C373.802 346.278 409.171 383.202 453.511 415.131C477.294 432.272 501.115 445.844 526.332 456.62C581.742 480.299 645.096 491.647 714.637 490.347C736.902 489.934 759.761 488.208 782.574 485.22C809.047 481.737 836.148 476.375 863.115 469.279C906.773 457.664 948.728 442.354 987.815 423.771C1007.35 414.485 1027.17 403.598 1046.72 391.419C1078.85 371.457 1108.75 348.206 1137.66 325.723C1157.78 310.074 1178.59 293.889 1199.7 279.212C1219.63 265.346 1243.55 249.269 1269.82 235.135C1292.41 222.967 1314.28 214.56 1334.83 210.146C1360.07 204.725 1383.63 205.279 1404.83 211.793C1417.45 215.632 1429.83 221.441 1442.7 229.55C1466.63 244.614 1487.41 264.894 1507.51 284.508C1515.49 292.304 1523.04 299.67 1530.66 306.589C1555.85 329.483 1581.22 353.423 1606.05 377.747C1657.22 427.815 1709.35 482.555 1770.11 550.013L1769.78 550.201Z" fill="#300CFC"/>
<path d="M1767.86 531.572C1711.53 462.978 1658.67 405.578 1606.24 356.095C1580.67 331.924 1554.21 308.69 1527.59 287.037C1520.53 281.292 1513.56 275.322 1506.17 269.003C1484.07 250.079 1461.2 230.512 1435.6 216.974C1422.67 210.108 1410.28 205.328 1397.72 202.358C1349.62 190.982 1300.76 212.534 1268.24 232.617C1245.19 246.804 1224.15 262.846 1202.83 279.405C1184.18 293.9 1166.62 309.492 1148.04 325.998C1120.45 350.499 1091.93 375.835 1059.65 397.108C1040.5 409.799 1020.51 420.773 1000.24 429.723C962.483 446.398 921.137 459.347 873.839 469.312C847.369 474.888 820.262 478.86 793.269 481.115C770.494 482.994 747.76 483.666 725.695 483.105C692.869 482.279 660.782 478.565 630.322 472.069C598.331 465.245 567.806 455.274 539.599 442.433C514.886 431.185 491.023 417.229 466.647 399.77C422.378 368.105 384.455 333.001 356.366 305.956C345.968 295.944 335.735 285.87 325.838 276.125C286.423 237.318 249.195 200.66 203.937 169.778C170.114 146.697 132.14 127.181 91.0768 111.773C60.0073 100.115 27.076 91.3799 -9.59424 85.0685C-18.0573 83.6144 -26.6671 82.3039 -35.1812 81.173C-72.5782 76.2311 -112.49 74.3615 -160.779 72.4278C-195.588 70.9635 -241.155 69.9992 -284.93 75.5951C-305.663 78.1955 -325.703 82.7117 -344.5 89.0128C-410.682 111.204 -455.576 149.97 -464.597 192.715L-465.069 192.651C-462.678 181.316 -457.833 170.199 -450.677 159.605C-443.855 149.511 -434.892 139.832 -424.038 130.83C-403.411 113.73 -375.972 99.1453 -344.685 88.6563C-325.853 82.3424 -305.774 77.8185 -285.007 75.2129C-241.19 69.6094 -195.588 70.5762 -160.757 72.0406C-112.452 73.9743 -72.5272 75.8438 -35.1046 80.7883C-26.5842 81.9218 -17.9681 83.2323 -9.49542 84.6864C27.2099 91.0054 60.173 99.748 91.2777 111.419C132.382 126.842 170.388 146.374 204.247 169.478C249.536 200.383 286.78 237.051 326.208 275.874C336.102 285.616 346.334 295.69 356.732 305.699C384.815 332.735 422.722 367.826 466.966 399.475C491.313 416.916 515.15 430.857 539.835 442.092C595.299 467.34 657.84 481.007 725.711 482.715C747.756 483.274 770.468 482.605 793.221 480.725C820.188 478.473 847.273 474.506 873.718 468.933C920.977 458.977 962.289 446.039 1000.01 429.38C1020.26 420.44 1040.22 409.482 1059.35 396.802C1091.6 375.547 1120.11 350.222 1147.69 325.734C1166.28 309.22 1183.83 293.625 1202.5 279.123C1223.83 262.553 1244.88 246.507 1267.95 232.304C1289.03 219.284 1309.83 209.918 1329.76 204.461C1353.93 197.845 1376.84 197.011 1397.86 201.981C1410.47 204.964 1422.9 209.759 1435.87 216.645C1461.52 230.209 1484.4 249.795 1506.53 268.734C1513.9 275.05 1520.88 281.018 1527.94 286.76C1554.57 308.42 1581.03 331.663 1606.61 355.841C1659.05 405.337 1711.93 462.747 1768.26 531.357L1767.86 531.572Z" fill="#300CFC"/>
<path d="M1765.94 512.944C1713.22 442.277 1661.15 383.824 1606.74 334.243C1580.43 310.221 1552.87 287.691 1524.83 267.275C1518.84 262.91 1512.66 258.279 1506.7 253.801C1482.05 235.3 1456.57 216.171 1428.75 204.146C1415.69 198.463 1403.26 194.693 1390.76 192.624C1342.76 184.676 1296.65 208.47 1266.43 229.828C1245.94 244.245 1227.21 260.587 1209.1 276.392L1205.71 279.352C1189.27 293.69 1173.84 309.416 1157.51 326.067C1131.5 352.582 1104.61 379.997 1072.35 402.54C1053.58 415.752 1033.43 426.808 1012.46 435.399C975.9 450.379 935.214 461.068 884.425 469.038C858.163 473.16 831.068 475.734 803.89 476.689C781.172 477.455 758.578 477.071 736.731 475.54C670.588 470.926 608.786 454.918 553.041 427.962C528.943 416.309 505.065 401.986 480.045 384.167C437.704 354.077 400.046 323.149 365.106 294.049C360.421 290.148 355.786 286.273 351.186 282.429C303.464 242.553 258.392 204.887 205.42 175.898C170.837 156.971 132.902 141.538 92.6708 130.023C63.1345 121.57 31.1245 115.831 -5.1824 112.476C-13.365 111.725 -21.6878 111.107 -29.9214 110.64C-50.6345 109.486 -72.6035 109.299 -95.8635 109.101C-114.546 108.942 -133.863 108.778 -154.248 108.109C-193.618 106.706 -238.238 105.119 -279.18 108.442C-300.304 110.158 -320.466 113.635 -339.107 118.78C-405.263 137.04 -452.586 170.663 -465.696 208.724L-466.235 208.603C-462.78 198.568 -457.004 188.779 -449.07 179.508C-441.483 170.643 -431.882 162.195 -420.534 154.402C-398.83 139.496 -370.734 127.033 -339.292 118.354C-320.609 113.197 -300.406 109.712 -279.24 107.993C-238.257 104.667 -193.615 106.257 -154.229 107.66C-133.857 108.327 -114.54 108.494 -95.8635 108.653C-72.594 108.85 -50.6186 109.037 -29.8864 110.194C-21.6464 110.663 -13.314 111.281 -5.12503 112.033C31.2265 115.39 63.2747 121.137 92.8525 129.602C133.131 141.13 171.108 156.581 205.729 175.528C258.749 204.544 303.844 242.227 351.585 282.121C356.184 285.966 360.822 289.838 365.505 293.741C400.438 322.836 438.083 353.757 480.412 383.836C505.406 401.634 529.259 415.945 553.328 427.582C609 454.505 670.722 470.49 736.778 475.098C758.601 476.627 781.172 477.012 803.865 476.245C831.014 475.291 858.083 472.719 884.317 468.602C935.054 460.64 975.693 449.963 1012.2 435.004C1033.13 426.431 1053.24 415.396 1071.98 402.206C1104.2 379.692 1131.07 352.292 1157.06 325.793C1173.4 309.134 1188.84 293.4 1205.3 279.051L1208.69 276.092C1226.81 260.279 1245.55 243.927 1266.06 229.494C1296.38 208.067 1342.64 184.204 1390.87 192.188C1403.43 194.267 1415.91 198.05 1429.01 203.756C1456.89 215.807 1482.41 234.957 1507.07 253.478C1513.04 257.955 1519.21 262.587 1525.2 266.949C1553.26 287.376 1580.83 309.918 1607.15 333.953C1661.58 383.554 1713.67 442.029 1766.41 512.718L1765.94 512.944Z" fill="#300CFC"/>
<path d="M1764.01 494.312C1715.61 422.579 1662.86 361.371 1607.24 312.393C1580.19 288.522 1551.54 266.695 1522.07 247.518C1517.82 244.748 1513.46 241.873 1509.24 239.093C1481.39 220.728 1452.59 201.735 1421.92 191.323C1408.75 186.807 1396.29 184.05 1383.81 182.891C1335.94 178.449 1292.58 204.446 1264.63 227.037C1247.27 240.993 1231.6 256.514 1216.45 271.524C1213.83 274.122 1211.21 276.715 1208.59 279.298C1194.18 293.485 1180.7 309.333 1166.44 326.111C1142.19 354.634 1117.11 384.126 1085.04 407.976C1066.21 421.981 1046.47 432.809 1024.68 441.082C979.1 458.385 933.553 464.789 895.011 468.774C868.943 471.467 841.861 472.647 814.511 472.272C791.863 471.926 769.407 470.482 747.769 467.984C683.612 460.596 622.62 442.264 566.49 413.498C543.134 401.532 519.243 386.837 493.446 368.575C467.387 350.171 443.104 332.463 419.617 315.337C403.657 303.697 388.58 292.702 373.856 282.154C318.201 242.281 267.221 207.223 206.915 182.024C171.59 167.265 133.692 155.909 94.2741 148.275C66.0223 142.802 35.8229 140.137 -0.761292 139.883C-8.65384 139.837 -16.693 139.912 -24.6525 140.107C-36.7431 140.422 -49.2512 141.081 -62.4894 141.781C-87.8946 143.122 -116.695 144.643 -147.716 143.792C-159.53 143.466 -171.582 143.007 -183.239 142.561C-213.222 141.415 -244.225 140.23 -273.433 141.289C-294.882 142.068 -315.168 144.51 -333.72 148.547C-399.764 162.921 -449.513 191.405 -466.803 224.742L-467.392 224.544C-462.866 215.815 -456.159 207.357 -447.46 199.404C-439.105 191.767 -428.867 184.553 -417.034 177.964C-394.234 165.27 -365.484 154.927 -333.892 148.052C-315.296 144.005 -294.965 141.556 -273.468 140.776C-244.228 139.714 -213.212 140.902 -183.214 142.048C-171.56 142.494 -159.507 142.953 -147.697 143.279C-116.704 144.13 -87.9265 142.612 -62.534 141.271C-49.2895 140.571 -36.7781 139.912 -24.6747 139.596C-16.7057 139.401 -8.66019 139.327 -0.758118 139.373C35.8771 139.624 66.1211 142.297 94.4207 147.777C133.887 155.422 171.835 166.791 207.205 181.57C234.446 192.952 262.051 207.372 291.597 225.652C318.048 242.017 343.778 259.922 374.277 281.772C389 292.323 404.078 303.317 420.041 314.958C443.525 332.081 467.808 349.789 493.86 368.19C519.632 386.434 543.498 401.114 566.824 413.067C622.879 441.795 683.784 460.101 747.852 467.479C769.464 469.974 791.892 471.416 814.515 471.762C841.832 472.136 868.886 470.959 894.922 468.266C933.416 464.289 978.903 457.893 1024.4 440.62C1046.13 432.37 1065.82 421.571 1084.6 407.602C1116.62 383.793 1141.67 354.323 1165.91 325.824C1180.18 309.036 1193.66 293.179 1208.09 278.977C1210.71 276.394 1213.33 273.802 1215.95 271.206C1231.11 256.186 1246.79 240.655 1264.17 226.681C1282.35 211.983 1301.01 200.676 1319.62 193.075C1341.66 184.071 1363.28 180.475 1383.87 182.388C1396.41 183.553 1408.93 186.322 1422.16 190.856C1452.91 201.297 1481.75 220.313 1509.63 238.701C1513.85 241.481 1518.21 244.355 1522.46 247.123C1551.95 266.316 1580.62 288.163 1607.69 312.052C1637.23 338.059 1666.15 367.69 1693.66 400.121C1717.98 428.785 1741.83 460.396 1764.55 494.071L1764.01 494.312Z" fill="#300CFC"/>
<path d="M1762.09 475.675C1717.29 401.885 1665.36 339.597 1607.74 290.54C1579.96 266.82 1550.21 245.699 1519.32 227.757C1517.85 226.903 1516.38 226.049 1514.91 225.193C1482.8 206.512 1449.59 187.196 1415.1 178.5C1401.74 175.13 1389.23 173.384 1376.87 173.158C1329.2 172.291 1288.54 200.46 1262.84 224.241C1247.71 238.154 1234.28 253.403 1221.29 268.149C1218.08 271.796 1214.76 275.565 1211.48 279.238C1199 293.225 1187.39 309.128 1175.11 325.967C1152.76 356.595 1129.65 388.265 1097.75 413.407C1079.29 427.954 1059.39 438.863 1036.9 446.762C992.597 462.321 947.61 466.406 905.598 468.504C879.692 469.797 852.619 469.576 825.133 467.85C802.558 466.388 780.245 463.888 758.808 460.421C696.835 450.419 636.652 429.764 579.942 399.028C557.23 386.721 534.005 372.087 506.856 352.976C455.258 316.755 416.943 291.243 382.625 270.257C314.369 228.519 262.274 203.963 208.439 188.15C172.396 177.564 134.537 170.288 95.9064 166.523C69.105 163.913 40.6619 164.146 3.68564 167.288C-3.89133 167.939 -11.6436 168.706 -19.3576 169.57C-26.6445 170.398 -34.0461 171.347 -41.8844 172.35C-70.8247 176.056 -103.628 180.257 -141.172 179.472C-160.961 179.059 -181.173 177.928 -200.72 176.835C-222.934 175.594 -245.904 174.309 -267.682 174.135C-289.517 173.961 -309.927 175.366 -328.329 178.315C-394.154 188.858 -446.335 212.208 -467.912 240.775L-468.524 240.475C-462.92 233.053 -455.282 225.926 -445.825 219.292C-436.695 212.885 -425.826 206.907 -413.515 201.519C-389.602 191.051 -360.193 182.829 -328.47 177.748C-310.017 174.794 -289.562 173.384 -267.676 173.558C-245.879 173.732 -222.896 175.017 -200.672 176.261C-181.132 177.353 -160.929 178.484 -141.156 178.897C-103.679 179.679 -70.9108 175.484 -42.0024 171.783C-34.1609 170.778 -26.7529 169.832 -19.4628 169.001C-11.7392 168.136 -3.98059 167.37 3.60275 166.716C40.6364 163.572 69.1273 163.336 95.9861 165.954C134.671 169.724 172.584 177.01 208.678 187.612C262.586 203.445 314.736 228.026 383.053 269.8C417.383 290.794 455.711 316.314 507.322 352.546C534.451 371.641 557.651 386.259 580.337 398.554C636.971 429.246 697.064 449.873 758.945 459.859C780.353 463.321 802.641 465.817 825.184 467.278C852.639 469.002 879.676 469.222 905.55 467.932C947.499 465.837 992.409 461.762 1036.61 446.239C1059.02 438.371 1078.85 427.497 1097.24 413.002C1129.07 387.913 1152.16 356.277 1174.48 325.682C1186.78 308.833 1198.39 292.917 1210.89 278.91C1214.17 275.24 1217.49 271.47 1220.7 267.823C1233.7 253.064 1247.14 237.805 1262.29 223.869C1279.07 208.349 1296.66 196.072 1314.57 187.378C1335.55 177.194 1356.52 172.222 1376.89 172.589C1389.31 172.814 1401.88 174.571 1415.31 177.956C1449.91 186.683 1483.17 206.025 1515.33 224.734C1516.8 225.59 1518.28 226.447 1519.74 227.298C1550.66 245.26 1580.44 266.407 1608.26 290.153C1665.93 339.253 1717.9 401.59 1762.73 475.431L1762.09 475.675Z" fill="#300CFC"/>
<path d="M921.459 468.238C919.671 468.238 917.908 468.236 916.174 468.228C890.402 468.141 863.339 466.525 835.744 463.422C813.252 460.845 791.079 457.288 769.84 452.853C739.494 446.529 709.04 437.441 679.315 425.841C650.611 414.639 621.703 400.75 593.39 384.554C565.649 368.688 539.737 351.008 520.26 337.377C474.69 305.571 431.332 278.987 391.391 258.361C326.702 224.955 269.054 204.59 209.965 194.273C174.318 188.048 136.073 184.766 99.2502 184.766C98.6796 184.766 98.1122 184.766 97.5416 184.768C65.9078 184.856 35.8741 189.585 8.13556 194.683C0.915619 196.019 -6.55295 197.478 -14.063 199.025C-18.1782 199.881 -22.2997 200.763 -26.6604 201.697C-57.4177 208.29 -92.2805 215.761 -134.634 215.148C-160.428 214.774 -186.774 212.624 -212.253 210.545C-228.704 209.201 -245.713 207.813 -261.938 206.975C-284.242 205.823 -304.767 206.193 -322.949 208.078C-388.422 214.858 -443.036 233.077 -469.043 256.814L-469.643 256.391C-456.302 244.217 -436.236 233.677 -410.002 225.06C-384.948 216.833 -354.879 210.74 -323.051 207.444C-304.821 205.557 -284.242 205.182 -261.887 206.339C-245.646 207.177 -228.627 208.567 -212.17 209.911C-186.707 211.991 -160.377 214.14 -134.618 214.512C-92.373 215.125 -57.5707 207.665 -26.8644 201.084C-22.5006 200.148 -18.379 199.266 -14.2606 198.409C-6.7442 196.863 0.730713 195.401 7.95703 194.065C35.7434 188.959 65.8281 184.222 97.5385 184.132C134.948 184.027 173.878 187.32 210.134 193.652C240.63 198.978 270.195 206.818 300.513 217.62C329.711 228.025 359.579 241.176 391.819 257.827C431.791 278.469 475.181 305.074 520.78 336.9C540.24 350.523 566.133 368.19 593.846 384.039C651.296 416.901 710.576 439.846 770.038 452.241C791.248 456.67 813.393 460.221 835.853 462.796C863.413 465.894 890.437 467.51 916.174 467.594C956.446 467.728 1003.21 466.635 1048.82 451.851C1071.9 444.367 1091.87 433.424 1109.87 418.399C1141.48 392.01 1162.44 358.14 1182.71 325.383C1193.14 308.533 1202.98 292.618 1213.69 278.841C1217.12 274.428 1220.58 269.881 1223.93 265.482C1235.24 250.623 1246.93 235.262 1260.4 221.062C1275.8 204.726 1292.32 191.475 1309.5 181.678C1329.43 170.32 1349.74 163.965 1369.88 162.79C1382.3 162.064 1394.92 162.806 1408.44 165.057C1444.59 171.074 1480.42 188.554 1517 207.472C1548.9 223.967 1580.64 244.984 1608.81 268.252C1640.09 294.023 1669.48 324.257 1696.16 358.111C1719.94 388.273 1741.71 421.474 1760.88 456.793L1760.15 457.049C1718.98 381.2 1667.87 317.83 1608.24 268.701C1580.11 245.466 1548.42 224.48 1516.57 208.013C1480.06 189.128 1444.29 171.681 1408.28 165.686C1394.83 163.447 1382.29 162.711 1369.93 163.431C1332.94 165.593 1294.26 186.197 1261.04 221.452C1247.59 235.626 1235.91 250.975 1224.61 265.818C1221.26 270.219 1217.8 274.769 1214.37 279.182C1203.68 292.933 1193.84 308.836 1183.42 325.67C1173.48 341.742 1163.19 358.363 1151.39 374.34C1138.02 392.453 1124.62 407.01 1110.45 418.845C1092.37 433.937 1072.31 444.929 1049.12 452.448C1028.66 459.08 1006.68 463.463 981.906 465.853C960.928 467.866 939.858 468.238 921.459 468.238Z" fill="#300CFC"/>
<path d="M972.575 469.523C956.322 469.523 940.709 468.743 926.741 467.953C901.058 466.502 874.008 463.489 846.346 458.995C823.95 455.305 801.917 450.694 780.86 445.285C723.199 430.506 666.272 405.904 606.826 370.08C580.901 354.459 556.462 337.651 533.657 321.777C488.636 290.528 443.722 265.19 400.157 246.463C336.086 218.923 276.14 204.282 211.502 200.389C174.672 198.17 135.834 199.076 99.183 203.005C68.5055 206.292 39.5843 214.227 12.5853 222.069C5.83072 224.042 -1.35413 226.196 -8.76532 228.471C-10.6173 229.042 -12.4853 229.625 -14.3787 230.212C-45.4738 239.885 -80.6587 250.831 -125.814 250.831C-126.576 250.831 -127.335 250.828 -128.103 250.821C-158.653 250.572 -189.844 247.064 -220.011 243.668C-231.971 242.322 -244.339 240.932 -256.207 239.806C-279.387 237.611 -299.463 236.962 -317.584 237.829C-383.494 240.983 -439.128 253.744 -470.213 272.848L-470.746 272.286C-455.378 262.843 -433.157 254.644 -406.493 248.577C-380.265 242.609 -349.54 238.649 -317.638 237.123C-299.466 236.254 -279.339 236.903 -256.108 239.103C-244.228 240.229 -231.857 241.622 -219.893 242.965C-189.755 246.356 -158.593 249.861 -128.1 250.11C-82.0038 250.49 -46.2452 239.362 -14.7007 229.548C-12.8104 228.96 -10.9393 228.378 -9.08728 227.804C-1.66971 225.526 5.51837 223.372 12.2793 221.4C39.323 213.542 68.2983 205.597 99.0588 202.299C135.767 198.365 174.669 197.457 211.559 199.678C243.591 201.607 274.132 206.162 304.924 213.599C336.638 221.259 367.921 231.802 400.562 245.835C444.181 264.587 489.152 289.956 534.222 321.235C557.016 337.105 581.44 353.903 607.342 369.508C666.708 405.283 723.55 429.849 781.118 444.606C802.143 450.004 824.147 454.61 846.512 458.295C874.135 462.783 901.147 465.794 926.792 467.24C969.946 469.677 1015.85 470.928 1061.02 457.446C1084.78 450.35 1104.89 439.338 1122.49 423.779C1153.85 396.064 1173.37 358.26 1190.59 324.905C1199.26 308.123 1207.44 292.271 1216.47 278.759C1219.73 273.884 1223.01 268.844 1226.18 263.972C1236.1 248.725 1246.36 232.961 1258.5 218.238C1272.55 201.086 1288 186.861 1304.43 175.956C1323.3 163.434 1342.96 155.699 1362.85 152.973C1375.29 151.267 1387.95 150.996 1401.55 152.134C1439.57 155.322 1478.18 171.073 1514.26 187.622C1547.56 202.902 1580.44 223.203 1609.35 246.33C1641.5 271.981 1671.13 302.517 1697.4 337.084C1720.89 367.997 1741.63 401.993 1759.04 438.133L1758.22 438.387C1721.22 361.568 1669.53 295.328 1608.73 246.828C1579.89 223.744 1547.07 203.482 1513.82 188.233C1477.84 171.722 1439.32 156.009 1401.47 152.834C1387.94 151.701 1375.36 151.973 1363.01 153.665C1326.27 158.699 1289.42 181.768 1259.24 218.623C1247.12 233.315 1236.87 249.064 1226.96 264.295C1223.79 269.17 1220.51 274.209 1217.25 279.09C1208.24 292.572 1200.06 308.408 1191.4 325.172C1174.15 358.578 1154.6 396.443 1123.14 424.251C1105.44 439.895 1085.22 450.968 1061.32 458.105C1040.58 464.296 1018.21 467.882 992.925 469.059C986.088 469.392 979.279 469.523 972.575 469.523Z" fill="#300CFC"/>
<path d="M1004.66 472.3C1004.43 472.3 1004.2 472.3 1003.96 472.3C980.994 472.254 958.441 469.992 937.308 467.679C911.663 464.873 884.629 460.46 856.951 454.567C834.657 449.768 812.765 444.098 791.886 437.717C736.53 420.825 681.999 394.736 620.271 355.608C598.041 341.521 576.164 326.352 555.005 311.685C552.359 309.849 549.71 308.015 547.061 306.182C501.807 274.94 455.335 250.846 408.939 234.572C345.407 212.288 281.333 203.107 213.054 206.505C175.615 208.37 136.813 213.466 100.84 221.241C72.458 227.378 47.1675 237.224 17.051 249.456C10.9467 251.947 4.42804 254.634 -3.45813 257.917L-3.89804 258.101C-19.1125 264.477 -36.3575 271.701 -55.6999 277.195C-77.9143 283.503 -99.4658 286.54 -121.565 286.504C-156.027 286.435 -191.196 281.275 -225.204 276.282C-233.537 275.058 -242.156 273.794 -250.476 272.65C-274.335 269.375 -294.532 267.721 -312.22 267.595C-377.349 267.134 -435.37 274.899 -471.402 288.897L-471.817 288.204C-454.167 281.347 -430.359 275.781 -402.968 272.109C-375.526 268.429 -344.14 266.603 -312.21 266.829C-294.471 266.954 -274.223 268.611 -250.313 271.894C-241.987 273.037 -233.368 274.302 -225.032 275.525C-191.065 280.511 -155.941 285.665 -121.562 285.735C-121.409 285.735 -121.253 285.735 -121.1 285.735C-71.9248 285.735 -34.4608 270.039 -4.33789 257.419L-3.89487 257.235C3.99448 253.949 10.5132 251.262 16.6206 248.772C46.7881 236.518 72.1233 226.655 100.595 220.5C136.628 212.709 175.494 207.605 212.996 205.739C246.409 204.077 277.925 205.344 309.352 209.616C343.217 214.219 375.918 222.152 409.321 233.869C455.806 250.174 502.358 274.307 547.686 305.6C550.335 307.433 552.984 309.269 555.63 311.106C576.779 325.767 598.65 340.931 620.861 355.008C682.509 394.087 736.96 420.14 792.224 437.004C813.074 443.377 834.934 449.037 857.197 453.83C884.836 459.716 911.832 464.122 937.435 466.923C983.295 471.944 1028.19 475.427 1073.23 463.076C1097.68 456.372 1117.92 445.291 1135.13 429.195C1166.21 400.121 1183.18 359.835 1198.17 324.287C1205.18 307.646 1211.8 291.925 1219.27 278.715C1222.15 273.632 1225.03 268.375 1227.82 263.29C1236.54 247.389 1245.56 230.951 1256.62 215.45C1269.35 197.476 1283.73 182.273 1299.37 170.266C1317.2 156.581 1336.2 147.472 1355.84 143.194C1368.02 140.543 1380.45 139.25 1393.81 139.25C1394.1 139.25 1394.39 139.25 1394.68 139.253C1436.2 139.427 1478.93 154.604 1511.52 167.806C1546.24 181.873 1580.26 201.456 1609.91 224.439C1642.94 249.972 1672.79 280.808 1698.65 316.094C1721.85 347.758 1741.56 382.551 1757.21 419.512L1756.3 419.76C1733.01 364.766 1688.6 286.337 1609.24 224.996C1579.67 202.064 1545.72 182.527 1511.09 168.494C1478.6 155.327 1436 140.194 1394.68 140.022C1381.07 139.958 1368.45 141.245 1356.09 143.938C1319.7 151.865 1284.67 177.398 1257.45 215.833C1246.42 231.297 1237.41 247.718 1228.7 263.6C1225.91 268.688 1223.02 273.948 1220.14 279.033C1212.69 292.21 1206.07 307.91 1199.07 324.534C1184.06 360.145 1167.05 400.508 1135.85 429.696C1118.54 445.898 1098.15 457.054 1073.54 463.801C1052.69 469.518 1030.14 472.3 1004.66 472.3Z" fill="#300CFC"/>
<path d="M1030.17 475.911C1025.22 475.911 1020.17 475.782 1014.99 475.526C992.332 474.405 970.312 471.043 947.872 467.401C921.858 463.18 895.585 457.533 867.553 450.137C845.374 444.233 823.625 437.509 802.909 430.146C750.355 411.497 698.173 384.043 633.717 341.133C617.709 330.478 601.707 319.301 586.231 308.492C577.806 302.609 569.098 296.523 560.469 290.581C514.676 259.129 466.651 236.284 417.727 222.677C353.086 204.697 286.65 201.404 214.616 212.611C176.559 218.532 137.792 227.819 102.508 239.464C74.1637 248.82 49.4725 261.958 23.3309 275.868L21.5235 276.83C17.4402 279.01 13.3123 281.22 9.1333 283.457C6.72665 284.747 4.30405 286.044 1.85913 287.352C-13.384 295.551 -29.848 304.104 -48.7282 310.687C-70.6494 318.329 -92.3315 322.089 -115.021 322.181C-152.794 322.33 -191.323 315.267 -228.58 308.43C-233.896 307.453 -239.398 306.445 -244.738 305.489C-269.77 301.001 -289.504 298.418 -306.851 297.356C-370.865 293.44 -431.276 296.2 -472.601 304.93L-472.865 304.124C-431.433 295.371 -370.897 292.602 -306.772 296.526C-289.377 297.59 -269.591 300.18 -244.511 304.676C-239.169 305.635 -233.667 306.643 -228.347 307.62C-191.546 314.372 -153.505 321.35 -116.232 321.35C-115.831 321.35 -115.429 321.35 -115.024 321.348C-66.8147 321.153 -32.4969 304.827 1.28854 286.66C3.73346 285.352 6.15604 284.054 8.56268 282.764C12.7416 280.525 16.8664 278.317 20.9529 276.135L22.7603 275.173C48.9465 261.24 73.6792 248.079 102.116 238.692C137.463 227.024 176.298 217.722 214.422 211.79C286.637 200.555 353.252 203.858 418.069 221.887C467.113 235.53 515.249 258.427 561.144 289.947C569.773 295.892 578.485 301.975 586.91 307.861C602.379 318.668 618.378 329.842 634.377 340.49C698.757 383.351 750.865 410.766 803.326 429.385C824.014 436.735 845.731 443.451 867.879 449.344C895.869 456.73 922.103 462.37 948.079 466.583C987.51 472.982 1036.58 480.947 1085.45 468.679C1110.58 462.372 1130.96 451.222 1147.76 434.588C1178.54 404.121 1192.81 361.27 1205.41 323.466C1210.88 307.043 1216.04 291.53 1222.07 278.656C1224.42 273.639 1226.78 268.451 1229.05 263.433C1236.69 246.601 1244.59 229.198 1254.73 212.647C1266.17 193.836 1279.49 177.656 1294.31 164.556C1311.1 149.713 1329.44 139.231 1348.82 133.402C1361.26 129.661 1374.01 127.355 1387.79 126.352C1406.26 125.008 1425.91 126.445 1447.87 130.733C1466.45 134.364 1486.38 140.001 1508.78 147.969C1544.91 160.82 1580.07 179.687 1610.46 202.53C1644.37 227.942 1674.46 259.083 1699.9 295.084C1722.81 327.503 1741.47 363.094 1755.37 400.872L1754.38 401.108C1725.03 321.35 1673.67 251.043 1609.75 203.14C1579.44 180.359 1544.38 161.546 1508.36 148.733C1460.09 131.566 1421.82 124.716 1387.89 127.183C1374.19 128.178 1361.53 130.468 1349.18 134.182C1303.07 148.048 1272.87 184.706 1255.66 213.014C1245.54 229.524 1237.65 246.907 1230.03 263.717C1227.75 268.739 1225.39 273.929 1223.04 278.948C1217.03 291.784 1211.87 307.279 1206.41 323.682C1193.79 361.568 1179.48 404.508 1148.56 435.114C1131.63 451.878 1111.08 463.119 1085.76 469.476C1068.59 473.785 1050.29 475.911 1030.17 475.911Z" fill="#300CFC"/>
<path d="M1052.27 480.05C1018.56 480.05 986.154 473.082 958.428 467.122C932.344 461.516 906.085 454.51 878.149 445.706C856.093 438.705 834.485 430.924 813.925 422.576C752.292 397.582 697.347 361.706 647.155 326.659C636.907 319.504 626.554 312.129 616.545 304.997C602.647 295.092 588.274 284.852 573.872 274.984C527.393 243.222 477.817 221.621 426.522 210.78C360.165 196.76 291.361 199.353 216.178 218.71C177.467 228.676 138.738 242.152 104.175 257.683C77.5166 269.66 54.9611 284.78 31.0827 300.788C29.3901 301.922 27.6943 303.06 25.9889 304.199L25.0645 304.82C19.2599 308.715 13.2576 312.742 7.17245 316.783C-7.40765 326.511 -23.4637 336.571 -42.0347 344.257C-63.5925 353.179 -85.3256 357.629 -108.484 357.86C-149.132 358.267 -190.561 349.074 -230.623 340.182C-233.432 339.559 -236.227 338.938 -239.01 338.326C-265.429 332.494 -284.701 329.037 -301.493 327.113C-363.9 319.968 -426.709 317.722 -473.816 320.951L-473.911 320.056C-426.728 316.819 -363.827 319.068 -301.337 326.223C-284.497 328.152 -265.183 331.617 -238.717 337.459C-235.934 338.072 -233.138 338.692 -230.327 339.318C-190.341 348.191 -148.992 357.362 -108.5 356.962C-58.2086 356.459 -22.791 335.602 6.45844 316.091C12.5436 312.049 18.5458 308.023 24.3505 304.13L25.2749 303.509C26.9803 302.368 28.6761 301.232 30.3687 300.098C54.2885 284.062 76.8823 268.916 103.63 256.899C138.257 241.339 177.059 227.84 215.837 217.856C251.48 208.68 284.96 203.382 318.184 201.658C355.247 199.737 391.789 202.515 426.802 209.913C478.26 220.787 527.983 242.45 574.593 274.299C589.004 284.173 603.38 294.415 617.281 304.322C627.29 311.454 637.637 318.827 647.882 325.98C698.023 360.988 752.901 396.825 814.422 421.773C834.953 430.108 856.53 437.879 878.553 444.87C906.448 453.661 932.666 460.657 958.712 466.255C998.704 474.852 1048.48 485.551 1097.65 474.293C1123.46 468.384 1143.98 457.164 1160.38 439.992C1190.84 408.091 1202.24 362.604 1212.29 322.469C1216.33 306.343 1220.15 291.112 1224.86 278.605C1226.6 273.978 1228.34 269.198 1230.03 264.574C1236.64 246.489 1243.48 227.786 1252.83 209.852C1263 190.189 1275.24 173.028 1289.22 158.848C1304.99 142.848 1322.67 130.995 1341.78 123.616C1354.2 118.826 1366.98 115.505 1380.89 113.461C1399.62 110.709 1420.4 110.801 1442.66 113.735C1462.15 116.305 1483.47 121.149 1506.02 128.138C1543.55 139.773 1579.85 157.922 1610.99 180.624C1645.78 205.918 1676.11 237.359 1701.13 274.078C1723.74 307.251 1741.37 343.642 1753.52 382.238L1752.44 382.459C1726.69 300.675 1676.19 229.232 1610.25 181.29C1579.21 158.663 1543.03 140.573 1505.62 128.976C1457.12 113.945 1416.39 109.157 1381.09 114.346C1367.29 116.374 1354.59 119.672 1342.26 124.427C1296.79 141.981 1269.09 180.757 1253.86 210.198C1244.53 228.086 1237.7 246.763 1231.1 264.826C1229.41 269.449 1227.66 274.232 1225.92 278.864C1221.23 291.33 1217.42 306.54 1213.39 322.646C1208.55 341.954 1203.06 363.838 1195.11 384.354C1185.99 407.861 1174.92 426.238 1161.26 440.538C1153.37 448.806 1144.29 455.843 1134.3 461.455C1123.54 467.489 1111.32 472.1 1097.96 475.157C1082.68 478.658 1067.34 480.05 1052.27 480.05Z" fill="#300CFC"/>
<path d="M1072.19 484.592C1061.05 484.592 1049.37 483.72 1037.04 481.978C1012.75 478.549 989.502 472.328 968.986 466.842C943.128 459.926 916.129 451.322 888.744 441.271C866.83 433.183 845.361 424.345 824.941 415C766.331 388.208 715.836 352.584 660.594 312.182C655.686 308.592 650.7 304.93 645.88 301.385C626.898 287.437 607.272 273.014 587.276 259.386C540.026 227.252 488.9 206.897 435.316 198.885C367.726 188.778 294.52 197.498 217.74 224.805C178.341 238.818 139.646 256.483 105.842 275.894C80.3887 290.509 59.4366 307.74 37.254 325.984C35.0004 327.839 32.7372 329.698 30.4612 331.565C24.7968 336.217 18.6957 341.21 12.4894 346.208C-0.525574 356.726 -16.3871 368.71 -35.3374 377.822C-56.551 388.023 -78.3383 393.165 -101.939 393.537C-145.144 394.222 -189.124 382.712 -231.656 371.582L-233.275 371.159C-254.1 365.712 -276.13 360.208 -296.129 356.867C-357.088 346.683 -420.621 339.612 -475.017 336.958L-474.944 335.999C-420.49 338.656 -356.9 345.731 -295.886 355.926C-275.83 359.277 -253.762 364.789 -232.906 370.243L-231.286 370.667C-188.846 381.771 -144.956 393.253 -101.962 392.573C-52.3083 391.788 -18.016 369.497 11.6447 345.524C17.851 340.528 23.9457 335.535 29.6101 330.885C31.8861 329.021 34.1493 327.159 36.4029 325.307C58.6237 307.032 79.6141 289.77 105.15 275.106C139.018 255.657 177.786 237.959 217.258 223.921C253.282 211.111 288.731 202.283 322.615 197.688C361.332 192.438 399.325 192.52 435.54 197.934C489.327 205.976 540.641 226.403 588.051 258.647C608.063 272.288 627.698 286.716 646.69 300.672C651.51 304.214 656.495 307.876 661.404 311.467C716.591 351.83 767.032 387.416 825.537 414.161C845.929 423.491 867.365 432.316 889.248 440.394C916.595 450.429 943.549 459.02 969.369 465.927C1009.84 476.754 1060.21 490.226 1109.88 479.904C1136.37 474.397 1157.02 463.111 1173.01 445.395C1203.14 412.017 1211.86 361.709 1218.86 321.284C1221.59 305.537 1224.17 290.665 1227.66 278.561C1228.76 274.745 1229.87 270.813 1230.95 267.01C1236.53 247.253 1242.3 226.821 1250.95 207.064C1264.32 176.317 1289.71 135.187 1334.76 113.842C1347.21 107.949 1360.04 103.61 1374 100.579C1410.53 92.5335 1454.03 95.1365 1503.27 108.311C1542.22 118.73 1579.66 136.162 1611.55 158.722C1647.22 183.896 1677.78 215.64 1702.39 253.079C1713.68 270.252 1723.65 288.593 1732.04 307.594C1740.05 325.743 1746.66 344.59 1751.69 363.612L1750.52 363.812C1728.38 279.997 1678.74 207.418 1610.76 159.443C1578.99 136.967 1541.69 119.602 1502.9 109.221C1453.88 96.1059 1410.62 93.5106 1374.32 101.504C1360.46 104.513 1347.72 108.818 1335.37 114.668C1290.62 135.864 1265.38 176.784 1252.08 207.379C1243.45 227.085 1237.69 247.489 1232.11 267.22C1231.04 271.024 1229.93 274.958 1228.82 278.776C1225.34 290.84 1222.77 305.691 1220.05 321.414C1216.52 341.756 1212.53 364.812 1205.7 386.572C1197.85 411.576 1187.48 431.003 1173.98 445.959C1166.28 454.491 1157.27 461.688 1147.21 467.345C1136.37 473.441 1123.91 477.98 1110.18 480.832C1098.13 483.34 1085.54 484.592 1072.19 484.592Z" fill="#300CFC"/>
<path d="M1090.55 489.388C1077.2 489.388 1063.11 487.995 1048.07 485.203C1023.69 480.681 1000.23 473.177 979.54 466.556C953.487 458.221 926.504 448.222 899.339 436.833C877.568 427.664 856.243 417.77 835.957 407.422C780.136 378.969 732.258 342.296 681.568 303.474C679.06 301.553 676.551 299.629 674.036 297.706C650.464 279.672 626.091 261.023 600.683 243.789C552.61 211.247 499.935 192.136 444.12 186.987C374.012 180.516 298.373 195.291 219.301 230.894C179.749 248.702 140.048 271.15 107.509 294.1C82.9385 311.429 63.2327 330.927 42.3698 351.572C39.8994 354.016 37.4226 356.467 34.9267 358.924C29.9413 363.84 24.0092 369.67 17.7997 375.632C6.29883 386.703 -9.37146 400.773 -28.6437 411.356C-49.5194 422.823 -71.3545 428.667 -95.3987 429.219C-115.162 429.616 -136.971 427.162 -162.077 421.712C-183.632 417.034 -204.482 410.92 -227.554 403.996C-248.614 397.598 -270.842 390.989 -290.783 386.624C-349.853 373.693 -412.247 362.371 -476.229 352.964L-475.999 351.956C-411.979 361.366 -349.55 372.698 -290.449 385.634C-270.453 390.012 -248.194 396.631 -227.108 403.034C-188.435 414.644 -140.306 429.098 -95.4337 428.193C-44.1324 427.013 -11.1629 401.916 16.8211 374.971C23.0274 369.013 28.9564 363.186 33.9386 358.273C36.4345 355.816 38.9113 353.364 41.3785 350.923C62.2764 330.245 82.0173 310.713 106.667 293.328C139.273 270.332 179.051 247.841 218.68 229.999C297.991 194.288 373.891 179.475 444.267 185.968C471.25 188.459 497.755 194.242 523.039 203.156C550.169 212.719 576.569 226.129 601.505 243.007C626.942 260.258 651.331 278.918 674.916 296.965C677.431 298.891 679.943 300.812 682.451 302.732C733.093 341.521 780.929 378.158 836.642 406.558C856.9 416.891 878.193 426.772 899.932 435.925C927.059 447.296 954.001 457.282 980.015 465.604C1020.9 478.684 1071.78 494.961 1122.1 485.521C1149.35 480.407 1170.14 469.051 1185.63 450.807C1215.49 415.96 1220.81 362.727 1225.08 319.956C1226.61 304.658 1228.06 290.21 1230.45 278.526C1230.95 276.115 1231.44 273.691 1231.93 271.255C1236.4 249.249 1241.03 226.491 1249.06 204.282C1260.53 172.338 1283.49 129.023 1327.73 104.075C1340.07 97.1145 1352.95 91.7597 1367.11 87.7026C1386.78 82.0119 1408.7 79.337 1432.26 79.7474C1453.77 80.1218 1476.73 83.0633 1500.52 88.4874C1540.87 97.6864 1579.45 114.4 1612.09 136.819C1648.64 161.869 1679.44 193.921 1703.63 232.079C1714.73 249.587 1724.34 268.306 1732.19 287.714C1739.71 306.302 1745.66 325.572 1749.84 344.988L1748.59 345.163C1730.34 260.556 1680.28 184.902 1611.26 137.598C1578.76 115.277 1540.34 98.6327 1500.17 89.4696C1450.63 78.1702 1404.76 77.8932 1367.53 88.6643C1353.48 92.6907 1340.71 98.0044 1328.46 104.911C1284.52 129.687 1261.69 172.779 1250.28 204.564C1242.27 226.714 1237.65 249.438 1233.19 271.417C1232.7 273.853 1232.2 276.279 1231.71 278.69C1229.32 290.33 1227.88 304.761 1226.35 320.035C1222.07 362.93 1216.73 416.316 1186.68 451.386C1179.21 460.18 1170.28 467.541 1160.13 473.257C1149.21 479.407 1136.51 483.869 1122.39 486.521C1112.19 488.429 1101.62 489.388 1090.55 489.388Z" fill="#300CFC"/>
<path d="M1107.81 494.382C1092.59 494.382 1076.47 492.402 1059.09 488.427C1034.51 482.803 1010.91 474.019 990.088 466.271C963.778 456.48 936.807 445.081 909.926 432.396C888.311 422.164 867.13 411.211 846.965 399.847C797.311 371.873 754.875 337.603 709.945 301.32C702.601 295.388 695.005 289.256 687.469 283.227C660.98 262.044 638.361 244.576 614.081 228.192C565.151 195.219 510.93 177.352 452.919 175.085C380.024 172.236 301.944 193.06 220.851 236.978C180.566 258.797 140.899 285.545 109.16 312.298C85.2502 332.453 66.558 354.393 46.7693 377.62C44.3181 380.498 41.8572 383.385 39.3805 386.276C34.9688 391.433 29.1292 398.229 23.1014 405.043C-2.26562 433.786 -35.4072 463.379 -88.8666 464.892C-90.5337 464.935 -92.2072 464.956 -93.8775 464.956C-135.622 464.956 -178.241 451.664 -221.841 436.823L-224.563 435.889C-246.159 428.473 -266.56 421.469 -285.443 416.37C-356.607 397.157 -425.43 380.939 -477.439 368.957L-477.066 367.908C-425.045 379.895 -356.202 396.116 -285.013 415.337C-266.079 420.448 -245.656 427.462 -224.031 434.887L-221.312 435.82C-176.115 451.205 -131.976 464.928 -88.9144 463.804C-36.0479 462.307 -3.18365 432.943 21.9953 404.415C28.0199 397.606 33.8532 390.815 38.2648 385.66C40.7416 382.767 43.1993 379.882 45.6505 377.005C65.4711 353.742 84.192 331.766 108.179 311.547C139.981 284.737 179.728 257.935 220.092 236.072C257.556 215.782 295.033 200.202 331.48 189.762C373.299 177.783 414.18 172.479 452.982 173.995C511.293 176.272 565.789 194.227 614.948 227.353C639.263 243.763 661.905 261.249 688.419 282.45C695.958 288.479 703.554 294.613 710.901 300.545C755.786 336.793 798.182 371.029 847.739 398.947C867.875 410.298 889.025 421.233 910.608 431.45C937.451 444.119 964.38 455.5 990.653 465.276C1031.89 480.625 1083.22 499.726 1134.31 491.127C1162.23 486.426 1183.15 475.004 1198.25 456.208C1227.73 419.774 1229.5 363.546 1230.93 318.366C1231.39 303.625 1231.83 289.7 1233.24 278.48L1233.27 278.223C1236.42 253.098 1239.68 227.12 1247.16 201.487C1253.63 179.129 1262.65 159.028 1273.96 141.738C1286.71 122.245 1302.43 106.283 1320.69 94.2938C1332.9 86.2719 1345.83 79.899 1360.19 74.8135C1399.01 60.9931 1446.57 58.8594 1497.75 68.6483C1518.34 72.5875 1538.66 78.5552 1558.13 86.3822C1577.72 94.2553 1596.06 103.854 1612.63 114.908C1650.07 139.838 1681.1 172.192 1704.87 211.073C1726.23 246.02 1741.15 285.886 1748 326.357L1746.66 326.504C1731.99 239.883 1682.83 163.065 1611.76 115.746C1578.53 93.5834 1539 77.6627 1497.44 69.7152C1446.55 59.9827 1399.29 62.0933 1360.74 75.8188C1346.49 80.8658 1333.67 87.1875 1321.55 95.1453C1287.46 117.531 1262.2 154.391 1248.48 201.741C1241.03 227.307 1237.77 253.25 1234.62 278.339L1234.59 278.595C1233.19 289.774 1232.75 303.679 1232.28 318.4C1230.85 363.718 1229.07 420.115 1199.38 456.806C1192.1 465.869 1183.23 473.388 1173.03 479.153C1162.02 485.37 1149.09 489.758 1134.58 492.202C1125.94 493.653 1117.04 494.382 1107.81 494.382Z" fill="#300CFC"/>
<path d="M-87.8758 500.661C-106.542 500.661 -126.87 497.735 -149.811 491.76C-172.606 485.823 -195.148 477.626 -216.117 469.656C-219.913 468.204 -223.681 466.755 -227.423 465.316C-246.051 458.154 -263.647 451.388 -280.092 446.118C-345.664 425.112 -408.167 406.232 -468.613 387.977L-478.629 384.951L-478.125 383.871L-468.11 386.898C-407.66 405.157 -345.148 424.037 -279.563 445.049C-263.073 450.332 -245.455 457.105 -226.805 464.278C-223.066 465.716 -219.298 467.165 -215.505 468.614C-172.462 484.976 -126.733 500.833 -82.3804 499.42C-27.8595 497.594 4.81351 463.424 27.1841 433.862C32.9155 426.302 38.4363 418.767 42.6058 413.048C44.9072 409.897 47.1927 406.747 49.4719 403.606C68.3744 377.563 86.2282 352.964 109.708 329.77C140.701 299.159 180.409 268.041 221.523 242.152C259.666 218.132 298.156 199.155 335.93 185.747C379.256 170.368 421.574 162.387 461.709 162.025C522.102 161.302 578.194 178.018 628.406 211.703C656.24 230.399 681.195 250.623 701.94 267.941C713.228 277.366 724.515 287.026 735.433 296.369C774.076 329.444 814.036 363.642 858.851 391.342C878.869 403.719 899.881 415.71 921.299 426.982C947.804 440.899 974.72 453.676 1001.3 464.955C1042.86 482.584 1094.57 504.523 1146.53 496.737C1175.12 492.452 1196.17 480.963 1210.87 461.613C1239.96 423.527 1238 364.219 1236.42 316.565C1235.95 302.473 1235.51 289.16 1236.04 278.443C1237.24 254.282 1239.04 226.203 1245.28 198.701C1250.53 175.397 1258.47 154.314 1268.87 136.039C1280.63 115.366 1295.7 98.0345 1313.66 84.5244C1325.56 75.5716 1338.9 67.9728 1353.3 61.9359C1373.84 53.2934 1396.9 47.8591 1421.83 45.7869C1445.18 43.8456 1469.79 44.8663 1494.99 48.8182C1516.24 52.1521 1537.19 57.6351 1557.25 65.1185C1577.43 72.648 1596.25 82.0291 1613.18 93.0003C1632.69 105.633 1650.63 120.551 1666.5 137.341C1681.54 153.249 1694.87 170.991 1706.12 190.071C1727.16 225.767 1741.01 266.456 1746.16 307.733L1744.73 307.848C1733.67 219.209 1685.39 141.229 1612.28 93.9004C1578.79 72.1992 1537.04 56.5914 1494.71 49.9517C1442.38 41.7426 1393.71 46.2409 1353.96 62.9592C1339.68 68.9474 1326.45 76.4871 1314.64 85.3682C1280.8 110.824 1257.94 149.023 1246.69 198.908C1240.46 226.336 1238.67 254.367 1237.47 278.489C1236.95 289.168 1237.39 302.46 1237.85 316.534C1238.63 340.043 1239.51 366.692 1236.56 392.452C1233.12 422.345 1225.12 445.164 1212.1 462.216C1205.01 471.546 1196.2 479.227 1185.93 485.043C1174.84 491.326 1161.67 495.642 1146.79 497.871C1139.28 498.997 1131.78 499.507 1124.33 499.507C1079.68 499.507 1036.41 481.15 1000.64 465.973C974.016 454.676 947.058 441.882 920.518 427.943C899.069 416.657 878.027 404.647 857.98 392.252C813.073 364.496 773.072 330.262 734.39 297.156C723.476 287.816 712.192 278.158 700.911 268.739C680.195 251.441 655.274 231.245 627.491 212.585C577.55 179.079 521.786 162.461 461.732 163.174C367.42 164.025 279.531 207.082 222.409 243.055C181.378 268.892 141.75 299.944 110.824 330.493C87.414 353.617 69.5857 378.178 50.7119 404.18C48.4327 407.322 46.144 410.471 43.8425 413.625C39.67 419.347 34.1459 426.887 28.4114 434.455C19.0207 446.865 4.27795 464.929 -15.2494 478.47C-24.7325 485.046 -34.8245 490.213 -45.2448 493.832C-56.8636 497.866 -69.3399 500.133 -82.3198 500.566C-84.1591 500.63 -86.0111 500.661 -87.8758 500.661Z" fill="#300CFC"/>
<path d="M-81.8824 536.366C-100.571 536.366 -120.857 533.214 -143.677 526.782C-167.304 520.124 -190.663 510.764 -210.394 502.483C-216.457 499.934 -222.507 497.349 -228.359 494.848C-244.718 487.86 -260.172 481.256 -274.742 475.865C-327.067 456.503 -379.05 437.6 -429.325 419.317C-445.955 413.27 -463.149 407.017 -479.814 400.945L-479.189 399.834C-462.524 405.907 -445.33 412.159 -428.701 418.207C-378.426 436.489 -326.436 455.395 -274.108 474.76C-259.499 480.166 -244.026 486.775 -227.649 493.774C-221.799 496.274 -215.749 498.857 -209.693 501.406C-168.77 518.573 -121.304 536.745 -75.8514 535.035C-20.0459 532.886 11.2979 495.574 32.3743 463.309C37.7773 455.044 43.0018 446.745 46.9481 440.439C48.9754 437.202 50.99 433.968 53.0013 430.742C71.0815 401.724 88.1575 374.317 111.242 347.997C141.266 313.765 180.942 278.336 222.955 248.236C281.464 206.498 371.893 155.586 470.435 150.065C533.103 146.459 590.783 161.934 641.864 196.063C664.815 211.404 687.511 229.099 715.46 253.444C729.584 265.747 743.6 278.498 757.154 290.825C792.418 322.9 828.878 356.068 869.964 383.752C889.867 397.167 910.736 410.213 931.991 422.528C957.728 437.425 984.635 451.597 1011.96 464.651C1053.93 484.58 1106.17 509.387 1158.74 502.365C1187.57 498.595 1209.36 486.708 1223.5 467.038C1252.19 427.229 1246.03 362.099 1241.53 314.545C1240.27 301.199 1239.08 288.594 1238.85 278.426C1238.32 255.827 1238.37 226.029 1243.4 195.934C1252.07 143.784 1273.35 103.018 1306.64 74.7748C1318.3 64.8244 1331.69 56.1793 1346.4 49.0781C1367.34 38.9635 1390.96 32.1597 1416.62 28.8592C1440.79 25.7509 1466.23 25.7997 1492.23 29.0053C1514.17 31.7699 1535.74 36.7811 1556.35 43.8951C1577.17 51.081 1596.47 60.2364 1613.73 71.1075C1633.68 83.6687 1651.9 98.638 1667.9 115.602C1683.05 131.68 1696.33 149.673 1707.37 169.086C1728.09 205.534 1740.87 247.043 1744.33 289.128L1742.82 289.207C1735.37 198.545 1687.98 119.401 1612.79 72.0693C1578.71 50.5963 1535.81 35.7296 1492 30.2107C1438 23.5557 1387.92 30.4415 1347.19 50.1244C1332.59 57.1667 1319.32 65.7425 1307.74 75.6135C1274.68 103.67 1253.53 144.205 1244.9 196.099C1239.89 226.112 1239.84 255.85 1240.36 278.405C1240.6 288.538 1241.79 301.127 1243.05 314.455C1245.37 339.036 1248 366.9 1246.5 394.102C1244.74 425.777 1237.65 449.835 1224.81 467.651C1217.9 477.26 1209.17 485.108 1198.85 490.976C1187.65 497.338 1174.25 501.575 1159 503.57C1135.34 506.727 1109.89 503.891 1081.17 494.897C1056.21 487.078 1032.29 475.722 1011.19 465.705C983.828 452.633 956.886 438.441 931.111 423.523C909.825 411.19 888.927 398.126 868.994 384.693C827.823 356.952 791.322 323.749 756.022 291.641C742.475 279.316 728.462 266.572 714.351 254.281C686.449 229.979 663.795 212.317 640.899 197.012C590.12 163.077 532.807 147.695 470.537 151.278C372.419 156.779 282.289 207.534 223.956 249.146C182.026 279.185 142.433 314.54 112.473 348.7C89.4517 374.945 72.4011 402.314 54.3497 431.288C52.3383 434.517 50.3238 437.751 48.2964 440.987C44.347 447.299 39.1193 455.605 33.71 463.879C12.4486 496.43 -19.2108 534.076 -75.7845 536.253C-77.7958 536.327 -79.8327 536.366 -81.8824 536.366Z" fill="#300CFC"/>
<path d="M-75.7687 572.071C-126.834 572.071 -180.415 546.839 -227.913 524.468C-242.509 517.595 -256.296 511.102 -269.397 505.611L-481 416.937L-480.264 415.801L-268.661 504.475C-255.524 509.979 -241.722 516.48 -227.107 523.363C-177.772 546.598 -121.852 572.933 -69.3234 570.651C-12.2875 568.176 17.7589 527.723 37.5635 492.76C44.0408 481.325 50.2948 469.689 56.3449 458.436C72.8918 427.662 89.9997 395.838 112.769 366.22C130.849 342.703 153.309 318.04 177.72 294.9C204.499 269.514 233.171 246.222 262.934 225.675C295.75 203.022 329.118 184.283 362.107 169.981C398.595 154.163 434.542 143.835 468.955 139.283C537.894 130.166 600.594 144.002 655.31 180.411C700.781 210.665 739.427 248.077 776.802 284.257C809.335 315.75 842.974 348.312 881.066 376.148C925.064 408.297 972.684 437.966 1022.61 464.327C1064.67 486.539 1117.01 514.184 1170.96 507.971C1216.53 502.723 1242.87 478.196 1251.5 432.983C1258.84 394.525 1251.85 348.904 1246.25 312.249C1244.34 299.757 1242.53 287.958 1241.64 278.389C1236.76 225.642 1239.87 182.098 1251.17 145.274C1258.22 122.298 1268.63 101.818 1282.1 84.4019C1297.14 64.9472 1316.45 48.729 1339.5 36.1986C1359.44 25.3582 1381.91 17.4851 1406.29 12.7971C1429.5 8.33474 1453.93 6.83961 1478.92 8.3527C1528.05 11.3276 1576.12 25.8327 1614.26 49.1931C1634.65 61.6799 1653.16 76.7031 1669.27 93.842C1684.55 110.086 1697.78 128.333 1708.61 148.08C1729 185.278 1740.71 227.611 1742.47 270.498L1740.88 270.542C1737.12 179.213 1689.42 96.8476 1613.29 50.2164C1532.44 0.694949 1417.66 -4.75471 1340.38 37.2629C1263.83 78.8855 1232.05 157.727 1243.23 278.295C1244.11 287.832 1245.92 299.616 1247.83 312.093C1253.45 348.827 1260.44 394.546 1253.07 433.178C1249.05 454.22 1240.98 471.131 1229.08 483.443C1222.39 490.365 1214.32 496.022 1205.1 500.254C1195.28 504.757 1183.88 507.781 1171.19 509.243C1166 509.84 1160.72 510.14 1155.36 510.14C1135.81 510.14 1114.99 506.163 1092.17 498.105C1066.46 489.026 1041.66 475.927 1021.73 465.402C971.737 439.002 924.051 409.294 879.988 377.099C841.81 349.204 808.136 316.604 775.568 285.078C738.242 248.943 699.643 211.578 654.286 181.401C599.938 145.241 537.668 131.495 469.204 140.55C330.715 158.866 188.057 270.721 114.114 366.897C91.4055 396.433 74.3199 428.213 57.7953 458.947C51.742 470.205 45.4847 481.848 39.0012 493.294C25.8523 516.505 12.866 533.126 -1.86719 545.595C-11.0634 553.376 -21.0406 559.51 -31.5215 563.826C-43.1754 568.625 -55.8685 571.353 -69.2501 571.936C-71.4113 572.025 -73.5884 572.071 -75.7687 572.071Z" fill="#300CFC"/>
</g>
</svg>
