<svg width="30" height="30" viewBox="0 0 30 30" fill="none" xmlns="http://www.w3.org/2000/svg">
<path d="M18.75 26.25V16.25C18.75 15.9184 18.6183 15.6005 18.3839 15.3661C18.1495 15.1317 17.8315 15 17.5 15H12.5C12.1685 15 11.8505 15.1317 11.6161 15.3661C11.3817 15.6005 11.25 15.9184 11.25 16.25V26.25M3.75 12.5C3.74991 12.1363 3.82917 11.777 3.98223 11.4471C4.1353 11.1172 4.3585 10.8247 4.63625 10.59L13.3862 3.09121C13.8375 2.70985 14.4092 2.50061 15 2.50061C15.5908 2.50061 16.1625 2.70985 16.6138 3.09121L25.3638 10.59C25.6415 10.8247 25.8647 11.1172 26.0178 11.4471C26.1708 11.777 26.2501 12.1363 26.25 12.5V23.75C26.25 24.413 25.9866 25.0489 25.5178 25.5177C25.0489 25.9866 24.413 26.25 23.75 26.25H6.25C5.58696 26.25 4.95107 25.9866 4.48223 25.5177C4.01339 25.0489 3.75 24.413 3.75 23.75V12.5Z" stroke="#0300A1" stroke-width="2" stroke-linecap="round" stroke-linejoin="round"/>
</svg>
