<svg width="152" height="81" viewBox="0 0 152 81" fill="none" xmlns="http://www.w3.org/2000/svg">
<mask id="path-1-outside-1_717_3" maskUnits="userSpaceOnUse" x="0" y="0" width="152" height="81" fill="black">
<rect fill="white" width="152" height="81"/>
<path d="M0 0H152V80H0V0Z"/>
</mask>
<path d="M152 79H0V81H152V79Z" fill="black" mask="url(#path-1-outside-1_717_3)"/>
<path d="M30.824 41.4509C31.9122 42.997 34.0217 43.3494 35.5355 42.2377C37.0493 41.1261 37.3943 38.9716 36.306 37.4255L30.824 41.4509ZM53.1757 18.5115C52.485 16.7428 50.5211 15.8809 48.7894 16.5865C47.0577 17.292 46.2139 19.2978 46.9046 21.0665L53.1757 18.5115ZM39.7375 10.0471C37.8796 10.2056 36.4992 11.8724 36.6544 13.7701C36.8096 15.6677 38.4416 17.0776 40.2995 16.9191L39.7375 10.0471ZM32.8557 26.3685L34.7715 21.1818L28.4544 18.7476L26.5386 23.9343L32.8557 26.3685ZM33.5649 39.4382C36.306 37.4255 36.306 37.4255 36.306 37.4255L36.3048 37.4239C36.3048 37.4239 36.3027 37.421 36.3011 37.4186C36.2977 37.4137 36.2926 37.4067 36.286 37.3972C36.2725 37.3782 36.2527 37.3498 36.2267 37.313C36.175 37.2394 36.0993 37.1315 36.0035 36.995C35.812 36.7222 35.5408 36.3354 35.2227 35.8802C34.5857 34.9688 33.7638 33.7882 33.0168 32.7016L27.4909 36.6639C28.2526 37.7719 29.0861 38.9691 29.7275 39.8868C30.0486 40.3462 30.3224 40.7367 30.516 41.0126C30.6128 41.1504 30.6896 41.2598 30.7422 41.3348C30.7687 41.3723 30.7889 41.4011 30.8027 41.4208C30.8096 41.4305 30.8149 41.438 30.8184 41.4431C30.8202 41.4456 30.8215 41.4475 30.8225 41.4489L30.824 41.4509C30.824 41.4509 30.824 41.4509 33.5649 39.4382ZM33.0168 32.7016C32.6004 32.0957 32.3118 31.0137 32.2062 29.7376L25.4786 30.3187C25.616 31.9789 26.0355 34.5464 27.4909 36.6639L33.0168 32.7016ZM46.2526 19.8721L46.4502 20.1779L52.0859 16.3803L51.8883 16.0745L46.2526 19.8721ZM47.0287 24.3637C47.0287 24.3637 44.6719 39.3119 37.8622 37.8308C31.0524 36.3497 37.8622 41.8767 44.3068 39.8868C50.7514 37.8969 53.4733 26.4198 53.4733 26.4198L47.0287 24.3637ZM46.4502 20.1779C46.6308 20.4576 46.7831 20.7553 46.9046 21.0665L53.1757 18.5115C52.8844 17.7651 52.5191 17.051 52.0859 16.3803L46.4502 20.1779ZM46.9046 21.0665C47.3155 22.1185 47.3593 23.2827 47.0287 24.3637L53.4733 26.4198C54.2662 23.8271 54.1612 21.0345 53.1757 18.5115L46.9046 21.0665ZM34.7715 21.1818C35.6548 18.7906 37.806 17.1318 40.2995 16.9191L39.7375 10.0471C34.6481 10.4813 30.2572 13.8672 28.4544 18.7476L34.7715 21.1818ZM40.2995 16.9191C42.6633 16.7174 44.9464 17.8499 46.2526 19.8721L51.8883 16.0745C49.222 11.947 44.5622 9.63545 39.7375 10.0471L40.2995 16.9191ZM26.5386 23.9343C25.8893 25.692 25.2785 27.9018 25.4786 30.3187L32.2062 29.7376C32.1302 28.8195 32.3483 27.7422 32.8557 26.3685L26.5386 23.9343Z" fill="#1D00D2"/>
<path d="M37.176 38.5491C36.0878 37.003 31.6516 37.101 30.1378 38.2127C28.624 39.3243 30.6057 41.0284 31.694 42.5745L37.176 38.5491ZM14.8243 61.4885C15.515 63.2572 17.4789 64.1191 19.2106 63.4135C20.9423 62.708 21.7861 60.7022 21.0954 58.9335L14.8243 61.4885ZM28.2625 69.9529C30.1204 69.7944 31.5008 68.1276 31.3456 66.2299C31.1904 64.3323 29.5584 62.9224 27.7005 63.0809L28.2625 69.9529ZM35.1443 53.6315L33.2285 58.8182L39.5456 61.2524L41.4614 56.0657L35.1443 53.6315ZM34.4351 40.5618C31.694 42.5745 31.694 42.5745 31.694 42.5745L31.6952 42.5761C31.6952 42.5761 31.6973 42.579 31.6989 42.5814C31.7023 42.5863 31.7074 42.5933 31.714 42.6028C31.7275 42.6218 31.7473 42.6502 31.7733 42.687C31.825 42.7606 31.9007 42.8685 31.9965 43.005C32.188 43.2778 32.4592 43.6646 32.7773 44.1198C33.4143 45.0312 34.2362 46.2118 34.9832 47.2984L40.5091 43.3361C39.7474 42.2281 38.9139 41.0309 38.2725 40.1132C37.9514 39.6538 37.6776 39.2633 37.484 38.9874C37.3872 38.8496 37.3104 38.7402 37.2578 38.6652C37.2313 38.6277 37.2111 38.5989 37.1973 38.5792C37.1904 38.5695 37.1851 38.562 37.1816 38.5569C37.1798 38.5544 37.1785 38.5525 37.1775 38.5511L37.176 38.5491C37.176 38.5491 37.176 38.5491 34.4351 40.5618ZM34.9832 47.2984C35.3996 47.9043 35.6882 48.9863 35.7938 50.2624L42.5214 49.6813C42.384 48.0211 41.9645 45.4536 40.5091 43.3361L34.9832 47.2984ZM21.7474 60.1279L21.5498 59.8221L15.9141 63.6197L16.1117 63.9255L21.7474 60.1279ZM20.9713 55.6363C20.9713 55.6363 23.3281 40.6881 30.1378 42.1692C36.9476 43.6503 30.1378 38.1233 23.6932 40.1132C17.2486 42.1031 14.5267 53.5802 14.5267 53.5802L20.9713 55.6363ZM21.5498 59.8221C21.3692 59.5424 21.2169 59.2447 21.0954 58.9335L14.8243 61.4885C15.1156 62.2349 15.4809 62.949 15.9141 63.6197L21.5498 59.8221ZM21.0954 58.9335C20.6845 57.8815 20.6407 56.7173 20.9713 55.6363L14.5267 53.5802C13.7338 56.1729 13.8388 58.9655 14.8243 61.4885L21.0954 58.9335ZM33.2285 58.8182C32.3452 61.2094 30.194 62.8682 27.7005 63.0809L28.2625 69.9529C33.3519 69.5187 37.7428 66.1328 39.5456 61.2524L33.2285 58.8182ZM27.7005 63.0809C25.3367 63.2826 23.0536 62.1501 21.7474 60.1279L16.1117 63.9255C18.778 68.053 23.4378 70.3646 28.2625 69.9529L27.7005 63.0809ZM41.4614 56.0657C42.1107 54.308 42.7215 52.0982 42.5214 49.6813L35.7938 50.2624C35.8698 51.1805 35.6517 52.2578 35.1443 53.6315L41.4614 56.0657Z" fill="#CF3DFD"/>
<path d="M65.684 29.88V36.696H76.676V43.032H65.684V50.424H78.116V57H57.476V23.304H78.116V29.88H65.684ZM99.7648 29.928C102.901 29.928 105.397 30.952 107.253 33C109.141 35.016 110.085 37.8 110.085 41.352V57H101.925V42.456C101.925 40.664 101.461 39.272 100.533 38.28C99.6048 37.288 98.3568 36.792 96.7888 36.792C95.2208 36.792 93.9728 37.288 93.0448 38.28C92.1168 39.272 91.6528 40.664 91.6528 42.456V57H83.4448V30.216H91.6528V33.768C92.4848 32.584 93.6048 31.656 95.0128 30.984C96.4208 30.28 98.0048 29.928 99.7648 29.928ZM123.469 50.232H135.085V57H114.301V50.472L125.437 36.984H114.396V30.216H134.845V36.744L123.469 50.232Z" fill="#1D00D2"/>
</svg>
