<svg width="30" height="30" viewBox="0 0 30 30" fill="none" xmlns="http://www.w3.org/2000/svg">
<path d="M18.3749 7.87504C18.1459 8.1087 18.0176 8.42285 18.0176 8.75004C18.0176 9.07723 18.1459 9.39137 18.3749 9.62504L20.3749 11.625C20.6086 11.8541 20.9227 11.9824 21.2499 11.9824C21.5771 11.9824 21.8913 11.8541 22.1249 11.625L26.8374 6.91254C27.466 8.30152 27.6563 9.84908 27.383 11.349C27.1097 12.8489 26.3858 14.2298 25.3078 15.3079C24.2297 16.3859 22.8488 17.1098 21.3489 17.3831C19.849 17.6564 18.3014 17.4661 16.9124 16.8375L8.27494 25.475C7.77766 25.9723 7.1032 26.2517 6.39994 26.2517C5.69668 26.2517 5.02222 25.9723 4.52494 25.475C4.02766 24.9778 3.74829 24.3033 3.74829 23.6C3.74829 22.8968 4.02766 22.2223 4.52494 21.725L13.1624 13.0875C12.5339 11.6985 12.3436 10.151 12.6169 8.6511C12.8902 7.15122 13.614 5.77023 14.6921 4.69219C15.7701 3.61415 17.1511 2.89025 18.651 2.61696C20.1509 2.34368 21.6985 2.53399 23.0874 3.16254L18.3749 7.87504Z" stroke="#0300A1" stroke-width="2" stroke-linecap="round" stroke-linejoin="round"/>
</svg>
