<svg width="1440" height="1024" viewBox="0 0 1440 1024" fill="none" xmlns="http://www.w3.org/2000/svg">
<g opacity="0.3">
<path d="M257.624 608.691C251.548 603.125 245.985 597.324 241.003 591.352C230.556 578.826 222.567 565.439 217.258 551.561C211.549 536.646 208.886 521.008 209.337 505.079C210.246 473.063 222.108 444.592 233.58 417.056C235.832 411.648 238.161 406.057 240.352 400.569C255.275 363.156 264.225 326.608 267.717 288.842C274.683 213.503 261.974 132.121 230.963 53.4901C195.097 -37.4436 139.842 -116.989 75.3758 -170.494C37.4847 -201.941 -25.8831 -228.968 -73.6845 -219.78C-102.053 -214.326 -120.456 -196.293 -126.899 -167.632L-127.186 -167.749C-123.805 -182.779 -117.215 -194.914 -107.596 -203.815C-98.772 -211.981 -87.4008 -217.448 -73.7966 -220.063C-52.1591 -224.223 -25.5873 -221.136 3.04776 -211.137C29.5071 -201.896 55.2494 -187.536 75.5367 -170.698C109.273 -142.696 140.41 -107.737 168.08 -66.7886C193.162 -29.6688 214.411 10.781 231.236 53.4376C262.266 132.114 274.984 213.543 268.013 288.925C264.516 326.715 255.561 363.282 240.632 400.717C238.443 406.207 236.112 411.8 233.858 417.206C222.393 444.72 210.539 473.172 209.634 505.142C208.755 536.063 219.383 565.017 241.22 591.196C271.46 627.451 322.268 656.099 377.131 667.823C456.193 684.72 532.123 673.455 605.554 662.564C618.425 660.655 631.733 658.68 644.737 656.914C678.502 652.323 723.195 647.236 769.488 648.638C816.807 650.071 859.015 657.941 898.529 672.699C922.715 681.732 945.824 694.059 967.213 709.339C986.971 723.452 1005.91 740.549 1023.49 760.152C1053.66 793.78 1080.95 835.703 1106.92 888.315C1158.05 991.912 1203.05 1102.03 1240.67 1215.61C1276.42 1323.56 1305.84 1435.61 1328.11 1548.62L1327.82 1548.62C1281.66 1314.34 1207.25 1092.21 1106.66 888.39C1049.83 773.239 983.679 704.786 898.481 672.964C811.806 640.589 725.353 646.254 644.837 657.196C631.837 658.963 618.529 660.938 605.658 662.847C532.204 673.745 456.25 685.012 377.134 668.103C351.567 662.64 325.891 653.126 302.883 640.589C290.729 633.966 279.411 626.548 269.24 618.539C265.181 615.353 261.307 612.065 257.624 608.691Z" fill="#300CFC"/>
<path d="M273.267 603.541C257.773 589.348 245.594 573.828 237.058 557.394C227.54 539.069 222.611 519.669 222.406 499.734C222.388 497.968 222.408 496.178 222.464 494.407C223.467 462.62 234.732 434.112 245.629 406.543C247.829 400.97 250.107 395.208 252.246 389.55C264.979 355.863 273.02 323.257 276.822 289.871C277.289 285.761 277.698 281.586 278.032 277.461C284.151 202.05 270.618 120.795 238.894 42.479C202.067 -48.3443 146.019 -127.42 81.0738 -180.181C43.0908 -210.999 -20.309 -237.547 -67.9994 -228.664C-96.5566 -223.345 -115.426 -205.671 -122.575 -177.555L-122.861 -177.678C-119.114 -192.414 -112.225 -204.31 -102.384 -213.029C-93.3454 -221.037 -81.8159 -226.393 -68.1114 -228.948C-46.396 -232.994 -19.8591 -229.964 8.62478 -220.187C34.9518 -211.151 60.7341 -197.018 81.2259 -180.39C115.232 -152.763 146.714 -118.103 174.795 -77.3773C200.23 -40.4872 221.886 -0.179464 239.16 42.424C270.903 120.785 284.442 202.087 278.321 277.542C277.986 281.669 277.577 285.847 277.109 289.96C273.304 323.368 265.259 355.991 252.519 389.696C250.383 395.355 248.104 401.118 245.902 406.693C235.015 434.246 223.757 462.732 222.756 494.476C222.7 496.241 222.681 498.031 222.697 499.792C223.116 540.996 243.357 576.143 273.34 603.608C273.505 603.759 273.667 603.907 273.831 604.058C273.645 603.884 273.455 603.713 273.267 603.541ZM279.784 609.267C308.714 633.649 345.371 651.379 381.79 661.163C460.453 682.153 537.992 674.309 612.979 666.726C616.068 666.411 619.154 666.101 622.239 665.79C629.014 665.11 637.04 664.31 645.181 663.548C681.695 660.141 725.029 656.954 769.562 659.149C816.946 661.483 859.027 669.554 898.211 683.818C922.28 692.591 945.388 704.406 966.89 718.934C986.813 732.395 1006.02 748.636 1023.97 767.2C1054.99 799.273 1083.38 839.166 1110.78 889.162C1137.51 937.887 1158.04 979.512 1175.39 1020.16C1199.96 1077.76 1219.86 1136.43 1236.1 1186.24C1273.73 1302.14 1304.39 1422.7 1327.24 1544.57L1326.95 1544.56C1304.11 1422.71 1273.45 1302.16 1235.82 1186.27C1219.59 1136.47 1199.69 1077.81 1175.13 1020.22C1157.78 979.585 1137.25 937.972 1110.53 889.258C1050.85 780.344 983.368 715.146 898.163 684.087C809.704 651.88 721.242 656.747 645.267 663.836C637.124 664.595 629.102 665.396 622.326 666.078C619.242 666.387 616.154 666.699 613.065 667.014C538.054 674.6 460.487 682.446 381.768 661.442C362.276 656.204 343.23 648.781 325.158 639.374C308.339 630.614 293.109 620.506 279.784 609.267Z" fill="#300CFC"/>
<path d="M289.298 599.192C287.434 597.485 285.611 595.756 283.834 594.006C268.857 579.275 257.148 563.295 249.037 546.506C240.166 528.144 235.614 508.815 235.512 489.054C235.506 487.296 235.532 485.507 235.593 483.741C236.687 452.198 247.358 423.664 257.678 396.074C259.829 390.324 262.052 384.375 264.135 378.534C276.305 344.484 283.874 311.766 287.271 278.507C287.689 274.393 288.051 270.213 288.339 266.081C293.611 190.6 279.251 109.472 246.816 31.4707C209.029 -59.2399 152.19 -137.848 86.7642 -189.867C49.892 -219.118 -12.4736 -246.517 -62.2682 -237.555C-91.037 -232.377 -110.398 -215.059 -118.258 -187.473L-118.541 -187.604C-114.424 -202.056 -107.227 -213.712 -97.1561 -222.252C-87.8945 -230.107 -76.1937 -235.349 -62.3779 -237.836C-40.5868 -241.757 -14.0982 -238.778 14.2288 -229.221C40.4159 -220.387 66.2299 -206.482 86.9145 -190.074C121.192 -162.817 153.019 -128.46 181.508 -87.9585C207.297 -51.2939 229.359 -11.1324 247.082 31.4158C279.535 109.464 293.901 190.637 288.628 266.162C288.338 270.296 287.979 274.478 287.557 278.595C284.157 311.873 276.583 344.61 264.405 378.678C262.321 384.521 260.097 390.469 257.946 396.219C247.635 423.796 236.971 452.308 235.877 483.813C235.815 485.58 235.787 487.362 235.796 489.116C236.212 569.412 311.763 630.037 386.449 654.5C465.091 679.973 544.846 675.636 621.975 671.444L622.767 671.401C630.24 670.991 637.966 670.57 645.626 670.183C726.449 666.105 812.506 664.658 897.899 694.937C921.858 703.452 944.966 714.756 966.576 728.531C986.676 741.344 1006.15 756.726 1024.46 774.25C1056.39 804.801 1085.89 842.666 1114.65 890.012C1144.91 939.726 1165.86 979.129 1182.58 1017.78C1206.36 1072.88 1224.49 1131.6 1240.5 1183.41C1275.9 1299 1304.8 1419.15 1326.37 1540.51L1326.09 1540.49C1304.51 1419.15 1275.62 1299.01 1240.22 1183.43C1224.22 1131.63 1206.08 1072.92 1182.31 1017.84C1165.61 979.203 1144.66 939.812 1114.41 890.114C1052.06 787.488 983.254 725.553 897.856 695.2C812.519 664.942 726.499 666.387 645.705 670.464C638.045 670.852 630.317 671.275 622.846 671.682L622.054 671.725C583.618 673.814 543.875 675.974 504.542 674.393C460.34 672.616 421.7 666.195 386.414 654.764C349.593 642.702 315.401 623.102 289.298 599.192Z" fill="#300CFC"/>
<path d="M1325.23 1536.43C1304.92 1415.59 1277.79 1295.87 1244.62 1180.6C1243.2 1175.74 1241.78 1170.85 1240.36 1165.96C1225.9 1116.12 1210.96 1064.59 1189.5 1015.46C1168.65 967.839 1141.8 925.81 1118.29 890.978C1053.51 794.706 983.368 736.032 897.557 706.319C809.393 675.899 718.879 676.564 646.15 677.1C641.785 677.132 637.421 677.172 633.05 677.21C629.824 677.239 626.596 677.267 623.37 677.292C581.94 677.618 544.55 677.591 506.518 673.981C463.071 669.855 425.307 661.389 391.063 648.095C358.969 635.637 329.234 617.363 305.728 595.833C301.445 591.91 297.373 587.885 293.526 583.76C279.482 568.7 268.539 552.511 261.004 535.64C252.781 517.233 248.612 497.966 248.61 478.369C248.613 476.616 248.647 474.832 248.715 473.068C249.903 441.781 259.979 413.241 269.723 385.642C271.822 379.698 273.993 373.548 276.023 367.51C287.628 333.085 294.725 300.251 297.723 267.134C298.095 263.013 298.406 258.828 298.649 254.693C303.071 179.139 287.889 98.1406 254.745 20.4544C216 -70.1436 158.368 -148.278 92.4661 -199.561C47.3524 -234.552 -13.8918 -253.836 -56.4679 -246.459C-85.4741 -241.433 -105.342 -224.467 -113.929 -197.401L-114.21 -197.537C-109.714 -211.709 -102.205 -223.135 -91.8911 -231.497C-82.3954 -239.197 -70.5135 -244.325 -56.5759 -246.742C-34.716 -250.531 -8.27906 -247.599 19.8752 -238.26C45.9148 -229.623 71.7472 -215.955 92.6141 -199.769C127.164 -172.886 159.333 -138.832 188.231 -98.5538C214.371 -62.117 236.842 -22.0953 255.015 20.3956C288.18 98.1293 303.369 179.172 298.944 254.772C298.701 258.911 298.389 263.098 298.017 267.219C295.018 300.356 287.915 333.205 276.307 367.648C274.275 373.689 272.106 379.836 270.005 385.783C260.266 413.365 250.198 441.888 249.011 473.137C248.945 474.899 248.909 476.679 248.906 478.428C248.914 562.718 325.522 622.364 391.119 647.83C469.384 678.212 551.157 677.571 623.308 677.006C626.536 676.978 629.762 676.949 632.988 676.924C637.356 676.884 641.723 676.846 646.088 676.814C687.602 676.509 728.299 676.535 769.738 680.168C817.393 684.344 859.218 692.812 897.601 706.054C921.461 714.315 944.565 725.104 966.272 738.126C986.561 750.295 1006.31 764.821 1024.96 781.299C1057.87 810.362 1088.48 846.202 1118.53 890.861C1142.05 925.706 1168.91 967.753 1189.77 1015.4C1211.23 1064.55 1226.18 1116.09 1240.64 1165.94C1242.06 1170.84 1243.48 1175.72 1244.9 1180.59C1278.08 1295.86 1305.2 1415.59 1325.52 1536.45L1325.23 1536.43Z" fill="#300CFC"/>
<path d="M1324.37 1532.37C1304.95 1409.73 1279.6 1290.43 1249.01 1177.77C1247.18 1171.03 1245.33 1164.12 1243.54 1157.43C1230.7 1109.52 1217.42 1059.99 1196.69 1013.08C1175.94 966.288 1147.38 925.533 1122.18 891.838C1055.22 801.998 983.752 746.58 897.255 717.436C814.666 689.733 732.76 686.809 653.551 683.98L644.854 683.668C637.984 683.423 630.883 683.168 623.896 682.9C544.842 679.812 467.907 674.316 395.715 641.421C378.196 633.439 361.549 623.779 346.227 612.71C329.775 600.822 315.311 587.618 303.236 573.462C290.121 558.086 279.943 541.699 272.985 524.756C265.412 506.318 261.621 487.115 261.719 467.687C261.732 465.932 261.775 464.153 261.848 462.398C263.124 431.383 272.608 402.856 281.78 375.269C283.826 369.113 285.941 362.746 287.918 356.492C298.951 321.682 305.58 288.735 308.181 255.769C308.505 251.649 308.77 247.457 308.965 243.313C312.54 167.689 296.534 86.8198 262.678 9.44424C222.968 -81.0394 164.544 -158.706 98.161 -209.251C53.0425 -243.468 -8.13479 -262.433 -50.6087 -255.366C-79.8757 -250.498 -100.276 -233.885 -109.607 -207.324L-109.888 -207.466C-105.006 -221.365 -97.1736 -232.563 -86.6102 -240.749C-76.8707 -248.295 -64.7955 -253.309 -50.7207 -255.649C-28.7926 -259.296 -2.42245 -256.404 25.5445 -247.285C51.4285 -238.846 77.2676 -225.412 98.3026 -209.462C133.123 -182.95 165.636 -149.2 194.944 -109.144C221.438 -72.9324 244.315 -33.0568 262.939 9.38091C296.816 86.7999 312.829 167.718 309.253 243.386C309.056 247.532 308.792 251.728 308.468 255.847C305.868 288.832 299.236 321.796 288.195 356.623C286.218 362.878 284.101 369.247 282.055 375.403C272.889 402.975 263.409 431.487 262.136 462.466C262.064 464.216 262.022 465.993 262.007 467.746C261.588 550.472 330.836 611.57 395.782 641.163C467.917 674.032 544.82 679.525 623.84 682.612C630.827 682.88 637.928 683.135 644.798 683.38L653.495 683.692C692.376 685.082 732.58 686.515 773.497 691.071C819.84 696.232 860.333 704.767 897.29 717.162C921.061 725.171 944.166 735.45 965.959 747.713C986.45 759.241 1006.47 772.91 1025.46 788.339C1059.43 815.946 1091.14 849.754 1122.4 891.7C1147.62 925.412 1176.19 966.186 1196.95 1013.01C1217.7 1059.95 1230.98 1109.49 1243.82 1157.41C1245.61 1164.1 1247.46 1171.01 1249.29 1177.75C1279.88 1290.42 1305.24 1409.73 1324.66 1532.38L1324.37 1532.37Z" fill="#300CFC"/>
<path d="M1323.51 1528.3C1305.29 1405.6 1281.7 1286.71 1253.41 1174.94C1251.28 1166.54 1249.15 1157.88 1247.08 1149.51C1235.72 1103.34 1223.96 1055.6 1203.88 1010.7C1183.05 964.318 1152.86 925.024 1126.06 892.702C1057.27 809.378 984.471 757.221 896.948 728.556C820.474 703.643 744.282 697.822 670.597 692.19C662.844 691.599 654.826 690.984 647.032 690.366C637.88 689.64 630.903 689.068 624.416 688.51C589.682 685.51 548.887 681.324 509.674 673.005C468.122 664.187 432.365 651.675 400.359 634.752C383.529 625.853 367.677 615.443 353.242 603.806C337.742 591.313 324.181 577.638 312.938 563.163C300.757 547.48 291.346 530.898 284.959 513.874C278.033 495.413 274.625 476.279 274.824 457.006C274.846 455.263 274.896 453.486 274.975 451.73C276.339 421.01 285.233 392.518 293.832 364.963C295.826 358.571 297.889 351.964 299.811 345.472C310.272 310.263 316.428 277.204 318.633 244.401C318.91 240.276 319.126 236.081 319.276 231.93C322.003 156.235 305.172 75.493 270.606 -1.56974C229.937 -91.9368 170.718 -169.132 103.859 -218.94C65.7454 -247.203 5.03318 -272.184 -44.6809 -264.282C-74.2386 -259.583 -95.1962 -243.32 -105.283 -217.249L-105.558 -217.397C-100.285 -231.031 -92.1185 -242.003 -81.2877 -250.014C-71.2904 -257.408 -59.0113 -262.304 -44.7849 -264.565C-22.7971 -268.059 3.49695 -265.202 31.2626 -256.302C56.9858 -248.056 82.8164 -234.863 104.003 -219.153C139.094 -193.012 171.952 -159.564 201.667 -119.734C228.512 -83.7509 251.796 -44.0174 270.869 -1.63495C305.455 75.4712 322.296 156.26 319.567 231.998C319.418 236.149 319.201 240.35 318.922 244.477C316.715 277.297 310.555 310.373 300.091 345.6C298.17 352.096 296.107 358.703 294.113 365.095C285.516 392.635 276.63 421.113 275.267 451.798C275.189 453.553 275.139 455.326 275.118 457.067C274.4 526.293 321.255 592.625 400.454 634.502C472.177 672.426 550.404 681.834 624.382 688.221C630.87 688.78 637.843 689.349 646.996 690.075C654.79 690.693 662.807 691.308 670.561 691.9C706.836 694.672 744.344 697.538 782.309 702.826C825.24 708.802 862.755 717.131 896.989 728.284C920.688 736.046 943.789 745.81 965.654 757.31C986.364 768.202 1006.65 781.015 1025.95 795.389C1061.1 821.563 1093.91 853.345 1126.28 892.548C1153.08 924.889 1183.31 964.208 1204.15 1010.63C1224.24 1055.56 1236 1103.31 1247.37 1149.49C1249.43 1157.87 1251.57 1166.53 1253.69 1174.93C1281.99 1286.71 1305.58 1405.6 1323.81 1528.32L1323.51 1528.3Z" fill="#300CFC"/>
<path d="M1322.65 1524.24C1305.63 1401.46 1283.81 1282.99 1257.8 1172.11C1255.59 1162.68 1253.4 1152.9 1251.28 1143.44C1241.19 1098.4 1230.75 1051.82 1211.06 1008.32C1190.05 962.092 1158.27 924.368 1129.94 893.561C1060.71 817.91 984.395 767.571 896.643 739.67C826.677 717.558 756.653 709.572 688.933 701.85C675.255 700.289 661.112 698.679 647.469 696.995C639.121 695.966 631.751 695.027 624.933 694.117C593.242 689.87 551.678 683.575 511.242 672.504C470.614 661.379 435.861 646.847 404.999 628.075C371.339 607.602 342.857 581.589 322.632 552.852C311.388 536.873 302.739 520.096 296.925 502.984C290.648 484.509 287.621 465.445 287.919 446.323C287.951 444.585 288.009 442.813 288.093 441.06C289.543 410.663 297.846 382.231 305.876 354.739C307.818 348.088 309.828 341.213 311.693 334.453C321.575 298.832 327.263 265.657 329.078 233.035C329.308 228.905 329.476 224.705 329.578 220.549C331.458 144.784 313.805 64.1693 278.526 -12.5768C236.896 -102.825 176.884 -179.551 109.548 -228.625C63.8211 -261.782 4.2479 -279.695 -38.6874 -273.2C-68.5655 -268.68 -90.1014 -252.763 -100.967 -227.168L-101.239 -227.324C-95.5623 -240.699 -87.0512 -251.454 -75.9449 -259.289C-65.6799 -266.531 -53.1782 -271.307 -38.7896 -273.485C-16.7491 -276.819 9.45956 -273.992 37.0042 -265.309C62.5526 -257.254 88.3682 -244.304 109.688 -228.844C145.05 -203.074 178.253 -169.926 208.378 -130.322C235.576 -94.5646 259.267 -54.9732 278.79 -12.648C314.088 64.1435 331.752 144.803 329.872 220.616C329.769 224.772 329.599 228.974 329.37 233.108C327.552 265.748 321.862 298.939 311.977 334.577C310.112 341.337 308.1 348.214 306.158 354.865C298.132 382.343 289.833 410.761 288.385 441.129C288.301 442.881 288.244 444.648 288.212 446.386C287.134 514.83 330.834 582.662 405.111 627.84C472.826 669.025 550.77 683.897 624.908 693.833C631.723 694.741 639.094 695.684 647.439 696.71C661.08 698.393 675.224 700.007 688.9 701.566C756.634 709.29 826.672 717.275 896.671 739.4C920.32 746.918 943.42 756.173 965.333 766.904C986.289 777.169 1006.85 789.124 1026.43 802.437C1062.86 827.196 1096.78 856.95 1130.14 893.396C1158.48 924.223 1190.29 961.977 1211.32 1008.25C1231.03 1051.79 1241.47 1098.38 1251.56 1143.44C1253.68 1152.9 1255.87 1162.68 1258.08 1172.11C1284.09 1282.99 1305.91 1401.48 1322.94 1524.26L1322.65 1524.24Z" fill="#300CFC"/>
<path d="M1321.79 1520.17C1305.98 1397.33 1285.93 1279.27 1262.2 1169.28C1260.02 1159.17 1257.89 1148.64 1255.84 1138.46C1246.92 1094.18 1237.7 1048.4 1218.25 1005.94C1196.98 959.704 1163.64 923.622 1133.83 894.422C1063.73 825.426 986.045 778.441 896.338 750.787C833.336 731.493 770.013 722.109 708.775 713.031C687.718 709.912 667.828 706.963 647.909 703.627C639.804 702.272 632.46 700.997 625.455 699.725C580.274 691.499 544.483 682.691 512.819 672.001C473.095 658.591 439.347 642.041 409.647 621.402C398.126 613.394 387.279 604.727 377.249 595.54C359.47 579.254 344.248 561.332 332.335 542.539C310.777 508.529 300.243 472.563 301.026 435.639C301.069 433.894 301.134 432.128 301.224 430.388C302.755 400.34 310.469 372.009 317.931 344.608C319.821 337.666 321.777 330.491 323.588 323.431C332.889 287.383 338.103 254.093 339.535 221.667C339.718 217.532 339.839 213.327 339.894 209.166C340.926 133.33 322.448 52.8429 286.458 -23.5905C243.867 -113.718 183.065 -189.974 115.251 -238.314C68.9246 -271.161 10.8896 -288.36 -32.5971 -282.127C-62.8254 -277.796 -84.9676 -262.222 -96.6357 -237.092L-96.9069 -237.253C-90.8135 -250.375 -81.946 -260.915 -70.5485 -268.577C-59.9977 -275.668 -47.2653 -280.323 -32.6969 -282.41C-10.6124 -285.576 15.4934 -282.773 42.803 -274.305C68.1708 -266.44 93.947 -253.735 115.387 -238.533C151.019 -213.135 184.568 -180.289 215.099 -140.911C242.65 -105.377 266.745 -65.9299 286.722 -23.6616C322.731 52.817 341.22 133.349 340.189 209.231C340.132 213.394 340.011 217.599 339.829 221.738C338.398 254.182 333.181 287.49 323.875 323.552C322.064 330.611 320.109 337.79 318.217 344.731C310.759 372.118 303.047 400.437 301.518 430.459C301.43 432.197 301.362 433.961 301.321 435.704C299.856 504.656 339.387 572.259 409.781 621.176C476.791 667.742 556.403 686.87 625.448 699.44C632.45 700.71 639.793 701.986 647.898 703.342C667.815 706.676 687.703 709.626 708.759 712.746C770.008 721.822 833.343 731.211 896.369 750.513C920.003 757.798 943.101 766.541 965.027 776.498C986.262 786.142 1007.09 797.24 1026.93 809.483C1064.77 832.835 1099.79 860.56 1134.01 894.239C1163.85 923.463 1197.22 959.579 1218.52 1005.87C1237.98 1048.36 1247.2 1094.17 1256.13 1138.46C1258.18 1148.64 1260.3 1159.17 1262.48 1169.28C1286.22 1279.27 1306.27 1397.34 1322.08 1520.19L1321.79 1520.17Z" fill="#300CFC"/>
<path d="M1320.93 1516.11C1306.14 1391.46 1288.36 1277.09 1266.59 1166.45C1264.51 1155.89 1262.63 1145.33 1260.63 1134.14C1252.82 1090.41 1244.74 1045.2 1225.44 1003.56C1203.73 956.934 1167.15 921.202 1137.71 895.284C1067.44 833.101 988.387 789.472 896.031 761.907C840.536 745.458 784.545 735.462 730.394 725.796C701.935 720.715 675.057 715.915 648.345 710.258C640.413 708.582 633.094 706.969 625.973 705.333C581.855 695.163 546.402 684.41 514.393 671.491C475.543 655.811 442.8 637.243 414.293 614.726C399.646 603.156 386.186 590.479 374.287 577.047C361.688 562.826 350.838 547.743 342.037 532.221C322.531 497.816 313.141 461.73 314.13 424.959C314.181 423.219 314.255 421.458 314.35 419.722C315.957 390.067 323.086 361.874 329.978 334.61C331.818 327.335 333.72 319.813 335.477 312.415C344.19 275.924 348.935 242.523 349.985 210.302C350.118 206.16 350.192 201.95 350.204 197.788C350.388 121.882 331.087 41.5242 294.387 -34.5963C260.432 -104.766 215.503 -166.306 164.992 -212.574C150.713 -225.654 135.999 -237.505 120.948 -247.997C74.7783 -280.009 16.9307 -296.909 -26.43 -291.054C-57.036 -286.919 -79.8189 -271.688 -92.314 -247.01L-92.5825 -247.179C-86.0636 -260.058 -76.8241 -270.385 -65.1232 -277.873C-54.2767 -284.816 -41.2908 -289.346 -26.5304 -291.34C-4.41052 -294.328 21.5792 -291.545 48.6356 -283.291C74.1759 -275.501 99.2271 -263.373 121.076 -248.221C156.979 -223.194 190.872 -190.648 221.813 -151.497C249.717 -116.192 274.223 -76.8866 294.648 -34.6737C331.369 41.4902 350.683 121.895 350.5 197.847C350.49 202.011 350.417 206.225 350.282 210.369C349.231 242.606 344.484 276.023 335.768 312.532C334.011 319.93 332.111 327.454 330.27 334.73C323.379 361.983 316.253 390.164 314.646 419.795C314.553 421.529 314.479 423.29 314.427 425.027C312.58 493.786 349.036 562.849 414.449 614.518C480.641 666.801 562.268 690.364 625.987 705.053C633.108 706.689 640.425 708.3 648.355 709.979C675.061 715.637 701.938 720.433 730.393 725.513C784.55 735.182 840.552 745.177 896.066 761.632C943.615 775.825 986.582 793.783 1027.43 816.535C1066.82 838.477 1102.95 864.175 1137.89 895.091C1157.86 912.677 1173.26 928.015 1186.33 943.359C1203.21 963.17 1216.09 982.837 1225.71 1003.49C1245.03 1045.17 1253.11 1090.4 1260.92 1134.15C1262.92 1145.34 1264.81 1155.9 1266.88 1166.46C1288.66 1277.1 1306.43 1391.48 1321.23 1516.14L1320.93 1516.11Z" fill="#300CFC"/>
<path d="M1320.07 1512.04C1306.52 1387.32 1290.47 1273.35 1270.99 1163.62C1269.06 1152.76 1267.36 1141.84 1265.56 1130.27C1258.81 1086.94 1251.84 1042.14 1232.63 1001.18C1210.57 954.355 1172.39 920.449 1141.6 896.142C1072.07 840.971 991.643 800.698 895.729 773.02C848.4 759.46 800.484 749.666 754.143 740.194C717.511 732.706 682.912 725.636 648.79 716.884C641.076 714.91 633.573 712.906 626.498 710.933C583.868 699.024 547.717 685.952 515.977 670.971C477.972 653.032 446.232 632.45 418.944 608.045C405.061 595.627 392.396 582.19 381.313 568.112C369.696 553.353 359.749 537.803 351.75 521.893C334.29 487.164 326.042 450.955 327.237 414.27C327.299 412.542 327.379 410.783 327.481 409.044C329.161 379.834 335.703 351.838 342.029 324.763C343.819 317.103 345.67 309.179 347.373 301.387C355.494 264.438 359.768 230.925 360.443 198.928C360.529 194.781 360.555 190.566 360.521 186.399C359.857 110.422 339.731 30.1917 302.32 -45.6159C257.806 -135.499 195.416 -210.817 126.648 -257.693C80.6821 -288.86 23.0534 -305.465 -20.1643 -299.998C-51.1843 -296.072 -74.6359 -281.182 -87.9899 -256.939L-88.2532 -257.114C-81.2933 -269.752 -71.6684 -279.873 -59.6442 -287.19C-48.4816 -293.982 -35.2323 -298.39 -20.2606 -300.284C1.87953 -303.086 27.7396 -300.317 54.5249 -292.277C79.8589 -284.672 104.842 -272.792 126.778 -257.919C162.952 -233.258 197.191 -201.019 228.538 -162.093C256.791 -127.01 281.702 -87.8493 302.579 -45.6954C340.014 30.1559 360.15 110.433 360.812 186.453C360.849 190.622 360.823 194.842 360.736 198.991C360.061 231.005 355.783 264.533 347.661 301.498C345.96 309.292 344.107 317.214 342.317 324.878C335.994 351.941 329.454 379.925 327.775 409.115C327.675 410.852 327.594 412.611 327.532 414.335C325.255 484.268 357.776 552.996 419.116 607.848C468.884 652.359 534.79 685.024 626.522 710.652C633.595 712.624 641.093 714.626 648.807 716.601C682.921 725.348 717.517 732.422 754.144 739.906C800.491 749.38 848.415 759.175 895.757 772.739C944.116 786.693 987.345 803.323 1027.92 823.575C1069.02 844.093 1106.26 867.759 1141.75 895.928C1172.58 920.26 1210.8 954.208 1232.89 1001.1C1252.13 1042.11 1259.11 1086.94 1265.85 1130.29C1267.65 1141.85 1269.35 1152.77 1271.28 1163.62C1290.76 1273.36 1306.82 1387.34 1320.36 1512.07L1320.07 1512.04Z" fill="#300CFC"/>
<path d="M1319.21 1507.98C1306.92 1383.19 1292.59 1269.62 1275.38 1160.79C1273.64 1149.74 1272.15 1138.56 1270.59 1126.73C1264.89 1083.7 1258.99 1039.2 1239.81 998.801C1217.37 951.725 1177.61 919.67 1145.48 897.003C1077 848.442 997.542 812.58 895.425 784.138C857.071 773.531 818.127 764.763 780.466 756.283C734.725 745.983 691.519 736.256 649.229 723.515C641.607 721.222 634.134 718.876 627.019 716.539C585.132 702.772 549.327 687.698 517.561 670.452C499.768 660.793 483.071 650.309 467.935 639.292C451.791 627.54 436.871 614.781 423.59 601.37C396.646 574.16 375.742 543.946 361.462 511.57C346.04 476.604 338.934 440.276 340.346 403.591C340.419 401.86 340.508 400.105 340.61 398.376C342.355 369.68 348.31 341.952 354.07 315.141C355.812 307.024 357.616 298.632 359.266 290.37C366.786 252.944 370.589 219.316 370.895 187.562C370.935 183.408 370.913 179.185 370.831 175.018C369.322 98.969 348.372 18.8678 310.248 -56.6233C264.772 -146.382 201.591 -221.228 132.345 -267.378C58.0568 -316.635 -45.6518 -330.443 -83.6655 -266.858L-83.926 -267.041C-74.4175 -282.948 -60.726 -294.657 -43.2311 -301.85C-27.2539 -308.419 -8.42692 -311.129 12.7243 -309.902C32.3905 -308.762 53.1578 -304.307 74.4466 -296.666C94.694 -289.398 114.76 -279.35 132.469 -267.608C168.915 -243.318 203.497 -211.379 235.253 -172.678C263.858 -137.819 289.176 -98.7997 310.503 -56.7031C348.646 18.8332 369.609 98.9814 371.121 175.074C371.203 179.246 371.226 183.468 371.186 187.626C370.88 219.395 367.073 253.041 359.552 290.483C357.902 298.744 356.098 307.136 354.354 315.255C348.597 342.059 342.645 369.774 340.901 398.455C340.797 400.182 340.705 401.934 340.634 403.663C337.924 474.167 367.453 544.317 423.776 601.196C471.461 649.345 537.952 686.988 627.053 716.271C634.165 718.606 641.635 720.951 649.256 723.244C691.536 735.983 734.735 745.707 780.47 756.005C818.135 764.485 857.083 773.253 895.443 783.862C997.603 812.316 1077.09 848.196 1145.62 896.781C1167.21 912.013 1183.93 925.878 1198.25 940.425C1216.56 959.019 1230.24 978.087 1240.07 998.725C1259.27 1039.17 1265.17 1083.69 1270.88 1126.75C1272.44 1138.58 1273.92 1149.76 1275.67 1160.8C1292.87 1269.64 1307.21 1383.21 1319.5 1508.01L1319.21 1507.98Z" fill="#300CFC"/>
<path d="M1318.35 1503.92C1307.33 1379.05 1294.71 1265.89 1279.78 1157.96C1278.23 1146.79 1276.99 1135.44 1275.68 1123.42C1271.01 1080.6 1266.18 1036.32 1247 996.419C1223.9 948.512 1180.22 917.227 1149.37 897.862C1065.8 845.141 973.95 816.406 895.122 795.257C866.753 787.696 837.889 780.774 809.972 774.077C753.973 760.644 701.081 747.957 649.672 730.149C642.11 727.531 634.666 724.841 627.542 722.152C586.281 706.541 550.825 689.463 519.153 669.938C483.247 647.806 452.661 622.494 428.241 594.7C403.155 566.145 383.956 534.703 371.182 501.248C357.783 466.16 351.819 429.712 353.452 392.914C353.534 391.191 353.63 389.439 353.74 387.71C355.54 359.62 360.909 332.267 366.1 305.812C367.803 297.144 369.56 288.18 371.16 279.355C378.172 240.907 381.408 208.129 381.352 176.2C381.345 172.041 381.275 167.817 381.146 163.64C378.783 87.5191 357.008 7.54502 318.175 -67.6351C271.736 -157.267 207.764 -231.646 138.04 -277.067C62.8578 -325.815 -39.0089 -339.038 -79.3438 -276.78L-79.599 -276.969C-69.5916 -292.414 -55.5761 -303.803 -37.945 -310.818C-21.7882 -317.244 -2.8991 -319.918 18.199 -318.76C37.8741 -317.682 58.6245 -313.351 79.8797 -305.89C100.118 -298.786 120.273 -288.897 138.165 -277.297C174.883 -253.376 209.808 -221.74 241.971 -183.267C270.928 -148.631 296.653 -109.754 318.432 -67.7167C357.289 7.50705 379.075 87.5259 381.434 163.689C381.562 167.868 381.632 172.095 381.642 176.256C381.7 208.202 378.459 240.995 371.445 279.459C369.845 288.285 368.086 297.25 366.384 305.919C361.195 332.366 355.829 359.711 354.026 387.785C353.917 389.514 353.82 391.261 353.738 392.984C350.564 464.517 377.094 536.097 428.441 594.538C474.492 646.953 539.635 688.606 627.592 721.884C634.712 724.574 642.154 727.266 649.711 729.879C701.107 747.682 753.991 760.369 809.982 773.797C837.898 780.494 866.766 787.417 895.14 794.978C948.146 809.202 990.65 822.772 1028.89 837.679C1073.92 855.229 1113.36 874.837 1149.49 897.627C1171.55 911.477 1189.45 924.995 1204.22 938.96C1223.23 956.939 1237.31 975.709 1247.26 996.344C1266.46 1036.3 1271.3 1080.6 1275.97 1123.45C1277.28 1135.47 1278.52 1146.81 1280.07 1157.98C1295 1265.91 1307.62 1379.08 1318.64 1503.95L1318.35 1503.92Z" fill="#300CFC"/>
<path d="M1317.49 1499.85C1307.75 1374.91 1296.85 1262.15 1284.18 1155.12C1282.85 1143.9 1281.86 1132.43 1280.82 1120.29C1277.16 1077.62 1273.38 1033.5 1254.19 994.04C1230.66 945.801 1185.32 916.537 1153.26 898.722C1074.21 854.591 989.448 830.79 894.82 806.375C877.733 801.994 860.334 797.69 843.505 793.529C778.784 777.522 711.863 760.971 650.113 736.779C642.61 733.843 635.19 730.806 628.063 727.755C587.891 710.545 551.784 690.916 520.744 669.414C485.58 645.056 456.023 617.673 432.885 588.02C409.644 558.234 392.154 525.564 380.898 490.916C369.507 455.852 364.679 419.283 366.548 382.227C366.639 380.509 366.744 378.762 366.858 377.037C368.704 349.685 373.482 322.841 378.102 296.882C379.767 287.528 381.488 277.857 383.04 268.334C389.431 229.362 392.211 196.473 391.792 164.83C391.737 160.676 391.62 156.444 391.445 152.256C388.246 76.0648 365.65 -3.77768 326.101 -78.6474C278.701 -168.151 213.938 -242.058 143.734 -286.757C70.3345 -333.299 -31.2773 -349.098 -75.024 -286.706L-75.274 -286.901C-64.766 -301.888 -50.4282 -312.953 -32.6609 -319.792C-16.3251 -326.078 2.62677 -328.712 23.6694 -327.626C62.4913 -325.619 106.297 -310.808 143.854 -286.991C180.841 -263.44 216.112 -232.105 248.686 -193.858C277.993 -159.445 304.124 -120.714 326.354 -78.7353C365.926 -3.82406 388.533 76.0673 391.74 152.301C391.916 156.493 392.034 160.725 392.089 164.883C392.507 196.542 389.726 229.445 383.332 268.431C381.778 277.956 380.059 287.629 378.394 296.982C373.775 322.936 368.999 349.774 367.152 377.112C367.036 378.835 366.933 380.58 366.841 382.298C363.102 456.436 386.015 527.523 433.102 587.874C476.703 643.756 542.316 690.729 628.124 727.491C635.248 730.539 642.661 733.574 650.161 736.51C711.889 760.692 778.802 777.242 843.51 793.245C860.339 797.406 877.738 801.71 894.828 806.093C936.25 816.78 984.224 829.462 1029.38 844.726C1076.62 860.694 1117.17 878.275 1153.35 898.476C1176.17 911.154 1194.75 923.918 1210.17 937.494C1229.62 954.614 1244.51 973.61 1254.44 993.96C1263.04 1011.64 1269.32 1032.02 1273.64 1056.28C1277.46 1077.69 1279.31 1099.36 1281.11 1120.32C1282.15 1132.46 1283.13 1143.93 1284.46 1155.15C1297.14 1262.18 1308.04 1374.94 1317.78 1499.89L1317.49 1499.85Z" fill="#300CFC"/>
<path d="M1316.63 1495.78C1308.17 1370.77 1299 1258.42 1288.57 1152.29C1287.46 1141.05 1286.75 1129.51 1285.99 1117.29C1283.34 1074.74 1280.61 1030.73 1261.38 991.661C1243.37 955.182 1209.28 925.062 1157.14 899.581C1084.33 863.86 1007.24 845.042 925.614 825.121C915.449 822.641 904.942 820.076 894.511 817.495C890.424 816.488 886.33 815.482 882.241 814.477C804.567 795.386 724.248 775.647 650.551 743.412C643.1 740.155 635.708 736.775 628.583 733.365C588.851 714.334 553.106 692.644 522.345 668.898C487.901 642.305 459.365 612.849 437.538 581.35C416.117 550.436 400.335 516.538 390.63 480.597C381.223 445.761 377.531 409.075 379.658 371.553C379.758 369.84 379.871 368.097 379.992 366.375C381.864 339.957 386.05 313.83 390.094 288.561C391.734 278.328 393.427 267.745 394.94 257.32C400.699 217.801 403.026 184.803 402.255 153.47C402.152 149.307 401.988 145.073 401.765 140.88C397.71 64.6143 374.29 -15.1029 334.029 -89.6579C285.67 -179.029 220.112 -252.47 149.431 -296.445C76.7902 -341.488 -25.0475 -356.862 -70.7006 -296.627L-70.9495 -296.827C-59.9367 -311.355 -45.2791 -322.1 -27.379 -328.758C-10.8618 -334.902 8.15389 -337.502 29.14 -336.481C67.9025 -334.598 111.787 -320.091 149.545 -296.678C186.806 -273.495 222.42 -242.465 255.4 -204.444C285.06 -170.256 311.6 -131.665 334.283 -89.7458C374.565 -15.1474 398.002 64.617 402.054 140.919C402.277 145.112 402.442 149.353 402.545 153.516C403.315 184.865 400.992 217.877 395.229 257.411C393.718 267.838 392.021 278.421 390.384 288.655C386.338 313.916 382.155 340.04 380.284 366.448C380.163 368.17 380.049 369.908 379.949 371.622C375.626 447.917 395.62 520.392 437.771 581.219C479.379 641.264 543.605 692.365 628.665 733.106C635.785 736.512 643.173 739.891 650.62 743.148C724.291 775.373 804.595 795.11 882.255 814.193C886.348 815.199 890.437 816.204 894.525 817.211C904.955 819.793 915.462 822.357 925.625 824.84C1007.27 844.766 1084.38 863.589 1157.22 899.326C1180.78 910.837 1200.05 922.846 1216.14 936.033C1236.28 952.539 1251.59 971.229 1261.64 991.582C1270.25 1009.08 1276.33 1029.35 1280.22 1053.53C1283.64 1074.87 1284.98 1096.46 1286.28 1117.33C1287.04 1129.55 1287.76 1141.09 1288.86 1152.32C1299.29 1258.45 1308.47 1370.81 1316.92 1495.83L1316.63 1495.78Z" fill="#300CFC"/>
<path d="M1315.77 1491.72C1309.17 1376.4 1301.5 1261.25 1292.96 1149.46C1292.06 1138.11 1291.61 1126.39 1291.13 1113.98C1289.56 1073.62 1287.79 1027.87 1268.56 989.282C1250.22 952.522 1215.04 923.463 1161.03 900.438C1096.85 873.005 1030.93 858.709 961.124 843.571C939.266 838.83 916.659 833.93 894.205 828.608C854.983 819.352 812.867 808.996 770.652 796.031C725.44 782.147 686.298 767.101 650.986 750.036C643.567 746.45 636.204 742.728 629.1 738.965C589.8 718.14 554.437 694.382 523.992 668.351C490.29 639.532 462.764 608.016 442.182 574.667C404.34 512.903 387.709 440.97 392.755 360.865C392.864 359.156 392.986 357.418 393.112 355.7C394.981 330.522 398.562 305.433 402.026 281.17C403.656 269.749 405.344 257.94 406.822 246.298C411.946 206.207 413.814 173.098 412.699 142.101C412.549 137.929 412.337 133.69 412.068 129.496C407.176 53.1627 382.929 -26.4254 341.958 -100.668C292.637 -189.91 226.287 -262.878 155.128 -306.132C81.4561 -350.805 -18.2875 -365.294 -66.3798 -306.548L-66.6218 -306.756C-55.1025 -320.828 -40.1203 -331.247 -22.0922 -337.728C-5.38953 -343.73 13.6882 -346.294 34.6132 -345.344C54.3268 -344.449 75.035 -340.487 96.1624 -333.571C116.673 -326.855 136.549 -317.704 155.239 -306.371C192.771 -283.556 228.731 -252.828 262.118 -215.035C292.128 -181.067 319.074 -142.622 342.208 -100.762C383.204 -26.4758 407.464 53.1592 412.363 129.533C412.63 133.729 412.844 137.974 412.995 142.146C414.108 173.158 412.241 206.282 407.117 246.387C405.637 258.031 403.949 269.84 402.318 281.262C398.855 305.524 395.273 330.609 393.405 355.777C393.275 357.495 393.157 359.233 393.046 360.94C388.004 440.983 404.617 512.855 442.424 574.558C481.538 637.931 546.121 694.697 629.193 738.716C636.293 742.476 643.654 746.2 651.066 749.783C730.016 787.939 814.473 809.508 894.213 828.327C916.667 833.648 939.269 838.548 961.127 843.289C1030.94 858.43 1096.89 872.729 1161.09 900.176C1215.19 923.236 1250.43 952.356 1268.82 989.2C1277.43 1006.48 1283.29 1026.58 1286.74 1050.63C1289.79 1071.84 1290.61 1093.29 1291.42 1114.03C1291.9 1126.44 1292.36 1138.16 1293.26 1149.5C1301.79 1261.29 1309.46 1376.44 1316.06 1491.77L1315.77 1491.72Z" fill="#300CFC"/>
<path d="M1314.91 1487.66C1309.54 1372.86 1303.64 1258.13 1297.36 1146.63C1296.71 1135.39 1296.54 1123.73 1296.35 1111.38C1295.76 1071 1295.08 1025.22 1275.75 986.898C1257.05 949.847 1220.79 921.845 1164.91 901.29C1106.39 879.728 1044.75 868.512 985.139 857.668C955.249 852.23 924.339 846.606 893.902 839.721C845.845 828.872 806.709 818.328 770.733 806.536C726.373 791.996 687.346 775.682 651.428 756.664C644.054 752.76 636.717 748.69 629.622 744.566C592.659 723.078 559.294 698.776 530.358 672.273C528.75 670.8 527.162 669.325 525.583 667.84C492.532 636.758 466.038 603.162 446.834 567.987C437.588 550.983 429.767 532.986 423.591 514.495C417.785 497.115 413.252 478.756 410.117 459.928C404.475 426.054 403.082 390.152 405.859 350.179C405.98 348.461 406.106 346.743 406.239 345.026C408.058 321.606 411.019 298.095 413.884 275.359C415.536 262.234 417.248 248.663 418.716 235.272C423.25 194.026 424.622 161.783 423.153 130.726C422.955 126.549 422.696 122.305 422.379 118.106C416.639 41.7082 391.568 -37.7505 349.887 -111.68C299.607 -200.79 232.463 -273.288 160.826 -315.822C87.9603 -359.03 -11.9945 -373.127 -62.0538 -316.472L-62.2906 -316.686C-38.9738 -343.075 -3.57003 -356.048 40.0905 -354.203C59.8252 -353.369 80.5165 -349.53 101.598 -342.795C122.11 -336.241 142.074 -327.247 160.937 -316.061C198.74 -293.616 235.044 -263.189 268.839 -225.624C299.199 -191.878 326.551 -153.575 350.137 -111.778C391.844 -37.8009 416.927 41.7047 422.673 118.149C422.988 122.35 423.249 126.6 423.447 130.777C424.915 161.85 423.546 194.105 419.007 235.364C417.537 248.757 415.828 262.331 414.174 275.454C411.31 298.188 408.349 321.694 406.531 345.108C406.397 346.826 406.27 348.542 406.15 350.258C400.248 435.199 413.638 506.39 447.085 567.897C493.526 652.964 572.039 710.795 629.727 744.329C636.817 748.448 644.148 752.516 651.52 756.417C734.131 800.156 824.45 823.763 893.906 839.443C924.338 846.33 955.245 851.951 985.131 857.389C1044.76 868.238 1106.41 879.453 1164.96 901.026C1189.96 910.224 1210.61 920.717 1228.07 933.106C1249.6 948.384 1265.73 966.456 1276 986.82C1284.66 1003.98 1290.34 1024.02 1293.36 1048.09C1296.02 1069.3 1296.34 1090.72 1296.64 1111.45C1296.83 1123.79 1297 1135.45 1297.65 1146.68C1303.93 1258.17 1309.83 1372.91 1315.2 1487.71L1314.91 1487.66Z" fill="#300CFC"/>
<path d="M1314.05 1483.59L1301.75 1143.8C1301.35 1132.7 1301.46 1121.13 1301.58 1108.87C1301.95 1068.44 1302.38 1022.61 1282.94 984.521C1264.14 947.691 1225.74 919.978 1168.8 902.152C1114.06 885.013 1057.27 876.88 1002.35 869.014C966.548 863.887 929.53 858.584 893.596 850.844C785.589 827.58 701.876 795.591 630.144 750.178C600.388 731.337 573.059 710.539 548.602 688.136C541.189 681.346 534.044 674.412 527.172 667.337C494.758 633.974 469.293 598.301 451.484 561.316C434.981 527.035 424.625 490.498 419.835 449.621C416.009 416.979 415.731 381.987 418.963 339.503C420.667 317.081 423.162 294.447 425.574 272.559C431.031 223.025 436.675 171.805 433.609 119.367C428.903 38.937 402.693 -44.7656 357.813 -122.692C306.574 -211.666 238.638 -283.696 166.523 -325.51C96.7036 -365.993 -3.25279 -383.539 -57.7328 -326.395L-57.9644 -326.614C-33.6125 -352.156 2.18742 -364.759 45.5645 -363.062C84.785 -361.528 127.78 -348.277 166.63 -325.749C204.704 -303.672 241.354 -273.546 275.555 -236.212C306.266 -202.689 334.024 -164.527 358.062 -122.789C380.269 -84.2296 398.033 -43.9774 410.863 -3.14691C423.799 38.0248 431.552 79.2583 433.902 119.406C436.972 171.864 431.328 223.098 425.868 272.644C423.458 294.53 420.964 317.162 419.259 339.58C414.542 401.567 413.975 482.781 451.75 561.239C495.072 651.215 572.739 713.518 630.266 749.941C701.96 795.334 785.637 827.307 893.601 850.56C929.521 858.297 966.536 863.598 1002.33 868.726C1057.26 876.595 1114.07 884.731 1168.83 901.877C1225.87 919.734 1264.35 947.512 1283.2 984.438C1291.9 1001.49 1297.39 1021.49 1299.98 1045.59C1302.26 1066.81 1302.06 1088.22 1301.87 1108.94C1301.76 1121.19 1301.65 1132.76 1302.05 1143.85L1314.34 1483.64L1314.05 1483.59Z" fill="#300CFC"/>
<path d="M1325.21 1468.56C1325.97 1377.79 1324.51 1302.21 1320.6 1230.74C1318.71 1196.03 1316.18 1161.25 1313.06 1127.36C1312.12 1117.1 1311.53 1106.57 1310.91 1095.43C1309.34 1067.41 1307.72 1038.43 1300.25 1011.2C1296.26 996.569 1291.06 983.953 1284.37 972.636C1263.91 937.809 1225.21 912.992 1169.34 898.878C1140.44 891.557 1111.95 887.261 1087.9 884.023C1062.44 880.595 1036.17 878.472 1010.76 876.417C974.242 873.467 936.481 870.415 899.283 863.426C876.625 859.201 854.645 853.838 833.952 847.486C792.552 834.778 751.247 817.719 711.185 796.783C686.486 783.789 662.862 769.429 640.975 754.102C622.118 740.884 604.085 726.706 587.373 711.959C562.361 689.888 539.998 666.194 520.912 641.528C500.618 615.302 483.885 587.784 471.18 559.738C459.852 534.73 451.443 508.605 445.478 479.87C434.343 426.344 433.203 375.202 433.455 336.626C433.623 317.628 434.201 298.625 434.759 280.248C436.371 227.328 437.892 177.343 430.567 124.868C424.471 82.2036 412.382 39.13 394.631 -3.16563C380.99 -35.6687 363.465 -68.0847 342.546 -99.5131C337.562 -106.997 332.356 -114.485 327.076 -121.76C304.333 -153.071 276.254 -185.616 243.62 -218.489C210.754 -251.669 179.669 -277.483 148.59 -297.396C131.039 -308.674 112.6 -318.034 93.7816 -325.225C27.3439 -350.608 -33.6336 -346.913 -69.3348 -315.338L-69.6096 -315.628C-60.0922 -324.046 -48.8015 -330.581 -36.05 -335.059C-23.9372 -339.311 -10.4275 -341.738 4.10312 -342.273C31.5549 -343.28 62.5891 -337.5 93.8481 -325.557C112.696 -318.357 131.164 -308.98 148.742 -297.684C179.852 -277.75 210.963 -251.916 243.856 -218.708C276.508 -185.818 304.6 -153.254 327.358 -121.922C332.644 -114.639 337.852 -107.149 342.84 -99.6585C363.776 -68.2069 381.315 -35.764 394.966 -3.23422C412.73 39.0903 424.829 82.2005 430.924 124.889C438.254 177.396 436.731 227.393 435.121 280.33C434.56 298.704 433.984 317.705 433.816 336.699C433.563 375.257 434.704 426.376 445.833 479.869C451.792 508.574 460.19 534.671 471.506 559.651C496.372 614.539 535.423 665.7 587.581 711.713C604.278 726.449 622.299 740.616 641.14 753.822C663.014 769.136 686.62 783.487 711.299 796.47C751.337 817.394 792.616 834.444 833.99 847.142C854.669 853.491 876.636 858.849 899.276 863.071C936.453 870.055 974.205 873.106 1010.71 876.056C1036.12 878.111 1062.4 880.232 1087.87 883.663C1111.94 886.901 1140.44 891.203 1169.36 898.529C1194.23 904.813 1216.04 913.386 1234.17 924.013C1256.45 937.066 1273.44 953.383 1284.68 972.509C1291.39 983.862 1296.6 996.513 1300.61 1011.18C1308.08 1038.45 1309.7 1067.44 1311.27 1095.48C1311.9 1106.63 1312.49 1117.16 1313.43 1127.4C1316.54 1161.3 1319.08 1196.09 1320.96 1230.8C1324.87 1302.28 1326.34 1377.86 1325.58 1468.64L1325.21 1468.56Z" fill="#300CFC"/>
<path d="M1336.38 1453.53C1341.17 1364.9 1340.96 1286.86 1335.73 1214.96C1333.2 1179.87 1329.38 1144.86 1324.38 1110.91C1323.05 1101.91 1321.94 1092.8 1320.77 1083.15C1317.25 1054.26 1313.6 1024.39 1303.87 997.112C1298.97 983.316 1293.07 971.424 1285.81 960.749C1258.02 919.87 1207.44 902.759 1169.89 895.6C1143.31 890.497 1116.96 888.111 1090.06 885.924C1066.51 884.01 1043.03 883.651 1018.18 883.269C981.29 882.706 943.145 882.122 904.974 876.006C882.277 872.427 860.125 867.017 839.132 859.925C800.027 846.717 760.792 828.337 719.183 803.738C695.899 789.97 673.227 774.589 651.8 758.019C633.735 744.021 616.518 729.161 600.627 713.843C576.979 691.061 555.827 666.65 537.753 641.284C518.772 614.644 502.999 586.673 490.872 558.151C480.246 533.164 472.077 506.754 465.896 477.415C454.64 424.164 450.387 372.663 447.943 333.746C447.038 319.34 446.297 305 445.581 291.129C442.729 235.89 440.038 183.712 427.525 130.37C418.174 90.5036 403.355 50.4624 383.483 11.3644C368.447 -18.2188 350.064 -46.9036 327.287 -76.327C322.028 -83.1157 316.564 -89.8976 311.05 -96.4825C286.812 -125.387 258.644 -153.725 224.342 -187.768C199.663 -212.36 166.714 -243.849 130.654 -269.292C113.61 -281.378 95.7814 -291.584 77.6642 -299.635C13.8733 -327.974 -45.4163 -329.713 -80.9415 -304.286L-81.2461 -304.652C-71.8266 -311.395 -60.7445 -316.32 -48.3116 -319.299C-36.4633 -322.134 -23.3161 -323.217 -9.23233 -322.523C17.5286 -321.2 47.6133 -313.421 77.7686 -300.023C95.9204 -291.958 113.782 -281.731 130.856 -269.625C166.951 -244.161 199.925 -212.645 224.62 -188.038C258.933 -153.984 287.111 -125.638 311.366 -96.7145C316.884 -90.1234 322.352 -83.3372 327.617 -76.542C350.416 -47.0893 368.817 -18.3773 383.87 11.2391C403.762 50.3764 418.595 90.4505 427.956 130.358C440.477 183.738 443.173 235.934 446.024 291.193C446.739 305.061 447.48 319.4 448.386 333.805C450.833 372.709 455.083 424.19 466.33 477.413C472.503 506.72 480.663 533.101 491.277 558.059C515.122 614.141 552.008 666.463 600.902 713.566C616.78 728.869 633.98 743.717 652.028 757.699C673.434 774.254 696.086 789.624 719.35 803.376C760.924 827.957 800.126 846.321 839.197 859.519C860.164 866.601 882.287 872.005 904.96 875.578C943.097 881.688 981.226 882.271 1018.1 882.838C1042.96 883.218 1066.44 883.577 1090.01 885.494C1116.92 887.68 1143.29 890.069 1169.89 895.176C1194.23 899.815 1215.89 906.956 1234.27 916.395C1256.56 927.841 1274.02 942.703 1286.17 960.566C1293.45 971.281 1299.38 983.214 1304.29 997.05C1314.04 1024.38 1317.68 1054.28 1321.21 1083.19C1322.38 1092.83 1323.49 1101.94 1324.82 1110.94C1329.82 1144.9 1333.64 1179.92 1336.17 1215.02C1341.4 1286.94 1341.62 1364.99 1336.82 1453.64L1336.38 1453.53Z" fill="#300CFC"/>
<path d="M1347.54 1438.49C1356.4 1350.77 1357.48 1272.5 1350.85 1199.18C1347.68 1163.7 1342.58 1128.47 1335.69 1094.48C1334.22 1087.21 1332.8 1079.63 1331.42 1072.29C1325.74 1042.01 1319.88 1010.69 1307.48 983.028C1301.69 970.016 1295.07 958.841 1287.25 948.868C1257.22 910.586 1207.15 896.989 1170.44 892.322C1145.59 889.116 1120.75 888.517 1096.72 887.937L1092.22 887.829C1070.4 887.294 1048.41 888.471 1025.12 889.718C988.028 891.702 949.681 893.754 910.665 888.585C887.898 885.649 865.573 880.191 844.308 872.363C807.232 858.715 770.009 839.115 727.175 810.687C705.025 795.986 683.306 779.584 662.621 761.93C645.351 747.15 628.95 731.605 613.874 715.719C568.217 667.639 533.458 614.091 510.559 556.56C500.661 531.689 492.728 504.999 486.314 474.96C475.417 424.172 468.538 375.929 462.43 330.87C461.61 324.829 460.81 318.841 460.014 312.899C451.759 251.26 443.965 193.041 424.485 135.884C411.768 98.5686 394.219 61.5639 372.331 25.8985C356.261 -0.285227 336.533 -26.139 312.027 -53.1365C306.5 -59.2176 300.781 -65.2951 295.025 -71.2007C280.53 -86.0427 264.457 -101.02 247.439 -116.877C233.77 -129.613 219.636 -142.782 205.057 -157.045C176.973 -184.672 145.142 -215.982 112.707 -241.186C95.9714 -254.189 78.7554 -265.244 61.5346 -274.041C0.418147 -305.263 -57.1894 -312.434 -92.5655 -293.224L-92.8813 -293.676C-83.555 -298.742 -72.6839 -302.059 -60.5713 -303.536C-48.9886 -304.949 -36.2028 -304.694 -22.5706 -302.775C3.502 -299.106 32.6383 -289.319 61.6859 -274.48C78.9459 -265.664 96.1976 -254.587 112.966 -241.558C145.433 -216.328 177.278 -185.001 205.374 -157.363C219.946 -143.111 234.077 -129.94 247.742 -117.208C264.767 -101.344 280.845 -86.3628 295.352 -71.5061C301.111 -65.5943 306.838 -59.5103 312.369 -53.4249C336.907 -26.3954 356.657 -0.510084 372.749 25.7111C394.664 61.4182 412.231 98.4642 424.962 135.82C444.46 193.029 452.259 251.277 460.516 312.941C461.311 318.883 462.115 324.871 462.932 330.912C469.039 375.963 475.913 424.192 486.808 474.963C493.216 504.97 501.139 531.634 511.027 556.474C533.894 613.931 568.61 667.408 614.207 715.426C629.266 731.293 645.651 746.823 662.902 761.585C683.566 779.22 705.264 795.607 727.389 810.292C770.181 838.691 807.359 858.269 844.387 871.9C865.606 879.711 887.89 885.158 910.617 888.09C949.584 893.252 987.909 891.2 1024.97 889.216C1048.28 887.968 1070.28 886.792 1092.11 887.328L1096.61 887.436C1120.66 888.016 1145.52 888.615 1170.39 891.825C1207.22 896.505 1257.46 910.161 1287.62 948.62C1295.48 958.639 1302.13 969.856 1307.94 982.917C1320.36 1010.64 1326.24 1041.99 1331.92 1072.31C1333.29 1079.64 1334.71 1087.22 1336.18 1094.49C1343.07 1128.5 1348.18 1163.75 1351.35 1199.25C1357.99 1272.59 1356.9 1350.89 1348.04 1438.64L1347.54 1438.49Z" fill="#300CFC"/>
<path d="M1358.71 1423.45C1371.47 1337.86 1373.92 1257.1 1365.98 1183.41C1362.16 1147.54 1355.78 1112.09 1347 1078.05C1345.74 1073.13 1344.46 1068.07 1343.23 1063.17C1335.1 1030.81 1326.69 997.355 1311.11 968.958C1304.45 956.733 1297.12 946.282 1288.7 936.998C1256.4 901.391 1206.87 891.27 1171 889.048C1148.77 887.616 1126.73 888.478 1105.42 889.313C1101.74 889.459 1098.05 889.601 1094.37 889.733C1074.16 890.46 1053.52 893.046 1031.67 895.782C994.524 900.434 956.111 905.243 916.355 901.17C893.008 898.777 871.135 893.424 849.479 884.806C804.184 866.78 766.272 840.737 735.159 817.642C714.118 802.02 693.351 784.597 673.436 765.847C656.97 750.294 641.386 734.06 627.117 717.603C584.799 668.819 552.206 614.104 530.246 554.978C521.107 530.378 513.415 503.405 506.728 472.513C499.943 441.341 493.998 411.881 488.247 383.388C484.341 364.024 480.649 345.733 476.917 328.009C462.81 261.013 448.898 200.728 421.449 141.411C405.37 106.667 385.095 72.6951 361.185 40.44C344.049 17.3214 323.58 -5.04197 296.775 -29.9404C290.986 -35.3056 285.007 -40.6809 279.007 -45.9135C269.878 -53.8476 260.209 -61.8104 249.975 -70.236C230.335 -86.4072 208.071 -104.739 185.771 -126.321C177.279 -134.541 168.702 -143.02 160.408 -151.223C139.073 -172.321 117.012 -194.135 94.7588 -213.083C78.4155 -226.997 61.8076 -238.899 45.401 -248.453C-13.0089 -282.464 -68.9337 -295.063 -104.201 -282.16L-104.502 -282.703C-95.2677 -286.083 -84.6092 -287.79 -72.8229 -287.778C-61.5035 -287.767 -49.0808 -286.171 -35.9055 -283.036C-10.5175 -276.996 17.6681 -265.204 45.6084 -248.934C62.0548 -239.357 78.7008 -227.431 95.0794 -213.485C117.358 -194.518 139.427 -172.692 160.773 -151.584C169.065 -143.383 177.642 -134.904 186.131 -126.686C208.41 -105.124 230.656 -86.8051 250.286 -70.6425C260.526 -62.2126 270.197 -54.2476 279.335 -46.3049C285.343 -41.0658 291.326 -35.6862 297.122 -30.3146C323.966 -5.3836 344.463 17.0156 361.629 40.1722C385.567 72.4672 405.871 106.483 421.97 141.272C434.37 168.065 444.985 197.345 454.424 230.782C462.875 260.715 469.754 291.299 477.485 328.012C481.216 345.737 484.908 364.028 488.816 383.395C494.566 411.883 500.511 441.344 507.293 472.509C513.974 503.371 521.657 530.315 530.784 554.886C552.714 613.933 585.26 668.571 627.52 717.287C641.771 733.725 657.336 749.937 673.783 765.473C693.675 784.201 714.419 801.607 735.437 817.207C766.508 840.275 804.371 866.284 849.586 884.279C871.183 892.873 892.999 898.211 916.284 900.597C955.972 904.664 994.355 899.859 1031.47 895.211C1053.34 892.474 1073.99 889.886 1094.22 889.159C1097.9 889.026 1101.58 888.882 1105.27 888.738C1126.59 887.902 1148.64 887.039 1170.9 888.473C1194.23 889.919 1215.63 894.183 1234.49 901.148C1256.82 909.397 1275.19 921.348 1289.08 936.668C1297.54 945.997 1304.91 956.499 1311.6 968.773C1327.22 997.247 1335.64 1030.75 1343.78 1063.14C1345.02 1068.04 1346.29 1073.1 1347.55 1078.02C1356.33 1112.09 1362.72 1147.57 1366.55 1183.46C1370.76 1222.59 1372.08 1263.98 1370.45 1306.48C1369.02 1344.04 1365.26 1383.46 1359.27 1423.64L1358.71 1423.45Z" fill="#300CFC"/>
<path d="M1369.87 1408.41C1386.68 1323.74 1390.47 1242.73 1381.11 1167.63C1376.65 1131.38 1368.98 1095.71 1358.32 1061.62C1357.82 1059.99 1357.31 1058.37 1356.8 1056.75C1345.74 1021.28 1334.3 984.604 1314.74 954.895C1307.16 943.384 1299.12 933.65 1290.16 925.136C1255.59 892.294 1206.58 885.605 1171.56 885.777C1151.01 885.817 1130.81 887.99 1111.27 890.092C1106.44 890.613 1101.45 891.15 1096.55 891.644C1077.89 893.525 1058.59 897.412 1038.16 901.531C1000.99 909.02 962.563 916.765 922.056 913.757C898.621 912.017 876.575 906.618 854.657 897.252C811.477 878.799 775.545 851.425 743.148 824.594C723.172 808.049 703.358 789.6 684.255 769.761C668.596 753.434 653.831 736.519 640.366 719.482C601.423 670.246 570.997 614.365 549.939 553.394C541.505 528.978 534.263 502.5 527.153 470.07C513.571 408.508 502.55 363.815 491.419 325.16C469.28 248.278 447.452 194.982 418.435 146.958C399.008 114.806 376.005 83.8688 350.062 54.9991C332.063 34.9707 310.931 15.9306 281.543 -6.72892C275.516 -11.3665 269.281 -16.0374 263.009 -20.6107C257.076 -24.9219 250.978 -29.2217 244.52 -33.7768C220.677 -50.5922 193.65 -69.6523 166.496 -95.5903C152.183 -109.261 138.042 -123.748 124.366 -137.757C108.824 -153.677 92.7538 -170.14 76.8128 -184.978C60.8295 -199.856 44.8298 -212.606 29.2681 -222.861C-26.3916 -259.548 -80.6419 -277.576 -115.848 -271.086L-116.097 -271.721C-106.951 -273.408 -96.5057 -273.505 -85.0503 -272.009C-73.9912 -270.566 -61.938 -267.632 -49.2208 -263.29C-24.5161 -254.857 2.72347 -241.055 29.5475 -223.373C45.1503 -213.088 61.1863 -200.311 77.2073 -185.399C93.1624 -170.548 109.242 -154.077 124.79 -138.148C138.46 -124.144 152.594 -109.663 166.895 -96.0031C194.002 -70.1122 221 -51.0721 244.816 -34.2744C251.278 -29.719 257.379 -25.413 263.316 -21.1016C269.595 -16.5219 275.835 -11.8467 281.868 -7.20663C311.3 15.4897 332.469 34.5602 350.506 54.6332C376.485 83.5432 399.521 114.525 418.975 146.722C448.032 194.811 469.883 248.162 492.043 325.111C503.178 363.781 514.203 408.488 527.787 470.066C534.894 502.472 542.127 528.922 550.551 553.312C571.582 614.198 601.961 669.999 640.846 719.161C654.294 736.174 669.043 753.069 684.679 769.373C703.76 789.189 723.548 807.614 743.499 824.14C775.847 850.93 811.716 878.26 854.796 896.67C876.633 906.003 898.602 911.381 921.956 913.116C962.375 916.117 1000.77 908.381 1037.89 900.899C1058.34 896.779 1077.65 892.886 1096.34 891.004C1101.23 890.511 1106.23 889.975 1111.06 889.454C1130.61 887.349 1150.83 885.175 1171.41 885.134C1194.27 885.021 1215.53 887.849 1234.61 893.537C1256.96 900.199 1275.78 910.698 1290.55 924.724C1299.57 933.286 1307.65 943.071 1315.26 954.636C1334.88 984.445 1346.34 1021.17 1357.42 1056.69C1357.93 1058.32 1358.43 1059.94 1358.94 1061.56C1369.61 1095.69 1377.28 1131.4 1381.76 1167.7C1391.12 1242.86 1387.33 1323.93 1370.51 1408.66L1369.87 1408.41Z" fill="#300CFC"/>
<path d="M755.024 835.111C753.705 833.904 752.407 832.711 751.133 831.534C732.188 814.062 713.324 794.591 695.071 773.663C680.227 756.57 666.279 738.97 653.613 721.354C635.507 696.193 619.19 668.92 605.106 640.289C591.506 612.64 579.571 582.872 569.633 551.805C559.894 521.367 552.728 490.827 547.574 467.62C535.454 413.386 521.439 364.497 505.919 322.308C480.782 253.98 452.028 200.024 415.425 152.504C393.344 123.836 367.359 95.5822 340.206 70.7095C339.785 70.3241 339.367 69.9409 338.944 69.5573C315.559 48.2542 290.218 31.4548 266.32 16.4779C260.094 12.5863 253.601 8.61764 247.018 4.68524C243.405 2.5372 239.77 0.403742 235.924 -1.85336C208.79 -17.7667 178.036 -35.8065 147.219 -64.8669C128.451 -82.5659 110.476 -101.946 93.0929 -120.69C81.8695 -132.793 70.2643 -145.305 58.8665 -156.883C43.1977 -172.797 27.8132 -186.388 13.1326 -197.28C-39.7273 -236.505 -92.3049 -259.96 -127.517 -260.023L-127.673 -260.74C-109.613 -260.706 -87.6965 -254.925 -62.5313 -243.558C-38.4991 -232.702 -12.2107 -216.885 13.4852 -197.816C28.2028 -186.894 43.6307 -173.27 59.3337 -157.317C70.7432 -145.729 82.3538 -133.208 93.5819 -121.101C110.953 -102.368 128.917 -82.9986 147.66 -65.3251C178.398 -36.338 209.1 -18.3315 236.187 -2.44311C240.038 -0.185754 243.673 1.94768 247.288 4.09788C253.875 8.03459 260.375 12.0057 266.606 15.9016C290.544 30.9051 315.928 47.7333 339.372 69.0862C367.029 94.2776 393.511 123.002 415.969 152.16C434.859 176.687 451.364 202.438 466.424 230.881C480.927 258.276 494.069 288.148 506.594 322.203C522.127 364.425 536.152 413.351 548.279 467.62C553.427 490.81 560.587 521.327 570.317 551.733C590.484 614.771 618.698 671.732 654.173 721.036C666.821 738.628 680.751 756.205 695.574 773.275C713.804 794.175 732.64 813.62 751.561 831.067C781.168 858.368 816.388 889.148 860.006 909.053C882.083 919.127 904.201 924.547 927.623 925.626C968.758 927.519 1007.09 916.698 1044.16 906.235C1063.23 900.853 1081.24 895.768 1098.44 892.842C1103.95 891.904 1109.58 890.889 1115.02 889.907C1133.39 886.589 1152.39 883.159 1171.92 881.787C1194.3 880.141 1215.44 881.529 1234.73 885.912C1257.09 890.996 1276.36 900.029 1292 912.764C1301.66 920.624 1310.46 929.691 1318.91 940.484C1341.5 969.339 1356.12 1006.43 1370.31 1045.09C1382.69 1078.8 1391.9 1115.74 1396.95 1151.92C1402.61 1192.05 1403.86 1234.2 1400.67 1277.19C1397.83 1315.49 1391.46 1354.68 1381.74 1393.67L1381.03 1393.37C1401.9 1309.63 1407.02 1228.37 1396.23 1151.87C1391.19 1115.74 1381.99 1078.85 1369.63 1045.2C1355.46 1006.61 1340.87 969.587 1318.36 940.838C1309.96 930.103 1301.21 921.088 1291.61 913.276C1262.87 889.879 1220.43 878.948 1172.12 882.503C1152.63 883.873 1133.65 887.3 1115.29 890.613C1109.85 891.598 1104.22 892.612 1098.71 893.55C1081.54 896.47 1063.54 901.55 1044.49 906.929C1026.3 912.063 1007.5 917.373 988.001 921.184C965.901 925.504 946.195 927.192 927.747 926.345C904.221 925.262 882.005 919.817 859.823 909.696C840.26 900.77 821.088 889.151 801.208 874.182C784.379 861.497 768.591 847.539 755.024 835.111Z" fill="#300CFC"/>
<path d="M791.849 870.586C779.864 859.607 768.877 848.486 759.111 838.469C741.153 820.051 723.242 799.558 705.879 777.56C691.857 759.711 678.725 741.428 666.85 723.217C634.315 673.371 608.954 616.777 589.317 550.207C580.751 521.177 574.083 492.275 567.99 465.166C555.899 411.713 539.895 362.692 520.419 319.456C491.776 255.87 457.461 204.583 412.427 158.051C386.767 131.539 357.517 105.973 327.837 84.1134C302.995 65.8162 276.309 52.1321 251.103 39.6782C244.79 36.57 238.037 33.3054 231.035 29.9768C229.283 29.1476 227.512 28.3151 225.72 27.4693C196.256 13.5988 162.918 -2.09602 129.62 -32.597C129.058 -33.1116 128.501 -33.6259 127.939 -34.1505C105.58 -54.9693 84.9498 -78.6245 64.9979 -101.505C57.0882 -110.577 48.907 -119.956 40.9165 -128.802C25.3062 -146.078 10.9409 -160.117 -3.00737 -171.718C-53.7399 -213.912 -103.383 -242.08 -139.209 -248.99L-139.222 -249.764C-121.512 -246.347 -99.5888 -237.383 -75.8281 -223.847C-52.457 -210.532 -27.1257 -192.698 -2.57095 -172.275C11.4166 -160.641 25.8196 -146.568 41.464 -129.253C49.4639 -120.398 57.6457 -111.015 65.5595 -101.944C85.4937 -79.0861 106.104 -55.4522 128.422 -34.6721C162.156 -3.25615 196.041 12.692 225.931 26.762C227.721 27.6057 229.494 28.4403 231.248 29.2677C238.256 32.5987 245.011 35.8655 251.329 38.9779C276.579 51.4506 303.311 65.1638 328.222 83.5094C357.948 105.404 387.247 131.011 412.949 157.566C435.267 180.625 454.711 204.613 472.393 230.896C490.605 257.966 506.551 286.871 521.142 319.266C540.64 362.557 556.666 411.64 568.772 465.148C574.861 492.247 581.524 521.131 590.084 550.134C609.695 616.614 635.017 673.123 667.5 722.89C679.357 741.073 692.472 759.332 706.474 777.155C723.812 799.124 741.697 819.589 759.63 837.978C789.806 868.923 822.813 900.855 865.221 921.419C887.538 932.238 909.805 937.701 933.295 938.117C975.14 938.863 1015.07 924.17 1050.3 911.208C1068.02 904.685 1084.76 898.525 1100.55 894.66C1106.25 893.266 1112.07 891.765 1117.7 890.315C1135.31 885.773 1153.52 881.077 1172.42 878.421C1194.37 875.263 1215.37 875.211 1234.85 878.267C1257.22 881.78 1276.94 889.354 1293.46 900.781C1303.78 907.923 1313.3 916.275 1322.56 926.304C1348.44 954.33 1366.27 992.031 1381.69 1028.6C1395.93 1062.36 1406.47 1099.54 1412.16 1136.12C1418.54 1176.75 1419.76 1219.28 1415.79 1262.52C1412.23 1301.18 1404.56 1340.26 1392.99 1378.66L1392.21 1378.3C1416.82 1296.66 1423.44 1212.9 1411.37 1136.07C1405.69 1099.56 1395.18 1062.45 1380.96 1028.76C1365.58 992.276 1347.79 954.672 1322.02 926.762C1312.82 916.791 1303.35 908.493 1293.1 901.395C1262.61 880.295 1219.86 872.413 1172.71 879.202C1153.84 881.85 1135.65 886.543 1118.06 891.081C1112.42 892.533 1106.6 894.034 1100.9 895.43C1085.15 899.284 1068.42 905.439 1050.72 911.953C1015.43 924.934 975.438 939.651 933.455 938.905C909.836 938.484 887.445 932.991 865.002 922.112C845.528 912.669 826.61 900.202 807.168 883.989C801.901 879.617 796.792 875.114 791.849 870.586Z" fill="#300CFC"/>
<path d="M813.631 894.305C813.459 894.148 813.29 893.993 813.119 893.836C796.212 878.286 781.11 861.385 767.088 845.404C750.073 826.014 733.12 804.499 716.691 781.457C703.492 762.86 691.179 743.892 680.093 725.084C650.684 675.236 628.096 619.165 609.007 548.618C602.129 523.214 596.244 497.252 590.548 472.144C589.837 469.003 589.123 465.862 588.408 462.72C576.14 409.116 558.146 359.959 534.927 316.619C503.13 257.274 462.084 207.224 409.44 163.61C380.574 139.697 348.519 117.245 316.741 98.6805C291.667 84.0346 266.367 74.2117 235.897 62.8897C229.713 60.6027 223.091 58.1814 215.059 55.2752L214.61 55.1142C199.084 49.5387 181.488 43.2176 163.515 34.2032C142.872 23.8502 124.93 11.5321 108.658 -3.42187C83.2928 -26.7502 60.8447 -54.3103 39.1396 -80.9638C33.8216 -87.4941 28.3198 -94.2484 22.9575 -100.711C7.57594 -119.242 -6.19971 -134.104 -19.1579 -146.144C-66.8721 -190.477 -114.902 -223.942 -150.927 -237.959L-150.764 -238.75C-133.118 -231.885 -111.802 -219.907 -89.1238 -204.113C-66.4024 -188.291 -42.0257 -168.438 -18.6329 -146.703C-5.6371 -134.629 8.17441 -119.731 23.5884 -101.159C28.9554 -94.6921 34.4573 -87.9378 39.7776 -81.4054C61.4573 -54.7856 83.8759 -27.2594 109.18 -3.98703C109.292 -3.88369 109.408 -3.77819 109.52 -3.67484C145.782 29.5412 184.009 43.2732 214.746 54.3141L215.197 54.4772C223.234 57.3837 229.856 59.8049 236.042 62.0941C266.564 73.4355 291.908 83.2753 317.061 97.9682C348.894 116.562 381.001 139.051 409.916 163.006C435.676 184.35 458.06 206.572 478.348 230.95C500.211 257.219 518.967 285.157 535.684 316.359C558.948 359.782 576.974 409.021 589.262 462.713C589.977 465.854 590.69 468.998 591.4 472.139C597.093 497.236 602.977 523.191 609.847 548.574C628.91 619.031 651.464 675.022 680.823 724.786C691.894 743.569 704.19 762.509 717.369 781.081C733.775 804.09 750.705 825.574 767.693 844.933C798.118 879.612 828.873 912.507 870.429 933.823C892.981 945.389 915.396 950.895 938.954 950.647C981.51 950.2 1021.24 931.96 1056.3 915.868C1072.71 908.333 1088.21 901.215 1102.65 896.521C1108.2 894.715 1113.88 892.787 1119.37 890.921C1136.54 885.087 1154.29 879.056 1172.92 875.096C1194.45 870.438 1215.32 868.945 1234.96 870.654C1257.35 872.606 1277.52 878.721 1294.89 888.834C1305.66 895.106 1315.7 902.548 1325.55 911.569C1325.76 911.765 1325.98 911.961 1326.19 912.161C1356.69 940.336 1377.95 980.39 1393.06 1012.14C1409.16 1045.96 1421.02 1083.38 1427.36 1120.36C1434.47 1161.49 1435.66 1204.4 1430.89 1247.89C1426.61 1286.91 1417.64 1325.87 1404.21 1363.7L1403.38 1363.27C1423.35 1306.99 1443.57 1219.15 1426.49 1120.32C1420.17 1083.43 1408.34 1046.1 1392.28 1012.35C1377.21 980.697 1356.02 940.764 1325.67 912.726C1315.68 903.487 1305.51 895.917 1294.57 889.553C1262.38 870.816 1219.3 865.981 1173.27 875.937C1154.69 879.889 1136.96 885.913 1119.8 891.74C1114.31 893.608 1108.63 895.535 1103.07 897.343C1088.68 902.026 1073.19 909.133 1056.8 916.661C1021.68 932.784 981.874 951.058 939.152 951.506C915.437 951.756 892.87 946.213 870.167 934.567C850.926 924.694 832.423 911.519 813.631 894.305Z" fill="#300CFC"/>
<path d="M830.004 914.199C826.356 910.857 822.714 907.348 819.07 903.662C803.12 887.532 789.153 870.179 775.065 852.335C758.734 831.651 743.175 809.741 727.501 785.353C715.133 766.018 703.638 746.369 693.335 726.947C667.179 677.696 647.244 622.206 628.698 547.026C624.092 528.356 619.841 509.306 615.731 490.882C613.492 480.853 611.181 470.483 608.832 460.273C596.309 406.149 576.327 356.864 549.442 313.784C513.921 256.863 467.155 209.56 406.468 169.168C374.405 147.828 339.546 128.49 305.661 113.245C278.441 100.998 251.36 94.0079 222.687 86.6075L220.705 86.0959C216.221 84.9452 211.684 83.787 207.092 82.6133C204.446 81.9389 201.783 81.2594 199.097 80.5724C182.319 76.3221 164.401 71.5081 146.032 63.6096C124.706 54.4381 106.178 42.565 89.3845 27.3072C61.4303 1.90257 37.7901 -29.3301 14.9354 -59.5373C11.6747 -63.8492 8.29844 -68.3086 5.00744 -72.6205C-10.4198 -92.8382 -23.2275 -108.072 -35.3019 -120.573C-79.8601 -166.699 -126.271 -205.47 -162.64 -226.946L-162.291 -227.718C-125.827 -206.186 -79.3171 -167.339 -34.6819 -121.131C-22.574 -108.597 -9.73386 -93.3228 5.72345 -73.0671C9.01508 -68.7512 12.3913 -64.2917 15.6544 -59.9777C38.2302 -30.1408 61.5679 0.700055 89.0526 25.8764C89.3488 26.1476 89.6449 26.4189 89.9452 26.6905C125.626 59.1104 161.96 70.2521 199.144 79.6765C201.83 80.3634 204.493 81.0429 207.139 81.7173C211.733 82.8891 216.266 84.047 220.754 85.198L222.736 85.7096C251.457 93.1232 278.585 100.124 305.894 112.411C339.84 127.682 374.76 147.054 406.879 168.431C467.719 208.925 514.609 256.357 550.227 313.432C577.177 356.621 597.206 406.018 609.758 460.262C612.106 470.474 614.421 480.844 616.658 490.875C620.765 509.293 625.015 528.339 629.62 546.997C648.142 622.089 668.048 677.502 694.157 726.667C704.448 746.061 715.925 765.682 728.276 784.988C743.927 809.341 759.462 831.219 775.771 851.872C800.525 883.224 831.331 922.245 875.654 946.208C898.44 958.528 921.001 964.073 944.626 963.156C987.902 961.481 1027.37 939.522 1062.19 920.152C1077.32 911.736 1091.61 903.788 1104.75 898.368C1109.87 896.256 1115.11 894.021 1120.18 891.858C1137.18 884.605 1154.76 877.108 1173.42 871.754C1194.56 865.61 1215.31 862.673 1235.09 863.023C1257.49 863.42 1278.1 868.08 1296.33 876.873C1308.03 882.515 1318.98 889.425 1329.83 897.998C1344.35 909.478 1357.87 923.811 1371.17 941.808C1382.42 957.038 1393.3 974.652 1404.44 995.659C1422.4 1029.54 1435.58 1067.2 1442.56 1104.57C1450.4 1146.22 1451.56 1189.5 1446 1233.24C1441 1272.62 1430.72 1311.47 1415.45 1348.71L1414.56 1348.21C1446.79 1269.58 1456.41 1183.04 1441.63 1104.54C1434.67 1067.27 1421.52 1029.72 1403.61 995.939C1379.62 950.677 1356.02 919.772 1329.33 898.673C1318.56 890.157 1307.68 883.296 1296.07 877.691C1252.7 856.771 1205.67 863.404 1173.86 872.651C1155.24 877.992 1137.69 885.481 1120.71 892.724C1115.63 894.888 1110.39 897.124 1105.27 899.238C1092.16 904.642 1077.89 912.582 1062.78 920.987C1027.89 940.4 988.336 962.403 944.864 964.086C921.052 965.009 898.31 959.421 875.341 947.002C859.773 938.585 844.838 927.787 830.004 914.199Z" fill="#300CFC"/>
<path d="M843.506 932.181C818.649 909.411 799.458 882.383 783.039 859.26C767.591 837.507 752.96 814.604 738.307 789.242C726.772 769.182 716.094 748.848 706.571 728.805C678.007 668.744 661.723 605.177 648.385 545.43C645.661 533.232 643.008 520.8 640.445 508.78C636.887 492.089 633.205 474.83 629.251 457.825C616.432 403.009 594.465 353.593 563.963 310.952C524.502 255.792 472.014 211.229 403.5 174.72C368.224 155.921 330.562 139.699 294.584 127.805C266.837 118.63 239.992 114.544 211.571 110.219C209.557 109.912 207.538 109.606 205.511 109.294L204.41 109.127C197.499 108.079 190.353 106.994 183.136 105.864C165.814 103.188 147.179 99.7617 128.293 92.8853C106.37 84.9029 87.3384 73.504 70.1059 58.0319C39.8566 30.8761 15.517 -3.88738 -8.01874 -37.504C-9.66862 -39.8605 -11.3108 -42.2064 -12.9488 -44.538C-28.4908 -66.6833 -40.367 -82.2502 -51.4504 -95.0111C-92.643 -142.433 -137.44 -186.515 -174.357 -215.952L-173.823 -216.677C-136.845 -187.193 -91.9809 -143.047 -50.7342 -95.5618C-39.619 -82.7648 -27.7174 -67.1643 -12.1471 -44.9791C-10.5091 -42.6475 -8.86687 -40.3016 -7.21637 -37.9411C16.275 -4.38935 40.5715 30.3033 70.7005 57.3593C108.124 90.9582 148.329 99.5012 183.077 104.871C190.294 106.001 197.44 107.086 204.35 108.136L205.45 108.303C207.479 108.613 209.497 108.921 211.51 109.228C239.981 113.56 266.872 117.653 294.712 126.858C330.756 138.774 368.487 155.029 403.825 173.86C436.307 191.169 464.573 209.877 490.237 231.048C518.864 254.665 543.934 281.397 564.755 310.502C595.355 353.278 617.388 402.838 630.245 457.807C634.202 474.822 637.885 492.085 641.444 508.78C644.007 520.8 646.656 533.226 649.38 545.42C662.706 605.104 678.967 668.598 707.48 728.549C716.99 748.563 727.652 768.868 739.17 788.899C753.801 814.223 768.409 837.091 783.833 858.812C807.516 892.164 836.991 933.673 880.859 958.589C903.88 971.663 926.587 977.247 950.279 975.662C994.289 972.714 1033.42 946.872 1067.94 924.069C1081.82 914.908 1094.92 906.254 1106.84 900.21C1111.25 897.974 1115.76 895.629 1120.13 893.36C1137.22 884.49 1154.9 875.316 1173.9 868.407C1194.69 860.779 1215.31 856.394 1235.19 855.377C1257.62 854.228 1278.67 857.433 1297.75 864.902C1310.14 869.754 1321.81 875.943 1333.44 883.828C1349.11 894.45 1364.38 908.557 1378.81 925.755C1391.45 940.816 1403.89 958.787 1415.8 979.169C1435.62 1013.1 1450.13 1051.01 1457.75 1088.78C1466.32 1130.93 1467.45 1174.6 1461.1 1218.58C1455.36 1258.31 1443.78 1297.05 1426.67 1333.72L1425.73 1333.15C1461.98 1255.45 1473 1168.66 1456.75 1088.77C1449.15 1051.12 1434.69 1013.34 1414.94 979.518C1389.33 935.679 1362.53 904.634 1332.99 884.616C1321.45 876.789 1309.85 870.643 1297.56 865.825C1252.17 848.053 1205.55 857.936 1174.43 869.358C1155.47 876.248 1137.82 885.409 1120.75 894.269C1116.38 896.537 1111.86 898.882 1107.45 901.122C1095.57 907.147 1082.49 915.788 1068.63 924.938C1052.02 935.908 1033.2 948.341 1013.47 958.093C990.867 969.267 970.29 975.341 950.564 976.664C939.157 977.427 927.714 976.489 916.55 973.872C904.543 971.057 892.415 966.2 880.501 959.433C866.868 951.692 854.619 942.36 843.506 932.181Z" fill="#300CFC"/>
<path d="M855.129 948.987C846.912 941.459 838.891 932.929 830.973 923.315C815.378 904.38 802.435 884.087 791.013 866.185C776.617 843.619 762.52 819.037 749.115 793.129C738.419 772.362 728.557 751.344 719.812 730.66C694.69 671.315 681.518 610.938 668.073 543.833C666.879 537.869 665.676 531.801 664.516 525.932C659.941 502.825 655.211 478.933 649.671 455.377C636.534 399.766 612.583 350.223 578.482 308.121C535.468 255.014 475.597 211.995 400.534 180.27C362.017 163.99 321.552 150.879 283.513 142.359C254.872 135.944 227.783 134.498 199.102 132.968C196.188 132.813 193.263 132.655 190.324 132.494C183.005 132.099 175.133 131.659 167.181 131.153C150.479 130.117 130.688 128.24 110.56 122.159C88.0261 115.353 68.4871 104.428 50.8326 88.7607C18.5111 60.0824 -6.14482 21.8888 -29.9899 -15.0475L-30.8982 -16.4533C-42.5749 -34.5362 -55.1019 -53.4746 -67.592 -69.4473C-105.665 -118.133 -147.737 -166.26 -186.056 -204.96L-185.354 -205.618C-146.995 -166.877 -104.883 -118.707 -66.7776 -69.9777C-54.2522 -53.9587 -41.7021 -34.9888 -30.0071 -16.8786L-29.0988 -15.4729C-5.30457 21.382 19.3045 59.4946 51.4675 88.0346C88.6117 120.995 128.955 127.721 167.02 130.078C174.971 130.586 182.838 131.021 190.156 131.418C193.093 131.581 196.02 131.736 198.932 131.893C227.662 133.427 254.8 134.876 283.535 141.311C321.647 149.846 362.188 162.982 400.777 179.292C435.993 194.179 468.096 211.614 496.186 231.113C528.281 253.393 556.242 279.117 579.289 307.57C613.52 349.833 637.561 399.556 650.741 455.356C656.284 478.932 661.017 502.834 665.595 525.953C666.757 531.821 667.959 537.888 669.154 543.852C682.584 610.892 695.742 671.204 720.818 730.444C729.553 751.097 739.399 772.084 750.079 792.822C763.466 818.694 777.539 843.235 791.913 865.768C814.444 901.091 842.488 945.048 886.086 970.986C909.34 984.82 932.191 990.445 955.947 988.182C1000.71 983.918 1041.12 952.71 1073.59 927.633C1086.24 917.865 1098.18 908.638 1108.93 902.072C1112.32 900.001 1115.8 897.853 1119.16 895.774C1136.62 884.974 1154.68 873.807 1174.4 865.083C1205.03 851.439 1251.53 838.259 1299.17 852.954C1312.33 857.012 1324.73 862.483 1337.07 869.678C1369.44 888.421 1399.75 919.719 1427.17 962.697C1448.85 996.687 1464.68 1034.83 1472.96 1073.01C1482.26 1115.66 1483.35 1159.72 1476.21 1203.94C1472.93 1224.23 1467.9 1244.49 1461.25 1264.17C1454.9 1282.97 1447.05 1301.33 1437.9 1318.75L1436.91 1318.11C1477.19 1241.35 1489.62 1154.3 1471.89 1073C1463.64 1034.97 1447.87 996.973 1426.27 963.112C1398.99 920.333 1368.84 889.197 1336.67 870.572C1324.42 863.428 1312.12 858 1299.06 853.972C1251.75 839.377 1205.5 852.5 1175.02 866.078C1155.34 874.776 1137.32 885.931 1119.88 896.715C1116.52 898.794 1113.04 900.946 1109.65 903.017C1098.93 909.561 1087 918.773 1074.37 928.528C1058.03 941.147 1039.52 955.45 1019.78 966.884C997.108 980.023 976.336 987.34 956.279 989.25C944.837 990.34 933.333 989.562 922.094 986.938C909.984 984.113 897.73 979.044 885.678 971.871C875.096 965.579 864.969 958 855.129 948.987Z" fill="#300CFC"/>
<path d="M865.428 964.925C855.579 955.903 846.133 945.362 836.925 933.14C822.002 913.339 809.776 891.963 798.989 873.102C785.408 849.359 772.264 823.759 759.926 797.012C750.065 775.546 741.023 753.846 733.054 732.513C711.111 673.826 700.577 614.444 689.422 551.578C688.87 548.467 688.319 545.354 687.763 542.237C682.563 513.017 677.187 482.802 670.092 452.931C656.624 396.464 630.691 346.792 593.011 305.294C545.684 253.167 479.929 212.97 397.573 185.814C356.379 172.23 311.941 161.966 272.445 156.91C242.622 153.092 214.921 154.16 185.592 155.291C182.119 155.424 178.637 155.559 175.137 155.685C168.14 155.943 159.828 156.234 151.222 156.437C135.263 156.832 114.205 156.622 92.8444 151.409C69.7059 145.763 49.6569 135.324 31.5544 119.49C16.7127 106.434 2.28815 89.8923 -12.5436 68.9158C-25.2782 50.9072 -36.5233 32.3153 -48.8593 11.6252C-60.0673 -7.31862 -71.9935 -27.2056 -83.7501 -43.8941C-118.574 -93.3282 -156.935 -143.822 -197.761 -193.976L-196.911 -194.564C-156.058 -144.383 -117.678 -93.8574 -82.8346 -44.3979C-71.0467 -27.6634 -59.1039 -7.74737 -47.8806 11.2175C-27.206 45.9 -1.47836 89.0679 32.2215 118.71C70.8477 152.492 112.111 156.255 150.947 155.288C159.548 155.087 167.855 154.795 174.848 154.537C178.348 154.411 181.831 154.277 185.299 154.143C214.676 153.011 242.426 151.942 272.345 155.773C311.922 160.839 356.446 171.123 397.719 184.735C480.324 211.973 546.298 252.317 593.807 304.642C612.022 324.704 627.661 346.872 640.284 370.524C653.83 395.901 664.239 423.621 671.227 452.91C678.331 482.813 683.711 513.046 688.913 542.285C689.466 545.404 690.021 548.517 690.574 551.628C701.716 614.437 712.243 673.765 734.143 732.339C742.101 753.641 751.128 775.31 760.977 796.743C773.299 823.451 786.42 849.013 799.982 872.721C821.295 909.982 847.822 956.354 891.299 983.378C914.85 998.016 937.848 1003.68 961.6 1000.7C1007.15 995.17 1047.03 959.509 1079.07 930.856C1090.54 920.61 1101.36 910.931 1111.02 903.932C1113.01 902.488 1115.01 901.034 1117.02 899.572C1135.18 886.363 1153.96 872.704 1174.89 861.755C1204.92 845.946 1251.11 829.512 1300.59 841.001C1314.39 844.206 1327.5 848.956 1340.68 855.524C1359.03 864.614 1377 877.449 1394.09 893.665C1409.7 908.47 1424.65 926.152 1438.52 946.216C1462.06 980.254 1479.23 1018.64 1488.15 1057.22C1498.18 1100.38 1499.25 1144.82 1491.31 1189.29C1487.67 1209.7 1482.11 1230 1474.79 1249.61C1467.78 1268.4 1459.15 1286.62 1449.12 1303.77L1448.08 1303.05C1491.77 1228.33 1505.96 1138.74 1487.02 1057.24C1478.13 1018.82 1461.04 980.598 1437.6 946.704C1408.71 904.91 1375.07 873.727 1340.34 856.519C1327.27 850.002 1314.25 845.288 1300.56 842.109C1251.42 830.7 1205.48 847.057 1175.6 862.787C1154.73 873.708 1135.97 887.347 1117.84 900.539C1115.83 902.002 1113.83 903.457 1111.83 904.901C1102.21 911.872 1091.4 921.54 1079.96 931.772C1047.82 960.506 1007.83 996.271 961.981 1001.83C950.532 1003.27 938.972 1002.66 927.629 1000.03C915.424 997.186 903.046 991.899 890.837 984.312C882.027 978.829 873.589 972.4 865.428 964.925Z" fill="#300CFC"/>
<path d="M874.777 980.26C863.555 969.981 853.004 957.631 842.876 942.963C828.548 922.212 817.077 899.793 806.959 880.018C794.172 855.026 781.984 828.403 770.729 800.892C761.702 778.747 753.481 756.362 746.288 734.362C728.569 680.195 720.424 626.26 711.802 569.157C710.393 559.822 708.933 550.17 707.449 540.634C702.225 507.121 697.344 478.963 690.507 450.48C676.698 393.116 648.784 343.317 607.538 302.461C555.711 251.122 484.069 213.738 394.607 191.347C350.163 180.226 302.845 173.156 261.37 171.446C230.125 170.157 201.522 173.71 171.241 177.471C167.49 177.937 163.725 178.404 159.946 178.862C153.21 179.685 144.313 180.752 135.265 181.705C97.1449 185.766 52.7179 185.202 12.2752 150.207C11.0164 149.114 9.76855 147.998 8.53686 146.87C-22.2456 118.673 -44.6939 80.0843 -66.8198 39.6904L-68.1967 37.1633C-79.1118 17.107 -89.4244 -1.83751 -99.9052 -18.352C-139.403 -80.5882 -179.198 -139.035 -209.456 -183L-208.473 -183.522C-178.209 -139.544 -138.401 -81.0825 -98.8897 -18.8234C-88.38 -2.26504 -78.0579 16.702 -67.1268 36.7834L-65.7523 39.3084C-42.816 81.182 -19.5376 121.115 12.9744 149.373C52.9695 183.978 97.0378 184.524 134.874 180.495C143.916 179.543 152.804 178.476 159.539 177.655C163.32 177.195 167.081 176.727 170.832 176.261C201.161 172.495 229.809 168.936 261.154 170.229C302.714 171.941 350.127 179.024 394.659 190.167C435.99 200.511 474.149 214.336 508.077 231.256C547.005 250.67 580.732 274.373 608.322 301.7C649.782 342.766 677.839 392.815 691.713 450.448C698.558 478.973 703.443 507.16 708.675 540.703C710.161 550.241 711.619 559.895 713.03 569.232C721.644 626.279 729.78 680.161 747.467 734.222C754.648 756.193 762.857 778.542 771.872 800.655C783.108 828.128 795.277 854.711 808.047 879.665C828.091 918.84 853.037 967.595 896.515 995.759C920.281 1011.15 943.42 1016.86 967.253 1013.2C1013.6 1006.25 1052.89 965.984 1084.46 933.632C1094.76 923.076 1104.49 913.104 1113.1 905.78L1113.3 905.613C1132.6 889.215 1152.55 872.261 1175.37 858.409C1195.25 846.295 1215.48 837.564 1235.49 832.452C1258.06 826.69 1280.44 825.539 1302 829.031C1316.42 831.367 1330.26 835.396 1344.29 841.35C1382.24 857.377 1418.76 887.933 1449.88 929.717C1462.41 946.533 1473.36 964.655 1482.43 983.582C1491.56 1002.62 1498.6 1022.08 1503.35 1041.43C1514.12 1085.1 1515.15 1129.92 1506.41 1174.64C1498.56 1214.84 1482.63 1254.31 1460.35 1288.79L1459.26 1287.99C1506.95 1214.21 1522.58 1124.35 1502.15 1041.46C1492.61 1002.67 1474.21 964.227 1448.93 930.295C1417.99 888.748 1381.71 858.378 1344.01 842.464C1330.09 836.557 1316.37 832.561 1302.06 830.24C1261.8 823.722 1218.27 833.837 1176.18 859.49C1153.41 873.306 1133.49 890.238 1114.22 906.611L1114.02 906.778C1105.44 914.074 1095.72 924.031 1085.43 934.571C1053.77 967.022 1014.36 1007.41 967.686 1014.41C956.196 1016.17 944.575 1015.73 933.155 1013.08C920.839 1010.23 908.339 1004.73 895.994 996.739C888.643 991.975 881.586 986.498 874.777 980.26Z" fill="#300CFC"/>
<path d="M-11.1549 177.253C-24.9196 164.644 -37.9324 148.756 -50.813 128.854C-63.6114 109.079 -74.698 87.8084 -84.776 67.7677C-86.595 64.133 -88.3946 60.5196 -90.1823 56.9309C-99.0806 39.0664 -107.486 22.1925 -116.052 7.19845C-150.216 -52.583 -183.552 -108.723 -215.795 -163.014L-221.137 -172.01L-220.036 -172.466L-214.695 -163.469C-182.453 -109.173 -149.11 -53.0266 -114.94 6.76729C-106.349 21.8009 -97.9325 38.6955 -89.0247 56.5828C-87.2394 60.1692 -85.4398 63.7827 -83.6214 67.4134C-62.934 108.552 -39.9239 151.133 -6.26419 180.049C35.1726 215.53 82.3461 212.402 118.81 205.714C128.143 204.011 137.303 202.184 144.241 200.783C148.067 200.013 151.879 199.235 155.682 198.458C187.211 192.022 216.993 185.942 249.973 184.699C293.503 183.061 343.803 186.936 391.607 195.617C435.958 203.669 477.159 215.674 514.069 231.301C556.406 249.226 593.002 271.925 622.842 298.768C667.864 339.028 697.935 389.242 712.207 447.997C720.104 480.584 724.846 512.354 728.445 539.137C730.402 553.711 732.2 568.459 733.94 582.722C740.095 633.214 746.461 685.423 760.797 736.119C767.199 758.767 774.593 781.803 782.773 804.581C792.917 832.747 804.134 860.349 816.119 886.623C834.853 927.691 858.166 978.799 901.737 1008.15C925.718 1024.31 948.999 1030.05 972.912 1025.72C1020.09 1017.28 1058.7 972.221 1089.72 936.012C1098.9 925.307 1107.56 915.191 1115.2 907.647C1132.4 890.639 1152.69 871.15 1175.87 855.083C1195.49 841.45 1215.58 831.264 1235.59 824.812C1258.23 817.513 1281.05 814.913 1303.42 817.081C1318.24 818.517 1333.21 821.922 1347.9 827.196C1368.89 834.702 1389.56 846.268 1409.34 861.58C1427.87 875.918 1445.33 893.297 1461.24 913.231C1474.66 930.044 1486.4 948.236 1496.14 967.303C1505.94 986.489 1513.48 1006.12 1518.55 1025.64C1524.41 1048.14 1527.56 1071.26 1527.92 1094.36C1528.27 1116.25 1526.11 1138.33 1521.52 1160C1512.93 1200.54 1495.65 1239.9 1471.57 1273.81L1470.44 1272.93C1522.15 1200.1 1539.23 1109.98 1517.28 1025.7C1507.25 987.077 1487 947.369 1460.28 913.882C1427.23 872.477 1388.3 842.918 1347.7 828.399C1333.12 823.166 1318.27 819.791 1303.57 818.364C1261.42 814.278 1218.76 827.001 1176.77 856.188C1153.65 872.209 1133.39 891.666 1116.22 908.648C1108.62 916.165 1099.96 926.264 1090.8 936.959C1075.5 954.82 1058.15 975.066 1038.57 992.064C1015.84 1011.79 994.529 1023.21 973.407 1026.99C961.878 1029.08 950.198 1028.79 938.696 1026.15C926.272 1023.29 913.644 1017.57 901.166 1009.17C894.87 1004.92 888.995 1000.24 883.497 995.199C850.573 965.04 831.069 922.28 814.94 886.924C802.939 860.611 791.703 832.968 781.548 804.763C773.355 781.952 765.951 758.883 759.54 736.203C745.174 685.402 738.801 633.139 732.64 582.599C730.9 568.339 729.103 553.595 727.147 539.03C723.555 512.281 718.82 480.556 710.937 448.03C696.743 389.59 666.848 339.669 622.083 299.631C551.962 236.554 458.071 208.938 391.651 196.881C343.943 188.219 293.747 184.349 250.307 185.986C217.425 187.225 187.689 193.294 156.208 199.719C152.405 200.496 148.591 201.272 144.763 202.044C137.821 203.444 128.655 205.273 119.315 206.98C104.008 209.788 80.9343 213.151 57.3887 209.946C45.9544 208.389 35.0221 205.383 24.894 201.012C13.6015 196.139 2.87026 189.383 -6.99382 180.936C-8.39339 179.741 -9.77986 178.512 -11.1549 177.253Z" fill="#300CFC"/>
<path d="M-30.8525 207.63C-44.6337 195.006 -57.4634 178.979 -69.9464 158.822C-82.8715 137.954 -93.7735 115.274 -102.73 95.8397C-105.479 89.8648 -108.194 83.872 -110.82 78.075C-118.163 61.8721 -125.098 46.5643 -132.201 32.7473C-157.706 -16.8737 -183.27 -65.9257 -207.993 -113.366C-216.171 -129.058 -224.627 -145.282 -232.813 -161.017L-231.603 -161.414C-223.416 -145.679 -214.961 -129.455 -206.783 -113.763C-182.059 -66.3226 -156.492 -17.2643 -130.986 32.3608C-123.866 46.2149 -116.92 61.5394 -109.57 77.7628C-106.946 83.5576 -104.229 89.5485 -101.485 95.5192C-82.9048 135.82 -60.1779 181.282 -25.5063 210.722C17.096 246.831 65.4114 240.49 102.747 230.934C112.314 228.489 121.772 225.898 128.941 223.914C132.622 222.896 136.292 221.872 139.955 220.852C172.887 211.667 203.992 202.991 238.792 199.176C284.054 194.214 337.242 194.888 388.554 201.07C459.89 209.813 560.961 233.353 637.355 295.843C686.002 335.514 718.082 385.885 732.696 445.555C739.258 472.37 744.041 500.749 748.206 537.579C750.312 556.191 752.034 575.061 753.702 593.307C758.04 640.778 762.522 689.863 774.118 738.029C779.734 761.365 786.311 785.081 793.666 808.519C802.581 836.889 812.849 865.513 824.181 893.595C841.669 936.641 863.431 990.216 906.946 1020.55C930.75 1037.25 954.843 1043.2 978.556 1038.24C1026.6 1028.27 1066.05 976.082 1094.86 937.977C1102.94 927.283 1110.58 917.183 1117.27 909.528C1132.15 892.511 1152.31 870.568 1176.35 851.772C1217.97 819.177 1261.2 803.489 1304.82 805.147C1320.15 805.69 1335.85 808.354 1351.5 813.058C1373.77 819.742 1395.79 830.681 1416.94 845.578C1436.86 859.613 1455.58 876.831 1472.59 896.757C1486.9 913.616 1499.43 931.883 1509.82 951.051C1520.31 970.408 1528.36 990.196 1533.74 1009.87C1539.97 1032.61 1543.3 1055.96 1543.63 1079.27C1543.95 1101.36 1541.59 1123.6 1536.62 1145.37C1527.28 1186.24 1508.66 1225.48 1482.79 1258.85L1481.62 1257.89C1537.37 1186.01 1555.88 1095.63 1532.41 1009.95C1521.78 971.09 1500.18 931.151 1471.61 897.493C1436.28 856.108 1394.71 827.362 1351.37 814.36C1335.85 809.691 1320.27 807.052 1305.07 806.513C1261.74 804.865 1218.76 820.474 1177.35 852.909C1153.38 871.654 1133.26 893.555 1118.41 910.538C1111.74 918.169 1104.11 928.255 1096.04 938.934C1081.15 958.629 1064.27 980.955 1044.78 999.997C1022.09 1022.17 1000.61 1035.12 979.111 1039.58C967.526 1042 955.785 1041.89 944.208 1039.24C931.658 1036.37 918.91 1030.44 906.317 1021.61C886.744 1007.96 869.889 988.679 854.788 962.649C841.662 940.022 831.697 915.494 822.905 893.856C811.555 865.732 801.275 837.069 792.345 808.659C784.978 785.186 778.392 761.437 772.768 738.068C761.147 689.803 756.658 640.663 752.316 593.144C750.652 574.904 748.926 556.042 746.823 537.447C742.664 500.68 737.889 472.354 731.343 445.603C716.82 386.281 684.948 336.225 636.611 296.806C560.543 234.588 459.799 211.135 388.677 202.418C337.468 196.246 284.391 195.573 239.225 200.525C204.522 204.329 173.462 212.993 140.58 222.166C136.916 223.188 133.246 224.212 129.565 225.229C122.39 227.215 112.924 229.809 103.347 232.256C65.6813 241.898 16.9081 248.273 -26.2798 211.665C-27.8132 210.361 -29.3411 209.014 -30.8525 207.63Z" fill="#300CFC"/>
<path d="M-50.4623 238.088C-88.1177 203.595 -110.584 148.797 -130.499 100.218C-136.619 85.2907 -142.399 71.1902 -148.351 58.2922L-244.49 -150.026L-243.18 -150.366L-147.041 57.9518C-141.072 70.883 -135.285 84.9999 -129.157 99.9476C-108.473 150.404 -85.0259 207.596 -44.7498 241.394C-1.02023 278.095 48.4604 268.56 86.6801 256.156C99.1805 252.099 111.651 247.743 123.714 243.532C156.703 232.016 190.813 220.105 227.609 213.644C256.826 208.516 290.047 205.5 323.677 204.925C360.572 204.293 397.447 206.486 433.273 211.438C472.773 216.9 510.035 225.621 544.022 237.357C581.613 250.339 615.095 267.005 643.547 286.893C700.54 326.735 737.429 379.289 753.183 443.095C766.278 496.118 769.505 549.81 772.627 601.735C775.344 646.932 778.155 693.665 787.442 739.92C798.17 793.346 813.244 847.389 832.25 900.548C848.262 945.337 868.189 1001.08 912.169 1032.94C949.311 1059.85 985.306 1059.56 1022.21 1032.04C1053.59 1008.64 1079.26 970.285 1099.89 939.468C1106.91 928.965 1113.55 919.046 1119.36 911.391C1151.39 869.193 1183.1 839.19 1216.3 819.668C1237.02 807.489 1258.53 799.414 1280.22 795.669C1304.46 791.484 1329.65 792.57 1355.11 798.897C1377.13 804.371 1399.02 813.743 1420.17 826.755C1440.3 839.141 1459.32 854.545 1476.73 872.537C1510.95 907.92 1536.6 951.083 1548.94 994.069C1555.54 1017.05 1559.04 1040.63 1559.35 1064.15C1559.64 1086.45 1557.07 1108.84 1551.72 1130.72C1541.63 1171.92 1521.67 1211.05 1494 1243.86L1492.8 1242.82C1551.71 1172.93 1572.18 1079.98 1547.53 994.169C1521.36 903.04 1440.41 821.497 1355.04 800.281C1270.48 779.264 1193.79 815.935 1120.6 912.392C1114.8 920.021 1108.17 929.929 1101.16 940.419C1080.49 971.303 1054.76 1009.74 1023.23 1033.25C1006.06 1046.05 988.684 1053.07 971.593 1054.11C961.982 1054.69 952.211 1053.42 942.553 1050.31C932.274 1047 921.819 1041.52 911.474 1034.03C907.246 1030.97 903.153 1027.62 899.197 1024C884.782 1010.8 872.113 993.796 860.73 972.443C847.908 948.385 838.464 921.97 830.876 900.746C811.846 847.514 796.749 793.397 786.004 739.894C776.694 693.537 773.883 646.752 771.163 601.506C768.045 549.648 764.822 496.023 751.76 443.134C736.108 379.759 699.475 327.562 642.874 287.995C528.381 207.957 347.632 194.078 228.144 215.052C191.448 221.493 157.383 233.387 124.439 244.888C112.37 249.101 99.8919 253.46 87.3799 257.52C62.0053 265.755 41.2025 269.239 21.9161 268.482C9.87921 268.008 -1.62144 265.792 -12.2654 261.896C-24.1 257.562 -35.3029 251.001 -45.5636 242.391C-47.2179 240.997 -48.8545 239.561 -50.4623 238.088Z" fill="#300CFC"/>
</g>
</svg>
