<svg width="63" height="73" viewBox="0 0 63 73" fill="none" xmlns="http://www.w3.org/2000/svg">
<path d="M28.0784 36.5225C28.4239 38.3814 30.1949 39.5803 32.0342 39.2001C33.8734 38.82 35.0844 37.0049 34.7389 35.146L28.0784 36.5225ZM57.9533 24.9765C58.062 23.0808 56.6355 21.4793 54.7673 21.3995C52.8991 21.3197 51.2966 22.7918 51.1879 24.6875L57.9533 24.9765ZM49.2614 11.6843C47.5063 11.0546 45.557 11.9951 44.9078 13.785C44.2586 15.5748 45.1551 17.5363 46.9102 18.166L49.2614 11.6843ZM36.2072 23.6566L40.1091 19.7391L35.3798 14.8951L31.4778 18.8126L36.2072 23.6566ZM31.4086 35.8342C34.7389 35.146 34.7389 35.146 34.7389 35.146L34.7385 35.144C34.7385 35.144 34.7378 35.1405 34.7373 35.1376C34.7362 35.1318 34.7346 35.1233 34.7326 35.1119C34.7282 35.089 34.722 35.055 34.7137 35.0107C34.6973 34.9223 34.6734 34.7926 34.6432 34.6287C34.5827 34.3008 34.4973 33.8362 34.3977 33.2899C34.1981 32.196 33.9426 30.7804 33.716 29.4814L27.0419 30.7823C27.2729 32.1068 27.5321 33.5424 27.7331 34.6439C27.8336 35.1952 27.9199 35.6642 27.981 35.9957C28.0116 36.1614 28.0358 36.2928 28.0525 36.3829C28.0609 36.428 28.0673 36.4626 28.0717 36.4862C28.0739 36.498 28.0755 36.5069 28.0766 36.513C28.0772 36.5161 28.0777 36.5184 28.0779 36.52L28.0784 36.5225C28.0784 36.5225 28.0784 36.5225 31.4086 35.8342ZM33.716 29.4814C33.5898 28.7572 33.7781 27.6532 34.2135 26.4492L27.8551 24.1754C27.2886 25.742 26.6007 28.251 27.0419 30.7823L33.716 29.4814ZM51.0926 23.3301L51.1448 23.6905L57.8501 22.585L57.7978 22.2247L51.0926 23.3301ZM49.9274 27.7368C49.9274 27.7368 41.5591 40.3453 35.9849 36.1626C30.4107 31.9799 34.2998 39.8409 40.9877 40.7159C47.6755 41.5909 54.9301 32.2902 54.9301 32.2902L49.9274 27.7368ZM51.1448 23.6905C51.1925 24.0199 51.207 24.354 51.1879 24.6875L57.9533 24.9765C57.9993 24.1766 57.9646 23.3752 57.8501 22.585L51.1448 23.6905ZM51.1879 24.6875C51.1232 25.8151 50.6782 26.8918 49.9274 27.7368L54.9301 32.2902C56.7308 30.2633 57.7985 27.6807 57.9533 24.9765L51.1879 24.6875ZM40.1091 19.7391C41.908 17.933 44.5547 17.3209 46.9102 18.166L49.2614 11.6843C44.4535 9.95938 39.0514 11.2089 35.3798 14.8951L40.1091 19.7391ZM46.9102 18.166C49.1432 18.9671 50.7473 20.9476 51.0926 23.3301L57.7978 22.2247C57.0928 17.3617 53.8191 13.3195 49.2614 11.6843L46.9102 18.166ZM31.4778 18.8126C30.1555 20.1402 28.6798 21.8948 27.8551 24.1754L34.2135 26.4492C34.5268 25.5828 35.1738 24.6941 36.2072 23.6566L31.4778 18.8126Z" fill="#1D00D2"/>
<path d="M35.062 36.5298C34.7165 34.6709 30.6426 32.9124 28.8033 33.2926C26.9641 33.6727 28.056 36.0473 28.4015 37.9062L35.062 36.5298ZM5.18706 48.0757C5.07837 49.9714 6.50488 51.5729 8.37311 51.6527C10.2413 51.7325 11.8438 50.2604 11.9525 48.3647L5.18706 48.0757ZM13.879 61.368C15.6341 61.9976 17.5833 61.0572 18.2326 59.2673C18.8818 57.4774 17.9853 55.5159 16.2301 54.8863L13.879 61.368ZM26.9332 49.3956L23.0313 53.3132L27.7606 58.1571L31.6625 54.2397L26.9332 49.3956ZM31.7318 37.218C28.4015 37.9062 28.4015 37.9062 28.4015 37.9062L28.4018 37.9082C28.4018 37.9082 28.4026 37.9117 28.4031 37.9146C28.4042 37.9204 28.4058 37.9289 28.4078 37.9403C28.4122 37.9632 28.4184 37.9972 28.4267 38.0416C28.4431 38.13 28.467 38.2596 28.4972 38.4236C28.5577 38.7514 28.6431 39.216 28.7427 39.7623C28.9422 40.8562 29.1978 42.2718 29.4244 43.5708L36.0984 42.27C35.8674 40.9454 35.6082 39.5099 35.4073 38.4084C35.3067 37.857 35.2205 37.388 35.1594 37.0566C35.1288 36.8909 35.1045 36.7594 35.0879 36.6694C35.0795 36.6243 35.0731 36.5896 35.0687 36.566C35.0665 36.5543 35.0648 36.5453 35.0637 36.5392C35.0632 36.5362 35.0627 36.5339 35.0625 36.5322L35.062 36.5298C35.062 36.5298 35.062 36.5298 31.7318 37.218ZM29.4244 43.5708C29.5506 44.2951 29.3623 45.399 28.9268 46.6031L35.2853 48.8768C35.8518 47.3102 36.5397 44.8013 36.0984 42.27L29.4244 43.5708ZM12.0478 49.7221L11.9955 49.3618L5.29025 50.4672L5.34253 50.8275L12.0478 49.7221ZM13.213 45.3155C13.213 45.3155 21.5813 32.7069 27.1555 36.8896C32.7297 41.0723 28.8406 33.2113 22.1527 32.3363C15.4649 31.4614 8.21025 40.7621 8.21025 40.7621L13.213 45.3155ZM11.9955 49.3618C11.9479 49.0323 11.9334 48.6983 11.9525 48.3647L5.18706 48.0757C5.14109 48.8756 5.17577 49.677 5.29025 50.4672L11.9955 49.3618ZM11.9525 48.3647C12.0171 47.2372 12.4622 46.1605 13.213 45.3155L8.21025 40.7621C6.40954 42.789 5.34191 45.3716 5.18706 48.0757L11.9525 48.3647ZM23.0313 53.3132C21.2324 55.1192 18.5857 55.7314 16.2301 54.8863L13.879 61.368C18.6868 63.0929 24.089 61.8434 27.7606 58.1571L23.0313 53.3132ZM16.2301 54.8863C13.9972 54.0851 12.3931 52.1047 12.0478 49.7221L5.34253 50.8275C6.04757 55.6905 9.32124 59.7328 13.879 61.368L16.2301 54.8863ZM31.6625 54.2397C32.9849 52.9121 34.4606 51.1574 35.2853 48.8768L28.9268 46.6031C28.6136 47.4694 27.9666 48.3581 26.9332 49.3956L31.6625 54.2397Z" fill="#CF3DFD"/>
</svg>
